<mxfile host="Electron" agent="Mozilla/5.0 (X11; Linux x86_64) AppleWebKit/537.36 (KHTML, like Gecko) draw.io/27.0.9 Chrome/134.0.6998.205 Electron/35.4.0 Safari/537.36" version="27.0.9">
  <diagram id="relational_diagram" name="Relational Diagram">
    <mxGraphModel dx="1426" dy="2012" grid="1" gridSize="10" guides="1" tooltips="1" connect="1" arrows="1" fold="1" page="1" pageScale="1" pageWidth="827" pageHeight="1169" math="0" shadow="0">
      <root>
        <mxCell id="0" />
        <mxCell id="1" parent="0" />
        <mxCell id="ifLj0rHLDiwDutu8jd7p-1" value="" style="whiteSpace=wrap;html=1;aspect=fixed;shadow=1;labelBackgroundColor=light-dark(#f9f6f6, #ededed);noLabel=0;rounded=0;glass=0;strokeWidth=2;strokeColor=light-dark(#af4646, #ededed);" parent="1" vertex="1">
          <mxGeometry x="30" y="-270" width="1260" height="1260" as="geometry" />
        </mxCell>
        <mxCell id="ifLj0rHLDiwDutu8jd7p-2" value="&lt;h1 style=&quot;margin-top: 0px;&quot;&gt;ENTRY PERMIT&amp;nbsp; ERD&lt;/h1&gt;" style="text;html=1;whiteSpace=wrap;overflow=hidden;rounded=0;shadow=0;labelBackgroundColor=light-dark(#f9f6f6, #ededed);strokeColor=none;strokeWidth=0;" parent="1" vertex="1">
          <mxGeometry x="430" y="-180" width="300" height="50" as="geometry" />
        </mxCell>
        <mxCell id="ifLj0rHLDiwDutu8jd7p-3" value="permits" style="shape=table;startSize=30;container=1;collapsible=1;childLayout=tableLayout;fixedRows=1;rowLines=0;fontStyle=1;align=center;resizeLast=1;html=1;shadow=0;whiteSpace=wrap;labelBackgroundColor=light-dark(#f9f6f6, #ededed);swimlaneFillColor=none;strokeColor=light-dark(#af4646, #ededed);gradientColor=none;noLabel=0;strokeWidth=2;" parent="1" vertex="1">
          <mxGeometry x="170" y="-110" width="180" height="270" as="geometry" />
        </mxCell>
        <mxCell id="ifLj0rHLDiwDutu8jd7p-4" value="" style="shape=tableRow;horizontal=0;startSize=0;swimlaneHead=0;swimlaneBody=0;collapsible=0;dropTarget=0;points=[[0,0.5],[1,0.5]];portConstraint=eastwest;top=0;left=0;right=0;bottom=1;shadow=0;whiteSpace=wrap;labelBackgroundColor=light-dark(#f9f6f6, #ededed);swimlaneFillColor=none;strokeColor=light-dark(#af4646, #ededed);gradientColor=none;noLabel=0;strokeWidth=2;" parent="ifLj0rHLDiwDutu8jd7p-3" vertex="1">
          <mxGeometry y="30" width="180" height="30" as="geometry" />
        </mxCell>
        <mxCell id="ifLj0rHLDiwDutu8jd7p-5" value="PK" style="shape=partialRectangle;connectable=0;top=0;left=0;bottom=0;right=0;fontStyle=1;overflow=hidden;whiteSpace=wrap;html=1;shadow=0;labelBackgroundColor=light-dark(#f9f6f6, #ededed);swimlaneFillColor=none;strokeColor=light-dark(#af4646, #ededed);gradientColor=none;noLabel=0;strokeWidth=2;" parent="ifLj0rHLDiwDutu8jd7p-4" vertex="1">
          <mxGeometry width="30" height="30" as="geometry">
            <mxRectangle width="30" height="30" as="alternateBounds" />
          </mxGeometry>
        </mxCell>
        <mxCell id="ifLj0rHLDiwDutu8jd7p-6" value="id" style="shape=partialRectangle;connectable=0;top=0;left=0;bottom=0;right=0;align=left;spacingLeft=6;fontStyle=5;overflow=hidden;whiteSpace=wrap;html=1;shadow=0;labelBackgroundColor=light-dark(#f9f6f6, #ededed);swimlaneFillColor=none;strokeColor=light-dark(#af4646, #ededed);gradientColor=none;noLabel=0;strokeWidth=2;" parent="ifLj0rHLDiwDutu8jd7p-4" vertex="1">
          <mxGeometry x="30" width="150" height="30" as="geometry">
            <mxRectangle width="150" height="30" as="alternateBounds" />
          </mxGeometry>
        </mxCell>
        <mxCell id="ifLj0rHLDiwDutu8jd7p-7" value="" style="shape=tableRow;horizontal=0;startSize=0;swimlaneHead=0;swimlaneBody=0;collapsible=0;dropTarget=0;points=[[0,0.5],[1,0.5]];portConstraint=eastwest;top=0;left=0;right=0;bottom=0;shadow=0;whiteSpace=wrap;labelBackgroundColor=light-dark(#f9f6f6, #ededed);swimlaneFillColor=none;strokeColor=light-dark(#af4646, #ededed);gradientColor=none;noLabel=0;strokeWidth=2;" parent="ifLj0rHLDiwDutu8jd7p-3" vertex="1">
          <mxGeometry y="60" width="180" height="30" as="geometry" />
        </mxCell>
        <mxCell id="ifLj0rHLDiwDutu8jd7p-8" value="" style="shape=partialRectangle;connectable=0;top=0;left=0;bottom=0;right=0;editable=1;overflow=hidden;whiteSpace=wrap;html=1;shadow=0;labelBackgroundColor=light-dark(#f9f6f6, #ededed);swimlaneFillColor=none;strokeColor=light-dark(#af4646, #ededed);gradientColor=none;noLabel=0;strokeWidth=2;" parent="ifLj0rHLDiwDutu8jd7p-7" vertex="1">
          <mxGeometry width="30" height="30" as="geometry">
            <mxRectangle width="30" height="30" as="alternateBounds" />
          </mxGeometry>
        </mxCell>
        <mxCell id="ifLj0rHLDiwDutu8jd7p-9" value="uuid" style="shape=partialRectangle;connectable=0;top=0;left=0;bottom=0;right=0;align=left;spacingLeft=6;overflow=hidden;whiteSpace=wrap;html=1;shadow=0;labelBackgroundColor=light-dark(#f9f6f6, #ededed);swimlaneFillColor=none;strokeColor=light-dark(#af4646, #ededed);gradientColor=none;noLabel=0;strokeWidth=2;" parent="ifLj0rHLDiwDutu8jd7p-7" vertex="1">
          <mxGeometry x="30" width="150" height="30" as="geometry">
            <mxRectangle width="150" height="30" as="alternateBounds" />
          </mxGeometry>
        </mxCell>
        <mxCell id="ifLj0rHLDiwDutu8jd7p-10" value="" style="shape=tableRow;horizontal=0;startSize=0;swimlaneHead=0;swimlaneBody=0;collapsible=0;dropTarget=0;points=[[0,0.5],[1,0.5]];portConstraint=eastwest;top=0;left=0;right=0;bottom=0;shadow=0;whiteSpace=wrap;labelBackgroundColor=light-dark(#f9f6f6, #ededed);swimlaneFillColor=none;strokeColor=light-dark(#af4646, #ededed);gradientColor=none;noLabel=0;strokeWidth=2;" parent="ifLj0rHLDiwDutu8jd7p-3" vertex="1">
          <mxGeometry y="90" width="180" height="30" as="geometry" />
        </mxCell>
        <mxCell id="ifLj0rHLDiwDutu8jd7p-11" value="" style="shape=partialRectangle;connectable=0;top=0;left=0;bottom=0;right=0;editable=1;overflow=hidden;whiteSpace=wrap;html=1;shadow=0;labelBackgroundColor=light-dark(#f9f6f6, #ededed);swimlaneFillColor=none;strokeColor=light-dark(#af4646, #ededed);gradientColor=none;noLabel=0;strokeWidth=2;" parent="ifLj0rHLDiwDutu8jd7p-10" vertex="1">
          <mxGeometry width="30" height="30" as="geometry">
            <mxRectangle width="30" height="30" as="alternateBounds" />
          </mxGeometry>
        </mxCell>
        <mxCell id="ifLj0rHLDiwDutu8jd7p-12" value="client_id" style="shape=partialRectangle;connectable=0;top=0;left=0;bottom=0;right=0;align=left;spacingLeft=6;overflow=hidden;whiteSpace=wrap;html=1;shadow=0;labelBackgroundColor=light-dark(#f9f6f6, #ededed);swimlaneFillColor=none;strokeColor=light-dark(#af4646, #ededed);gradientColor=none;noLabel=0;strokeWidth=2;" parent="ifLj0rHLDiwDutu8jd7p-10" vertex="1">
          <mxGeometry x="30" width="150" height="30" as="geometry">
            <mxRectangle width="150" height="30" as="alternateBounds" />
          </mxGeometry>
        </mxCell>
        <mxCell id="ifLj0rHLDiwDutu8jd7p-13" value="" style="shape=tableRow;horizontal=0;startSize=0;swimlaneHead=0;swimlaneBody=0;collapsible=0;dropTarget=0;points=[[0,0.5],[1,0.5]];portConstraint=eastwest;top=0;left=0;right=0;bottom=0;shadow=0;whiteSpace=wrap;labelBackgroundColor=light-dark(#f9f6f6, #ededed);swimlaneFillColor=none;strokeColor=light-dark(#af4646, #ededed);gradientColor=none;noLabel=0;strokeWidth=2;" parent="ifLj0rHLDiwDutu8jd7p-3" vertex="1">
          <mxGeometry y="120" width="180" height="30" as="geometry" />
        </mxCell>
        <mxCell id="ifLj0rHLDiwDutu8jd7p-14" value="" style="shape=partialRectangle;connectable=0;top=0;left=0;bottom=0;right=0;editable=1;overflow=hidden;whiteSpace=wrap;html=1;shadow=0;labelBackgroundColor=light-dark(#f9f6f6, #ededed);swimlaneFillColor=none;strokeColor=light-dark(#af4646, #ededed);gradientColor=none;noLabel=0;strokeWidth=2;" parent="ifLj0rHLDiwDutu8jd7p-13" vertex="1">
          <mxGeometry width="30" height="30" as="geometry">
            <mxRectangle width="30" height="30" as="alternateBounds" />
          </mxGeometry>
        </mxCell>
        <mxCell id="ifLj0rHLDiwDutu8jd7p-15" value="user_id" style="shape=partialRectangle;connectable=0;top=0;left=0;bottom=0;right=0;align=left;spacingLeft=6;overflow=hidden;whiteSpace=wrap;html=1;shadow=0;labelBackgroundColor=light-dark(#f9f6f6, #ededed);swimlaneFillColor=none;strokeColor=light-dark(#af4646, #ededed);gradientColor=none;noLabel=0;strokeWidth=2;" parent="ifLj0rHLDiwDutu8jd7p-13" vertex="1">
          <mxGeometry x="30" width="150" height="30" as="geometry">
            <mxRectangle width="150" height="30" as="alternateBounds" />
          </mxGeometry>
        </mxCell>
        <mxCell id="ifLj0rHLDiwDutu8jd7p-29" value="" style="shape=tableRow;horizontal=0;startSize=0;swimlaneHead=0;swimlaneBody=0;collapsible=0;dropTarget=0;points=[[0,0.5],[1,0.5]];portConstraint=eastwest;top=0;left=0;right=0;bottom=0;shadow=0;whiteSpace=wrap;labelBackgroundColor=light-dark(#f9f6f6, #ededed);swimlaneFillColor=none;strokeColor=light-dark(#af4646, #ededed);gradientColor=none;noLabel=0;strokeWidth=2;" parent="ifLj0rHLDiwDutu8jd7p-3" vertex="1">
          <mxGeometry y="150" width="180" height="30" as="geometry" />
        </mxCell>
        <mxCell id="ifLj0rHLDiwDutu8jd7p-30" value="" style="shape=partialRectangle;connectable=0;top=0;left=0;bottom=0;right=0;editable=1;overflow=hidden;whiteSpace=wrap;html=1;shadow=0;labelBackgroundColor=light-dark(#f9f6f6, #ededed);swimlaneFillColor=none;strokeColor=light-dark(#af4646, #ededed);gradientColor=none;noLabel=0;strokeWidth=2;" parent="ifLj0rHLDiwDutu8jd7p-29" vertex="1">
          <mxGeometry width="30" height="30" as="geometry">
            <mxRectangle width="30" height="30" as="alternateBounds" />
          </mxGeometry>
        </mxCell>
        <mxCell id="ifLj0rHLDiwDutu8jd7p-31" value="group_name" style="shape=partialRectangle;connectable=0;top=0;left=0;bottom=0;right=0;align=left;spacingLeft=6;overflow=hidden;whiteSpace=wrap;html=1;shadow=0;labelBackgroundColor=light-dark(#f9f6f6, #ededed);swimlaneFillColor=none;strokeColor=light-dark(#af4646, #ededed);gradientColor=none;noLabel=0;strokeWidth=2;" parent="ifLj0rHLDiwDutu8jd7p-29" vertex="1">
          <mxGeometry x="30" width="150" height="30" as="geometry">
            <mxRectangle width="150" height="30" as="alternateBounds" />
          </mxGeometry>
        </mxCell>
        <mxCell id="ifLj0rHLDiwDutu8jd7p-32" value="" style="shape=tableRow;horizontal=0;startSize=0;swimlaneHead=0;swimlaneBody=0;collapsible=0;dropTarget=0;points=[[0,0.5],[1,0.5]];portConstraint=eastwest;top=0;left=0;right=0;bottom=0;shadow=0;whiteSpace=wrap;labelBackgroundColor=light-dark(#f9f6f6, #ededed);swimlaneFillColor=none;strokeColor=light-dark(#af4646, #ededed);gradientColor=none;noLabel=0;strokeWidth=2;" parent="ifLj0rHLDiwDutu8jd7p-3" vertex="1">
          <mxGeometry y="180" width="180" height="30" as="geometry" />
        </mxCell>
        <mxCell id="ifLj0rHLDiwDutu8jd7p-33" value="" style="shape=partialRectangle;connectable=0;top=0;left=0;bottom=0;right=0;editable=1;overflow=hidden;whiteSpace=wrap;html=1;shadow=0;labelBackgroundColor=light-dark(#f9f6f6, #ededed);swimlaneFillColor=none;strokeColor=light-dark(#af4646, #ededed);gradientColor=none;noLabel=0;strokeWidth=2;" parent="ifLj0rHLDiwDutu8jd7p-32" vertex="1">
          <mxGeometry width="30" height="30" as="geometry">
            <mxRectangle width="30" height="30" as="alternateBounds" />
          </mxGeometry>
        </mxCell>
        <mxCell id="ifLj0rHLDiwDutu8jd7p-34" value="holder_name" style="shape=partialRectangle;connectable=0;top=0;left=0;bottom=0;right=0;align=left;spacingLeft=6;overflow=hidden;whiteSpace=wrap;html=1;shadow=0;labelBackgroundColor=light-dark(#f9f6f6, #ededed);swimlaneFillColor=none;strokeColor=light-dark(#af4646, #ededed);gradientColor=none;noLabel=0;strokeWidth=2;" parent="ifLj0rHLDiwDutu8jd7p-32" vertex="1">
          <mxGeometry x="30" width="150" height="30" as="geometry">
            <mxRectangle width="150" height="30" as="alternateBounds" />
          </mxGeometry>
        </mxCell>
        <mxCell id="ifLj0rHLDiwDutu8jd7p-35" value="" style="shape=tableRow;horizontal=0;startSize=0;swimlaneHead=0;swimlaneBody=0;collapsible=0;dropTarget=0;points=[[0,0.5],[1,0.5]];portConstraint=eastwest;top=0;left=0;right=0;bottom=0;shadow=0;whiteSpace=wrap;labelBackgroundColor=light-dark(#f9f6f6, #ededed);swimlaneFillColor=none;strokeColor=light-dark(#af4646, #ededed);gradientColor=none;noLabel=0;strokeWidth=2;" parent="ifLj0rHLDiwDutu8jd7p-3" vertex="1">
          <mxGeometry y="210" width="180" height="30" as="geometry" />
        </mxCell>
        <mxCell id="ifLj0rHLDiwDutu8jd7p-36" value="" style="shape=partialRectangle;connectable=0;top=0;left=0;bottom=0;right=0;editable=1;overflow=hidden;whiteSpace=wrap;html=1;shadow=0;labelBackgroundColor=light-dark(#f9f6f6, #ededed);swimlaneFillColor=none;strokeColor=light-dark(#af4646, #ededed);gradientColor=none;noLabel=0;strokeWidth=2;" parent="ifLj0rHLDiwDutu8jd7p-35" vertex="1">
          <mxGeometry width="30" height="30" as="geometry">
            <mxRectangle width="30" height="30" as="alternateBounds" />
          </mxGeometry>
        </mxCell>
        <mxCell id="ifLj0rHLDiwDutu8jd7p-37" value="holder_phone" style="shape=partialRectangle;connectable=0;top=0;left=0;bottom=0;right=0;align=left;spacingLeft=6;overflow=hidden;whiteSpace=wrap;html=1;shadow=0;labelBackgroundColor=light-dark(#f9f6f6, #ededed);swimlaneFillColor=none;strokeColor=light-dark(#af4646, #ededed);gradientColor=none;noLabel=0;strokeWidth=2;" parent="ifLj0rHLDiwDutu8jd7p-35" vertex="1">
          <mxGeometry x="30" width="150" height="30" as="geometry">
            <mxRectangle width="150" height="30" as="alternateBounds" />
          </mxGeometry>
        </mxCell>
        <mxCell id="ifLj0rHLDiwDutu8jd7p-59" value="" style="shape=tableRow;horizontal=0;startSize=0;swimlaneHead=0;swimlaneBody=0;collapsible=0;dropTarget=0;points=[[0,0.5],[1,0.5]];portConstraint=eastwest;top=0;left=0;right=0;bottom=0;shadow=0;whiteSpace=wrap;labelBackgroundColor=light-dark(#f9f6f6, #ededed);swimlaneFillColor=none;strokeColor=light-dark(#af4646, #ededed);gradientColor=none;noLabel=0;strokeWidth=2;" parent="ifLj0rHLDiwDutu8jd7p-3" vertex="1">
          <mxGeometry y="240" width="180" height="30" as="geometry" />
        </mxCell>
        <mxCell id="ifLj0rHLDiwDutu8jd7p-60" value="" style="shape=partialRectangle;connectable=0;top=0;left=0;bottom=0;right=0;editable=1;overflow=hidden;whiteSpace=wrap;html=1;shadow=0;labelBackgroundColor=light-dark(#f9f6f6, #ededed);swimlaneFillColor=none;strokeColor=light-dark(#af4646, #ededed);gradientColor=none;noLabel=0;strokeWidth=2;" parent="ifLj0rHLDiwDutu8jd7p-59" vertex="1">
          <mxGeometry width="30" height="30" as="geometry">
            <mxRectangle width="30" height="30" as="alternateBounds" />
          </mxGeometry>
        </mxCell>
        <mxCell id="ifLj0rHLDiwDutu8jd7p-61" value="status" style="shape=partialRectangle;connectable=0;top=0;left=0;bottom=0;right=0;align=left;spacingLeft=6;overflow=hidden;whiteSpace=wrap;html=1;shadow=0;labelBackgroundColor=light-dark(#f9f6f6, #ededed);swimlaneFillColor=none;strokeColor=light-dark(#af4646, #ededed);gradientColor=none;noLabel=0;strokeWidth=2;" parent="ifLj0rHLDiwDutu8jd7p-59" vertex="1">
          <mxGeometry x="30" width="150" height="30" as="geometry">
            <mxRectangle width="150" height="30" as="alternateBounds" />
          </mxGeometry>
        </mxCell>
        <mxCell id="ifLj0rHLDiwDutu8jd7p-16" value="permit_attraction_sites" style="shape=table;startSize=30;container=1;collapsible=1;childLayout=tableLayout;fixedRows=1;rowLines=0;fontStyle=1;align=center;resizeLast=1;html=1;shadow=0;whiteSpace=wrap;labelBackgroundColor=light-dark(#f9f6f6, #ededed);swimlaneFillColor=none;strokeColor=light-dark(#af4646, #ededed);gradientColor=none;noLabel=0;strokeWidth=2;" parent="1" vertex="1">
          <mxGeometry x="480" y="-110" width="180" height="360" as="geometry" />
        </mxCell>
        <mxCell id="ifLj0rHLDiwDutu8jd7p-17" value="" style="shape=tableRow;horizontal=0;startSize=0;swimlaneHead=0;swimlaneBody=0;collapsible=0;dropTarget=0;points=[[0,0.5],[1,0.5]];portConstraint=eastwest;top=0;left=0;right=0;bottom=1;shadow=0;whiteSpace=wrap;labelBackgroundColor=light-dark(#f9f6f6, #ededed);strokeColor=light-dark(#af4646, #ededed);strokeWidth=2;" parent="ifLj0rHLDiwDutu8jd7p-16" vertex="1">
          <mxGeometry y="30" width="180" height="30" as="geometry" />
        </mxCell>
        <mxCell id="ifLj0rHLDiwDutu8jd7p-18" value="PK" style="shape=partialRectangle;connectable=0;top=0;left=0;bottom=0;right=0;fontStyle=1;overflow=hidden;whiteSpace=wrap;html=1;shadow=0;labelBackgroundColor=light-dark(#f9f6f6, #ededed);strokeColor=light-dark(#af4646, #ededed);strokeWidth=2;" parent="ifLj0rHLDiwDutu8jd7p-17" vertex="1">
          <mxGeometry width="30" height="30" as="geometry">
            <mxRectangle width="30" height="30" as="alternateBounds" />
          </mxGeometry>
        </mxCell>
        <mxCell id="ifLj0rHLDiwDutu8jd7p-19" value="id" style="shape=partialRectangle;connectable=0;top=0;left=0;bottom=0;right=0;align=left;spacingLeft=6;fontStyle=5;overflow=hidden;whiteSpace=wrap;html=1;shadow=0;labelBackgroundColor=light-dark(#f9f6f6, #ededed);strokeColor=light-dark(#af4646, #ededed);strokeWidth=2;" parent="ifLj0rHLDiwDutu8jd7p-17" vertex="1">
          <mxGeometry x="30" width="150" height="30" as="geometry">
            <mxRectangle width="150" height="30" as="alternateBounds" />
          </mxGeometry>
        </mxCell>
        <mxCell id="ifLj0rHLDiwDutu8jd7p-20" value="" style="shape=tableRow;horizontal=0;startSize=0;swimlaneHead=0;swimlaneBody=0;collapsible=0;dropTarget=0;points=[[0,0.5],[1,0.5]];portConstraint=eastwest;top=0;left=0;right=0;bottom=0;shadow=0;whiteSpace=wrap;labelBackgroundColor=light-dark(#f9f6f6, #ededed);strokeColor=light-dark(#af4646, #ededed);strokeWidth=2;" parent="ifLj0rHLDiwDutu8jd7p-16" vertex="1">
          <mxGeometry y="60" width="180" height="30" as="geometry" />
        </mxCell>
        <mxCell id="ifLj0rHLDiwDutu8jd7p-21" value="" style="shape=partialRectangle;connectable=0;top=0;left=0;bottom=0;right=0;editable=1;overflow=hidden;whiteSpace=wrap;html=1;shadow=0;labelBackgroundColor=light-dark(#f9f6f6, #ededed);strokeColor=light-dark(#af4646, #ededed);strokeWidth=2;" parent="ifLj0rHLDiwDutu8jd7p-20" vertex="1">
          <mxGeometry width="30" height="30" as="geometry">
            <mxRectangle width="30" height="30" as="alternateBounds" />
          </mxGeometry>
        </mxCell>
        <mxCell id="ifLj0rHLDiwDutu8jd7p-22" value="uuid" style="shape=partialRectangle;connectable=0;top=0;left=0;bottom=0;right=0;align=left;spacingLeft=6;overflow=hidden;whiteSpace=wrap;html=1;shadow=0;labelBackgroundColor=light-dark(#f9f6f6, #ededed);strokeColor=light-dark(#af4646, #ededed);strokeWidth=2;" parent="ifLj0rHLDiwDutu8jd7p-20" vertex="1">
          <mxGeometry x="30" width="150" height="30" as="geometry">
            <mxRectangle width="150" height="30" as="alternateBounds" />
          </mxGeometry>
        </mxCell>
        <mxCell id="ifLj0rHLDiwDutu8jd7p-23" value="" style="shape=tableRow;horizontal=0;startSize=0;swimlaneHead=0;swimlaneBody=0;collapsible=0;dropTarget=0;points=[[0,0.5],[1,0.5]];portConstraint=eastwest;top=0;left=0;right=0;bottom=0;shadow=0;whiteSpace=wrap;labelBackgroundColor=light-dark(#f9f6f6, #ededed);strokeColor=light-dark(#af4646, #ededed);strokeWidth=2;" parent="ifLj0rHLDiwDutu8jd7p-16" vertex="1">
          <mxGeometry y="90" width="180" height="30" as="geometry" />
        </mxCell>
        <mxCell id="ifLj0rHLDiwDutu8jd7p-24" value="" style="shape=partialRectangle;connectable=0;top=0;left=0;bottom=0;right=0;editable=1;overflow=hidden;whiteSpace=wrap;html=1;shadow=0;labelBackgroundColor=light-dark(#f9f6f6, #ededed);strokeColor=light-dark(#af4646, #ededed);strokeWidth=2;" parent="ifLj0rHLDiwDutu8jd7p-23" vertex="1">
          <mxGeometry width="30" height="30" as="geometry">
            <mxRectangle width="30" height="30" as="alternateBounds" />
          </mxGeometry>
        </mxCell>
        <mxCell id="ifLj0rHLDiwDutu8jd7p-25" value="permit_id" style="shape=partialRectangle;connectable=0;top=0;left=0;bottom=0;right=0;align=left;spacingLeft=6;overflow=hidden;whiteSpace=wrap;html=1;shadow=0;labelBackgroundColor=light-dark(#f9f6f6, #ededed);strokeColor=light-dark(#af4646, #ededed);strokeWidth=2;" parent="ifLj0rHLDiwDutu8jd7p-23" vertex="1">
          <mxGeometry x="30" width="150" height="30" as="geometry">
            <mxRectangle width="150" height="30" as="alternateBounds" />
          </mxGeometry>
        </mxCell>
        <mxCell id="ifLj0rHLDiwDutu8jd7p-26" value="" style="shape=tableRow;horizontal=0;startSize=0;swimlaneHead=0;swimlaneBody=0;collapsible=0;dropTarget=0;points=[[0,0.5],[1,0.5]];portConstraint=eastwest;top=0;left=0;right=0;bottom=0;shadow=0;whiteSpace=wrap;labelBackgroundColor=light-dark(#f9f6f6, #ededed);strokeColor=light-dark(#af4646, #ededed);strokeWidth=2;" parent="ifLj0rHLDiwDutu8jd7p-16" vertex="1">
          <mxGeometry y="120" width="180" height="30" as="geometry" />
        </mxCell>
        <mxCell id="ifLj0rHLDiwDutu8jd7p-27" value="" style="shape=partialRectangle;connectable=0;top=0;left=0;bottom=0;right=0;editable=1;overflow=hidden;whiteSpace=wrap;html=1;shadow=0;labelBackgroundColor=light-dark(#f9f6f6, #ededed);strokeColor=light-dark(#af4646, #ededed);strokeWidth=2;" parent="ifLj0rHLDiwDutu8jd7p-26" vertex="1">
          <mxGeometry width="30" height="30" as="geometry">
            <mxRectangle width="30" height="30" as="alternateBounds" />
          </mxGeometry>
        </mxCell>
        <mxCell id="ifLj0rHLDiwDutu8jd7p-28" value="attraction_site_id" style="shape=partialRectangle;connectable=0;top=0;left=0;bottom=0;right=0;align=left;spacingLeft=6;overflow=hidden;whiteSpace=wrap;html=1;shadow=0;labelBackgroundColor=light-dark(#f9f6f6, #ededed);strokeColor=light-dark(#af4646, #ededed);strokeWidth=2;" parent="ifLj0rHLDiwDutu8jd7p-26" vertex="1">
          <mxGeometry x="30" width="150" height="30" as="geometry">
            <mxRectangle width="150" height="30" as="alternateBounds" />
          </mxGeometry>
        </mxCell>
        <mxCell id="ifLj0rHLDiwDutu8jd7p-38" value="" style="shape=tableRow;horizontal=0;startSize=0;swimlaneHead=0;swimlaneBody=0;collapsible=0;dropTarget=0;points=[[0,0.5],[1,0.5]];portConstraint=eastwest;top=0;left=0;right=0;bottom=0;shadow=0;whiteSpace=wrap;labelBackgroundColor=light-dark(#f9f6f6, #ededed);strokeColor=light-dark(#af4646, #ededed);strokeWidth=2;" parent="ifLj0rHLDiwDutu8jd7p-16" vertex="1">
          <mxGeometry y="150" width="180" height="30" as="geometry" />
        </mxCell>
        <mxCell id="ifLj0rHLDiwDutu8jd7p-39" value="" style="shape=partialRectangle;connectable=0;top=0;left=0;bottom=0;right=0;editable=1;overflow=hidden;whiteSpace=wrap;html=1;shadow=0;labelBackgroundColor=light-dark(#f9f6f6, #ededed);strokeColor=light-dark(#af4646, #ededed);strokeWidth=2;" parent="ifLj0rHLDiwDutu8jd7p-38" vertex="1">
          <mxGeometry width="30" height="30" as="geometry">
            <mxRectangle width="30" height="30" as="alternateBounds" />
          </mxGeometry>
        </mxCell>
        <mxCell id="ifLj0rHLDiwDutu8jd7p-40" value="permit_type_id" style="shape=partialRectangle;connectable=0;top=0;left=0;bottom=0;right=0;align=left;spacingLeft=6;overflow=hidden;whiteSpace=wrap;html=1;shadow=0;labelBackgroundColor=light-dark(#f9f6f6, #ededed);strokeColor=light-dark(#af4646, #ededed);strokeWidth=2;" parent="ifLj0rHLDiwDutu8jd7p-38" vertex="1">
          <mxGeometry x="30" width="150" height="30" as="geometry">
            <mxRectangle width="150" height="30" as="alternateBounds" />
          </mxGeometry>
        </mxCell>
        <mxCell id="ifLj0rHLDiwDutu8jd7p-41" value="" style="shape=tableRow;horizontal=0;startSize=0;swimlaneHead=0;swimlaneBody=0;collapsible=0;dropTarget=0;points=[[0,0.5],[1,0.5]];portConstraint=eastwest;top=0;left=0;right=0;bottom=0;shadow=0;whiteSpace=wrap;labelBackgroundColor=light-dark(#f9f6f6, #ededed);strokeColor=light-dark(#af4646, #ededed);strokeWidth=2;" parent="ifLj0rHLDiwDutu8jd7p-16" vertex="1">
          <mxGeometry y="180" width="180" height="30" as="geometry" />
        </mxCell>
        <mxCell id="ifLj0rHLDiwDutu8jd7p-42" value="" style="shape=partialRectangle;connectable=0;top=0;left=0;bottom=0;right=0;editable=1;overflow=hidden;whiteSpace=wrap;html=1;shadow=0;labelBackgroundColor=light-dark(#f9f6f6, #ededed);strokeColor=light-dark(#af4646, #ededed);strokeWidth=2;" parent="ifLj0rHLDiwDutu8jd7p-41" vertex="1">
          <mxGeometry width="30" height="30" as="geometry">
            <mxRectangle width="30" height="30" as="alternateBounds" />
          </mxGeometry>
        </mxCell>
        <mxCell id="ifLj0rHLDiwDutu8jd7p-43" value="expected_entry_date" style="shape=partialRectangle;connectable=0;top=0;left=0;bottom=0;right=0;align=left;spacingLeft=6;overflow=hidden;whiteSpace=wrap;html=1;shadow=0;labelBackgroundColor=light-dark(#f9f6f6, #ededed);strokeColor=light-dark(#af4646, #ededed);strokeWidth=2;" parent="ifLj0rHLDiwDutu8jd7p-41" vertex="1">
          <mxGeometry x="30" width="150" height="30" as="geometry">
            <mxRectangle width="150" height="30" as="alternateBounds" />
          </mxGeometry>
        </mxCell>
        <mxCell id="ifLj0rHLDiwDutu8jd7p-44" value="" style="shape=tableRow;horizontal=0;startSize=0;swimlaneHead=0;swimlaneBody=0;collapsible=0;dropTarget=0;points=[[0,0.5],[1,0.5]];portConstraint=eastwest;top=0;left=0;right=0;bottom=0;shadow=0;whiteSpace=wrap;labelBackgroundColor=light-dark(#f9f6f6, #ededed);strokeColor=light-dark(#af4646, #ededed);strokeWidth=2;" parent="ifLj0rHLDiwDutu8jd7p-16" vertex="1">
          <mxGeometry y="210" width="180" height="30" as="geometry" />
        </mxCell>
        <mxCell id="ifLj0rHLDiwDutu8jd7p-45" value="" style="shape=partialRectangle;connectable=0;top=0;left=0;bottom=0;right=0;editable=1;overflow=hidden;whiteSpace=wrap;html=1;shadow=0;labelBackgroundColor=light-dark(#f9f6f6, #ededed);strokeColor=light-dark(#af4646, #ededed);strokeWidth=2;" parent="ifLj0rHLDiwDutu8jd7p-44" vertex="1">
          <mxGeometry width="30" height="30" as="geometry">
            <mxRectangle width="30" height="30" as="alternateBounds" />
          </mxGeometry>
        </mxCell>
        <mxCell id="ifLj0rHLDiwDutu8jd7p-46" value="expected_exit_date" style="shape=partialRectangle;connectable=0;top=0;left=0;bottom=0;right=0;align=left;spacingLeft=6;overflow=hidden;whiteSpace=wrap;html=1;shadow=0;labelBackgroundColor=light-dark(#f9f6f6, #ededed);strokeColor=light-dark(#af4646, #ededed);strokeWidth=2;" parent="ifLj0rHLDiwDutu8jd7p-44" vertex="1">
          <mxGeometry x="30" width="150" height="30" as="geometry">
            <mxRectangle width="150" height="30" as="alternateBounds" />
          </mxGeometry>
        </mxCell>
        <mxCell id="ifLj0rHLDiwDutu8jd7p-47" value="" style="shape=tableRow;horizontal=0;startSize=0;swimlaneHead=0;swimlaneBody=0;collapsible=0;dropTarget=0;points=[[0,0.5],[1,0.5]];portConstraint=eastwest;top=0;left=0;right=0;bottom=0;shadow=0;whiteSpace=wrap;labelBackgroundColor=light-dark(#f9f6f6, #ededed);strokeColor=light-dark(#af4646, #ededed);strokeWidth=2;" parent="ifLj0rHLDiwDutu8jd7p-16" vertex="1">
          <mxGeometry y="240" width="180" height="30" as="geometry" />
        </mxCell>
        <mxCell id="ifLj0rHLDiwDutu8jd7p-48" value="" style="shape=partialRectangle;connectable=0;top=0;left=0;bottom=0;right=0;editable=1;overflow=hidden;whiteSpace=wrap;html=1;shadow=0;labelBackgroundColor=light-dark(#f9f6f6, #ededed);strokeColor=light-dark(#af4646, #ededed);strokeWidth=2;" parent="ifLj0rHLDiwDutu8jd7p-47" vertex="1">
          <mxGeometry width="30" height="30" as="geometry">
            <mxRectangle width="30" height="30" as="alternateBounds" />
          </mxGeometry>
        </mxCell>
        <mxCell id="ifLj0rHLDiwDutu8jd7p-49" value="expected_entry_gate_id" style="shape=partialRectangle;connectable=0;top=0;left=0;bottom=0;right=0;align=left;spacingLeft=6;overflow=hidden;whiteSpace=wrap;html=1;shadow=0;labelBackgroundColor=light-dark(#f9f6f6, #ededed);strokeColor=light-dark(#af4646, #ededed);strokeWidth=2;" parent="ifLj0rHLDiwDutu8jd7p-47" vertex="1">
          <mxGeometry x="30" width="150" height="30" as="geometry">
            <mxRectangle width="150" height="30" as="alternateBounds" />
          </mxGeometry>
        </mxCell>
        <mxCell id="ifLj0rHLDiwDutu8jd7p-50" value="" style="shape=tableRow;horizontal=0;startSize=0;swimlaneHead=0;swimlaneBody=0;collapsible=0;dropTarget=0;points=[[0,0.5],[1,0.5]];portConstraint=eastwest;top=0;left=0;right=0;bottom=0;shadow=0;whiteSpace=wrap;labelBackgroundColor=light-dark(#f9f6f6, #ededed);strokeColor=light-dark(#af4646, #ededed);strokeWidth=2;" parent="ifLj0rHLDiwDutu8jd7p-16" vertex="1">
          <mxGeometry y="270" width="180" height="30" as="geometry" />
        </mxCell>
        <mxCell id="ifLj0rHLDiwDutu8jd7p-51" value="" style="shape=partialRectangle;connectable=0;top=0;left=0;bottom=0;right=0;editable=1;overflow=hidden;whiteSpace=wrap;html=1;shadow=0;labelBackgroundColor=light-dark(#f9f6f6, #ededed);strokeColor=light-dark(#af4646, #ededed);strokeWidth=2;" parent="ifLj0rHLDiwDutu8jd7p-50" vertex="1">
          <mxGeometry width="30" height="30" as="geometry">
            <mxRectangle width="30" height="30" as="alternateBounds" />
          </mxGeometry>
        </mxCell>
        <mxCell id="ifLj0rHLDiwDutu8jd7p-52" value="expected_exit_gate_id" style="shape=partialRectangle;connectable=0;top=0;left=0;bottom=0;right=0;align=left;spacingLeft=6;overflow=hidden;whiteSpace=wrap;html=1;shadow=0;labelBackgroundColor=light-dark(#f9f6f6, #ededed);strokeColor=light-dark(#af4646, #ededed);strokeWidth=2;" parent="ifLj0rHLDiwDutu8jd7p-50" vertex="1">
          <mxGeometry x="30" width="150" height="30" as="geometry">
            <mxRectangle width="150" height="30" as="alternateBounds" />
          </mxGeometry>
        </mxCell>
        <mxCell id="ifLj0rHLDiwDutu8jd7p-53" value="" style="shape=tableRow;horizontal=0;startSize=0;swimlaneHead=0;swimlaneBody=0;collapsible=0;dropTarget=0;points=[[0,0.5],[1,0.5]];portConstraint=eastwest;top=0;left=0;right=0;bottom=0;shadow=0;whiteSpace=wrap;labelBackgroundColor=light-dark(#f9f6f6, #ededed);strokeColor=light-dark(#af4646, #ededed);strokeWidth=2;" parent="ifLj0rHLDiwDutu8jd7p-16" vertex="1">
          <mxGeometry y="300" width="180" height="30" as="geometry" />
        </mxCell>
        <mxCell id="ifLj0rHLDiwDutu8jd7p-54" value="" style="shape=partialRectangle;connectable=0;top=0;left=0;bottom=0;right=0;editable=1;overflow=hidden;whiteSpace=wrap;html=1;shadow=0;labelBackgroundColor=light-dark(#f9f6f6, #ededed);strokeColor=light-dark(#af4646, #ededed);strokeWidth=2;" parent="ifLj0rHLDiwDutu8jd7p-53" vertex="1">
          <mxGeometry width="30" height="30" as="geometry">
            <mxRectangle width="30" height="30" as="alternateBounds" />
          </mxGeometry>
        </mxCell>
        <mxCell id="ifLj0rHLDiwDutu8jd7p-55" value="financial_year_id" style="shape=partialRectangle;connectable=0;top=0;left=0;bottom=0;right=0;align=left;spacingLeft=6;overflow=hidden;whiteSpace=wrap;html=1;shadow=0;labelBackgroundColor=light-dark(#f9f6f6, #ededed);strokeColor=light-dark(#af4646, #ededed);strokeWidth=2;" parent="ifLj0rHLDiwDutu8jd7p-53" vertex="1">
          <mxGeometry x="30" width="150" height="30" as="geometry">
            <mxRectangle width="150" height="30" as="alternateBounds" />
          </mxGeometry>
        </mxCell>
        <mxCell id="ifLj0rHLDiwDutu8jd7p-56" value="" style="shape=tableRow;horizontal=0;startSize=0;swimlaneHead=0;swimlaneBody=0;collapsible=0;dropTarget=0;points=[[0,0.5],[1,0.5]];portConstraint=eastwest;top=0;left=0;right=0;bottom=0;shadow=0;whiteSpace=wrap;labelBackgroundColor=light-dark(#f9f6f6, #ededed);strokeColor=light-dark(#af4646, #ededed);strokeWidth=2;" parent="ifLj0rHLDiwDutu8jd7p-16" vertex="1">
          <mxGeometry y="330" width="180" height="30" as="geometry" />
        </mxCell>
        <mxCell id="ifLj0rHLDiwDutu8jd7p-57" value="" style="shape=partialRectangle;connectable=0;top=0;left=0;bottom=0;right=0;editable=1;overflow=hidden;whiteSpace=wrap;html=1;shadow=0;labelBackgroundColor=light-dark(#f9f6f6, #ededed);strokeColor=light-dark(#af4646, #ededed);strokeWidth=2;" parent="ifLj0rHLDiwDutu8jd7p-56" vertex="1">
          <mxGeometry width="30" height="30" as="geometry">
            <mxRectangle width="30" height="30" as="alternateBounds" />
          </mxGeometry>
        </mxCell>
        <mxCell id="ifLj0rHLDiwDutu8jd7p-58" value="status" style="shape=partialRectangle;connectable=0;top=0;left=0;bottom=0;right=0;align=left;spacingLeft=6;overflow=hidden;whiteSpace=wrap;html=1;shadow=0;labelBackgroundColor=light-dark(#f9f6f6, #ededed);strokeColor=light-dark(#af4646, #ededed);strokeWidth=2;" parent="ifLj0rHLDiwDutu8jd7p-56" vertex="1">
          <mxGeometry x="30" width="150" height="30" as="geometry">
            <mxRectangle width="150" height="30" as="alternateBounds" />
          </mxGeometry>
        </mxCell>
        <mxCell id="ifLj0rHLDiwDutu8jd7p-62" value="crews" style="shape=table;startSize=30;container=1;collapsible=1;childLayout=tableLayout;fixedRows=1;rowLines=0;fontStyle=1;align=center;resizeLast=1;html=1;shadow=0;whiteSpace=wrap;labelBackgroundColor=light-dark(#f9f6f6, #ededed);swimlaneFillColor=none;strokeColor=light-dark(#af4646, #ededed);gradientColor=none;noLabel=0;strokeWidth=2;" parent="1" vertex="1">
          <mxGeometry x="170" y="200" width="180" height="270" as="geometry" />
        </mxCell>
        <mxCell id="ifLj0rHLDiwDutu8jd7p-63" value="" style="shape=tableRow;horizontal=0;startSize=0;swimlaneHead=0;swimlaneBody=0;collapsible=0;dropTarget=0;points=[[0,0.5],[1,0.5]];portConstraint=eastwest;top=0;left=0;right=0;bottom=1;shadow=0;whiteSpace=wrap;labelBackgroundColor=light-dark(#f9f6f6, #ededed);strokeColor=light-dark(#af4646, #ededed);strokeWidth=2;" parent="ifLj0rHLDiwDutu8jd7p-62" vertex="1">
          <mxGeometry y="30" width="180" height="30" as="geometry" />
        </mxCell>
        <mxCell id="ifLj0rHLDiwDutu8jd7p-64" value="PK" style="shape=partialRectangle;connectable=0;top=0;left=0;bottom=0;right=0;fontStyle=1;overflow=hidden;whiteSpace=wrap;html=1;shadow=0;labelBackgroundColor=light-dark(#f9f6f6, #ededed);strokeColor=light-dark(#af4646, #ededed);strokeWidth=2;" parent="ifLj0rHLDiwDutu8jd7p-63" vertex="1">
          <mxGeometry width="30" height="30" as="geometry">
            <mxRectangle width="30" height="30" as="alternateBounds" />
          </mxGeometry>
        </mxCell>
        <mxCell id="ifLj0rHLDiwDutu8jd7p-65" value="id" style="shape=partialRectangle;connectable=0;top=0;left=0;bottom=0;right=0;align=left;spacingLeft=6;fontStyle=5;overflow=hidden;whiteSpace=wrap;html=1;shadow=0;labelBackgroundColor=light-dark(#f9f6f6, #ededed);strokeColor=light-dark(#af4646, #ededed);strokeWidth=2;" parent="ifLj0rHLDiwDutu8jd7p-63" vertex="1">
          <mxGeometry x="30" width="150" height="30" as="geometry">
            <mxRectangle width="150" height="30" as="alternateBounds" />
          </mxGeometry>
        </mxCell>
        <mxCell id="ifLj0rHLDiwDutu8jd7p-66" value="" style="shape=tableRow;horizontal=0;startSize=0;swimlaneHead=0;swimlaneBody=0;collapsible=0;dropTarget=0;points=[[0,0.5],[1,0.5]];portConstraint=eastwest;top=0;left=0;right=0;bottom=0;shadow=0;whiteSpace=wrap;labelBackgroundColor=light-dark(#f9f6f6, #ededed);strokeColor=light-dark(#af4646, #ededed);strokeWidth=2;" parent="ifLj0rHLDiwDutu8jd7p-62" vertex="1">
          <mxGeometry y="60" width="180" height="30" as="geometry" />
        </mxCell>
        <mxCell id="ifLj0rHLDiwDutu8jd7p-67" value="" style="shape=partialRectangle;connectable=0;top=0;left=0;bottom=0;right=0;editable=1;overflow=hidden;whiteSpace=wrap;html=1;shadow=0;labelBackgroundColor=light-dark(#f9f6f6, #ededed);strokeColor=light-dark(#af4646, #ededed);strokeWidth=2;" parent="ifLj0rHLDiwDutu8jd7p-66" vertex="1">
          <mxGeometry width="30" height="30" as="geometry">
            <mxRectangle width="30" height="30" as="alternateBounds" />
          </mxGeometry>
        </mxCell>
        <mxCell id="ifLj0rHLDiwDutu8jd7p-68" value="uuid" style="shape=partialRectangle;connectable=0;top=0;left=0;bottom=0;right=0;align=left;spacingLeft=6;overflow=hidden;whiteSpace=wrap;html=1;shadow=0;labelBackgroundColor=light-dark(#f9f6f6, #ededed);strokeColor=light-dark(#af4646, #ededed);strokeWidth=2;" parent="ifLj0rHLDiwDutu8jd7p-66" vertex="1">
          <mxGeometry x="30" width="150" height="30" as="geometry">
            <mxRectangle width="150" height="30" as="alternateBounds" />
          </mxGeometry>
        </mxCell>
        <mxCell id="ifLj0rHLDiwDutu8jd7p-69" value="" style="shape=tableRow;horizontal=0;startSize=0;swimlaneHead=0;swimlaneBody=0;collapsible=0;dropTarget=0;points=[[0,0.5],[1,0.5]];portConstraint=eastwest;top=0;left=0;right=0;bottom=0;shadow=0;whiteSpace=wrap;labelBackgroundColor=light-dark(#f9f6f6, #ededed);strokeColor=light-dark(#af4646, #ededed);strokeWidth=2;" parent="ifLj0rHLDiwDutu8jd7p-62" vertex="1">
          <mxGeometry y="90" width="180" height="30" as="geometry" />
        </mxCell>
        <mxCell id="ifLj0rHLDiwDutu8jd7p-70" value="" style="shape=partialRectangle;connectable=0;top=0;left=0;bottom=0;right=0;editable=1;overflow=hidden;whiteSpace=wrap;html=1;shadow=0;labelBackgroundColor=light-dark(#f9f6f6, #ededed);strokeColor=light-dark(#af4646, #ededed);strokeWidth=2;" parent="ifLj0rHLDiwDutu8jd7p-69" vertex="1">
          <mxGeometry width="30" height="30" as="geometry">
            <mxRectangle width="30" height="30" as="alternateBounds" />
          </mxGeometry>
        </mxCell>
        <mxCell id="ifLj0rHLDiwDutu8jd7p-71" value="permit_id" style="shape=partialRectangle;connectable=0;top=0;left=0;bottom=0;right=0;align=left;spacingLeft=6;overflow=hidden;whiteSpace=wrap;html=1;shadow=0;labelBackgroundColor=light-dark(#f9f6f6, #ededed);strokeColor=light-dark(#af4646, #ededed);strokeWidth=2;" parent="ifLj0rHLDiwDutu8jd7p-69" vertex="1">
          <mxGeometry x="30" width="150" height="30" as="geometry">
            <mxRectangle width="150" height="30" as="alternateBounds" />
          </mxGeometry>
        </mxCell>
        <mxCell id="ifLj0rHLDiwDutu8jd7p-72" value="" style="shape=tableRow;horizontal=0;startSize=0;swimlaneHead=0;swimlaneBody=0;collapsible=0;dropTarget=0;points=[[0,0.5],[1,0.5]];portConstraint=eastwest;top=0;left=0;right=0;bottom=0;shadow=0;whiteSpace=wrap;labelBackgroundColor=light-dark(#f9f6f6, #ededed);strokeColor=light-dark(#af4646, #ededed);strokeWidth=2;" parent="ifLj0rHLDiwDutu8jd7p-62" vertex="1">
          <mxGeometry y="120" width="180" height="30" as="geometry" />
        </mxCell>
        <mxCell id="ifLj0rHLDiwDutu8jd7p-73" value="" style="shape=partialRectangle;connectable=0;top=0;left=0;bottom=0;right=0;editable=1;overflow=hidden;whiteSpace=wrap;html=1;shadow=0;labelBackgroundColor=light-dark(#f9f6f6, #ededed);strokeColor=light-dark(#af4646, #ededed);strokeWidth=2;" parent="ifLj0rHLDiwDutu8jd7p-72" vertex="1">
          <mxGeometry width="30" height="30" as="geometry">
            <mxRectangle width="30" height="30" as="alternateBounds" />
          </mxGeometry>
        </mxCell>
        <mxCell id="ifLj0rHLDiwDutu8jd7p-74" value="category" style="shape=partialRectangle;connectable=0;top=0;left=0;bottom=0;right=0;align=left;spacingLeft=6;overflow=hidden;whiteSpace=wrap;html=1;shadow=0;labelBackgroundColor=light-dark(#f9f6f6, #ededed);strokeColor=light-dark(#af4646, #ededed);strokeWidth=2;" parent="ifLj0rHLDiwDutu8jd7p-72" vertex="1">
          <mxGeometry x="30" width="150" height="30" as="geometry">
            <mxRectangle width="150" height="30" as="alternateBounds" />
          </mxGeometry>
        </mxCell>
        <mxCell id="ifLj0rHLDiwDutu8jd7p-75" value="" style="shape=tableRow;horizontal=0;startSize=0;swimlaneHead=0;swimlaneBody=0;collapsible=0;dropTarget=0;points=[[0,0.5],[1,0.5]];portConstraint=eastwest;top=0;left=0;right=0;bottom=0;shadow=0;whiteSpace=wrap;labelBackgroundColor=light-dark(#f9f6f6, #ededed);strokeColor=light-dark(#af4646, #ededed);strokeWidth=2;" parent="ifLj0rHLDiwDutu8jd7p-62" vertex="1">
          <mxGeometry y="150" width="180" height="30" as="geometry" />
        </mxCell>
        <mxCell id="ifLj0rHLDiwDutu8jd7p-76" value="" style="shape=partialRectangle;connectable=0;top=0;left=0;bottom=0;right=0;editable=1;overflow=hidden;whiteSpace=wrap;html=1;shadow=0;labelBackgroundColor=light-dark(#f9f6f6, #ededed);strokeColor=light-dark(#af4646, #ededed);strokeWidth=2;" parent="ifLj0rHLDiwDutu8jd7p-75" vertex="1">
          <mxGeometry width="30" height="30" as="geometry">
            <mxRectangle width="30" height="30" as="alternateBounds" />
          </mxGeometry>
        </mxCell>
        <mxCell id="ifLj0rHLDiwDutu8jd7p-77" value="license_no" style="shape=partialRectangle;connectable=0;top=0;left=0;bottom=0;right=0;align=left;spacingLeft=6;overflow=hidden;whiteSpace=wrap;html=1;shadow=0;labelBackgroundColor=light-dark(#f9f6f6, #ededed);strokeColor=light-dark(#af4646, #ededed);strokeWidth=2;" parent="ifLj0rHLDiwDutu8jd7p-75" vertex="1">
          <mxGeometry x="30" width="150" height="30" as="geometry">
            <mxRectangle width="150" height="30" as="alternateBounds" />
          </mxGeometry>
        </mxCell>
        <mxCell id="ifLj0rHLDiwDutu8jd7p-78" value="" style="shape=tableRow;horizontal=0;startSize=0;swimlaneHead=0;swimlaneBody=0;collapsible=0;dropTarget=0;points=[[0,0.5],[1,0.5]];portConstraint=eastwest;top=0;left=0;right=0;bottom=0;shadow=0;whiteSpace=wrap;labelBackgroundColor=light-dark(#f9f6f6, #ededed);strokeColor=light-dark(#af4646, #ededed);strokeWidth=2;" parent="ifLj0rHLDiwDutu8jd7p-62" vertex="1">
          <mxGeometry y="180" width="180" height="30" as="geometry" />
        </mxCell>
        <mxCell id="ifLj0rHLDiwDutu8jd7p-79" value="" style="shape=partialRectangle;connectable=0;top=0;left=0;bottom=0;right=0;editable=1;overflow=hidden;whiteSpace=wrap;html=1;shadow=0;labelBackgroundColor=light-dark(#f9f6f6, #ededed);strokeColor=light-dark(#af4646, #ededed);strokeWidth=2;" parent="ifLj0rHLDiwDutu8jd7p-78" vertex="1">
          <mxGeometry width="30" height="30" as="geometry">
            <mxRectangle width="30" height="30" as="alternateBounds" />
          </mxGeometry>
        </mxCell>
        <mxCell id="ifLj0rHLDiwDutu8jd7p-80" value="name" style="shape=partialRectangle;connectable=0;top=0;left=0;bottom=0;right=0;align=left;spacingLeft=6;overflow=hidden;whiteSpace=wrap;html=1;shadow=0;labelBackgroundColor=light-dark(#f9f6f6, #ededed);strokeColor=light-dark(#af4646, #ededed);strokeWidth=2;" parent="ifLj0rHLDiwDutu8jd7p-78" vertex="1">
          <mxGeometry x="30" width="150" height="30" as="geometry">
            <mxRectangle width="150" height="30" as="alternateBounds" />
          </mxGeometry>
        </mxCell>
        <mxCell id="ifLj0rHLDiwDutu8jd7p-81" value="" style="shape=tableRow;horizontal=0;startSize=0;swimlaneHead=0;swimlaneBody=0;collapsible=0;dropTarget=0;points=[[0,0.5],[1,0.5]];portConstraint=eastwest;top=0;left=0;right=0;bottom=0;shadow=0;whiteSpace=wrap;labelBackgroundColor=light-dark(#f9f6f6, #ededed);strokeColor=light-dark(#af4646, #ededed);strokeWidth=2;" parent="ifLj0rHLDiwDutu8jd7p-62" vertex="1">
          <mxGeometry y="210" width="180" height="30" as="geometry" />
        </mxCell>
        <mxCell id="ifLj0rHLDiwDutu8jd7p-82" value="" style="shape=partialRectangle;connectable=0;top=0;left=0;bottom=0;right=0;editable=1;overflow=hidden;whiteSpace=wrap;html=1;shadow=0;labelBackgroundColor=light-dark(#f9f6f6, #ededed);strokeColor=light-dark(#af4646, #ededed);strokeWidth=2;" parent="ifLj0rHLDiwDutu8jd7p-81" vertex="1">
          <mxGeometry width="30" height="30" as="geometry">
            <mxRectangle width="30" height="30" as="alternateBounds" />
          </mxGeometry>
        </mxCell>
        <mxCell id="ifLj0rHLDiwDutu8jd7p-83" value="phone" style="shape=partialRectangle;connectable=0;top=0;left=0;bottom=0;right=0;align=left;spacingLeft=6;overflow=hidden;whiteSpace=wrap;html=1;shadow=0;labelBackgroundColor=light-dark(#f9f6f6, #ededed);strokeColor=light-dark(#af4646, #ededed);strokeWidth=2;" parent="ifLj0rHLDiwDutu8jd7p-81" vertex="1">
          <mxGeometry x="30" width="150" height="30" as="geometry">
            <mxRectangle width="150" height="30" as="alternateBounds" />
          </mxGeometry>
        </mxCell>
        <mxCell id="ifLj0rHLDiwDutu8jd7p-84" value="" style="shape=tableRow;horizontal=0;startSize=0;swimlaneHead=0;swimlaneBody=0;collapsible=0;dropTarget=0;points=[[0,0.5],[1,0.5]];portConstraint=eastwest;top=0;left=0;right=0;bottom=0;shadow=0;whiteSpace=wrap;labelBackgroundColor=light-dark(#f9f6f6, #ededed);strokeColor=light-dark(#af4646, #ededed);strokeWidth=2;" parent="ifLj0rHLDiwDutu8jd7p-62" vertex="1">
          <mxGeometry y="240" width="180" height="30" as="geometry" />
        </mxCell>
        <mxCell id="ifLj0rHLDiwDutu8jd7p-85" value="" style="shape=partialRectangle;connectable=0;top=0;left=0;bottom=0;right=0;editable=1;overflow=hidden;whiteSpace=wrap;html=1;shadow=0;labelBackgroundColor=light-dark(#f9f6f6, #ededed);strokeColor=light-dark(#af4646, #ededed);strokeWidth=2;" parent="ifLj0rHLDiwDutu8jd7p-84" vertex="1">
          <mxGeometry width="30" height="30" as="geometry">
            <mxRectangle width="30" height="30" as="alternateBounds" />
          </mxGeometry>
        </mxCell>
        <mxCell id="ifLj0rHLDiwDutu8jd7p-86" value="nida" style="shape=partialRectangle;connectable=0;top=0;left=0;bottom=0;right=0;align=left;spacingLeft=6;overflow=hidden;whiteSpace=wrap;html=1;shadow=0;labelBackgroundColor=light-dark(#f9f6f6, #ededed);strokeColor=light-dark(#af4646, #ededed);strokeWidth=2;" parent="ifLj0rHLDiwDutu8jd7p-84" vertex="1">
          <mxGeometry x="30" width="150" height="30" as="geometry">
            <mxRectangle width="150" height="30" as="alternateBounds" />
          </mxGeometry>
        </mxCell>
        <mxCell id="ifLj0rHLDiwDutu8jd7p-87" value="permit_vehicles" style="shape=table;startSize=30;container=1;collapsible=1;childLayout=tableLayout;fixedRows=1;rowLines=0;fontStyle=1;align=center;resizeLast=1;html=1;shadow=0;whiteSpace=wrap;labelBackgroundColor=light-dark(#f9f6f6, #ededed);swimlaneFillColor=none;strokeColor=light-dark(#af4646, #ededed);gradientColor=none;noLabel=0;strokeWidth=2;" parent="1" vertex="1">
          <mxGeometry x="960" y="-110" width="180" height="300" as="geometry" />
        </mxCell>
        <mxCell id="ifLj0rHLDiwDutu8jd7p-88" value="" style="shape=tableRow;horizontal=0;startSize=0;swimlaneHead=0;swimlaneBody=0;collapsible=0;dropTarget=0;points=[[0,0.5],[1,0.5]];portConstraint=eastwest;top=0;left=0;right=0;bottom=1;shadow=0;whiteSpace=wrap;labelBackgroundColor=light-dark(#f9f6f6, #ededed);strokeColor=light-dark(#af4646, #ededed);strokeWidth=2;" parent="ifLj0rHLDiwDutu8jd7p-87" vertex="1">
          <mxGeometry y="30" width="180" height="30" as="geometry" />
        </mxCell>
        <mxCell id="ifLj0rHLDiwDutu8jd7p-89" value="PK" style="shape=partialRectangle;connectable=0;top=0;left=0;bottom=0;right=0;fontStyle=1;overflow=hidden;whiteSpace=wrap;html=1;shadow=0;labelBackgroundColor=light-dark(#f9f6f6, #ededed);strokeColor=light-dark(#af4646, #ededed);strokeWidth=2;" parent="ifLj0rHLDiwDutu8jd7p-88" vertex="1">
          <mxGeometry width="30" height="30" as="geometry">
            <mxRectangle width="30" height="30" as="alternateBounds" />
          </mxGeometry>
        </mxCell>
        <mxCell id="ifLj0rHLDiwDutu8jd7p-90" value="id" style="shape=partialRectangle;connectable=0;top=0;left=0;bottom=0;right=0;align=left;spacingLeft=6;fontStyle=5;overflow=hidden;whiteSpace=wrap;html=1;shadow=0;labelBackgroundColor=light-dark(#f9f6f6, #ededed);strokeColor=light-dark(#af4646, #ededed);strokeWidth=2;" parent="ifLj0rHLDiwDutu8jd7p-88" vertex="1">
          <mxGeometry x="30" width="150" height="30" as="geometry">
            <mxRectangle width="150" height="30" as="alternateBounds" />
          </mxGeometry>
        </mxCell>
        <mxCell id="ifLj0rHLDiwDutu8jd7p-91" value="" style="shape=tableRow;horizontal=0;startSize=0;swimlaneHead=0;swimlaneBody=0;collapsible=0;dropTarget=0;points=[[0,0.5],[1,0.5]];portConstraint=eastwest;top=0;left=0;right=0;bottom=0;shadow=0;whiteSpace=wrap;labelBackgroundColor=light-dark(#f9f6f6, #ededed);strokeColor=light-dark(#af4646, #ededed);strokeWidth=2;" parent="ifLj0rHLDiwDutu8jd7p-87" vertex="1">
          <mxGeometry y="60" width="180" height="30" as="geometry" />
        </mxCell>
        <mxCell id="ifLj0rHLDiwDutu8jd7p-92" value="" style="shape=partialRectangle;connectable=0;top=0;left=0;bottom=0;right=0;editable=1;overflow=hidden;whiteSpace=wrap;html=1;shadow=0;labelBackgroundColor=light-dark(#f9f6f6, #ededed);strokeColor=light-dark(#af4646, #ededed);strokeWidth=2;" parent="ifLj0rHLDiwDutu8jd7p-91" vertex="1">
          <mxGeometry width="30" height="30" as="geometry">
            <mxRectangle width="30" height="30" as="alternateBounds" />
          </mxGeometry>
        </mxCell>
        <mxCell id="ifLj0rHLDiwDutu8jd7p-93" value="uuid" style="shape=partialRectangle;connectable=0;top=0;left=0;bottom=0;right=0;align=left;spacingLeft=6;overflow=hidden;whiteSpace=wrap;html=1;shadow=0;labelBackgroundColor=light-dark(#f9f6f6, #ededed);strokeColor=light-dark(#af4646, #ededed);strokeWidth=2;" parent="ifLj0rHLDiwDutu8jd7p-91" vertex="1">
          <mxGeometry x="30" width="150" height="30" as="geometry">
            <mxRectangle width="150" height="30" as="alternateBounds" />
          </mxGeometry>
        </mxCell>
        <mxCell id="ifLj0rHLDiwDutu8jd7p-94" value="" style="shape=tableRow;horizontal=0;startSize=0;swimlaneHead=0;swimlaneBody=0;collapsible=0;dropTarget=0;points=[[0,0.5],[1,0.5]];portConstraint=eastwest;top=0;left=0;right=0;bottom=0;shadow=0;whiteSpace=wrap;labelBackgroundColor=light-dark(#f9f6f6, #ededed);strokeColor=light-dark(#af4646, #ededed);strokeWidth=2;" parent="ifLj0rHLDiwDutu8jd7p-87" vertex="1">
          <mxGeometry y="90" width="180" height="30" as="geometry" />
        </mxCell>
        <mxCell id="ifLj0rHLDiwDutu8jd7p-95" value="" style="shape=partialRectangle;connectable=0;top=0;left=0;bottom=0;right=0;editable=1;overflow=hidden;whiteSpace=wrap;html=1;shadow=0;labelBackgroundColor=light-dark(#f9f6f6, #ededed);strokeColor=light-dark(#af4646, #ededed);strokeWidth=2;" parent="ifLj0rHLDiwDutu8jd7p-94" vertex="1">
          <mxGeometry width="30" height="30" as="geometry">
            <mxRectangle width="30" height="30" as="alternateBounds" />
          </mxGeometry>
        </mxCell>
        <mxCell id="ifLj0rHLDiwDutu8jd7p-96" value="permit_attaction_site_id" style="shape=partialRectangle;connectable=0;top=0;left=0;bottom=0;right=0;align=left;spacingLeft=6;overflow=hidden;whiteSpace=wrap;html=1;shadow=0;labelBackgroundColor=light-dark(#f9f6f6, #ededed);strokeColor=light-dark(#af4646, #ededed);strokeWidth=2;" parent="ifLj0rHLDiwDutu8jd7p-94" vertex="1">
          <mxGeometry x="30" width="150" height="30" as="geometry">
            <mxRectangle width="150" height="30" as="alternateBounds" />
          </mxGeometry>
        </mxCell>
        <mxCell id="ifLj0rHLDiwDutu8jd7p-97" value="" style="shape=tableRow;horizontal=0;startSize=0;swimlaneHead=0;swimlaneBody=0;collapsible=0;dropTarget=0;points=[[0,0.5],[1,0.5]];portConstraint=eastwest;top=0;left=0;right=0;bottom=0;shadow=0;whiteSpace=wrap;labelBackgroundColor=light-dark(#f9f6f6, #ededed);strokeColor=light-dark(#af4646, #ededed);strokeWidth=2;" parent="ifLj0rHLDiwDutu8jd7p-87" vertex="1">
          <mxGeometry y="120" width="180" height="30" as="geometry" />
        </mxCell>
        <mxCell id="ifLj0rHLDiwDutu8jd7p-98" value="" style="shape=partialRectangle;connectable=0;top=0;left=0;bottom=0;right=0;editable=1;overflow=hidden;whiteSpace=wrap;html=1;shadow=0;labelBackgroundColor=light-dark(#f9f6f6, #ededed);strokeColor=light-dark(#af4646, #ededed);strokeWidth=2;" parent="ifLj0rHLDiwDutu8jd7p-97" vertex="1">
          <mxGeometry width="30" height="30" as="geometry">
            <mxRectangle width="30" height="30" as="alternateBounds" />
          </mxGeometry>
        </mxCell>
        <mxCell id="ifLj0rHLDiwDutu8jd7p-99" value="crew_id(driver)" style="shape=partialRectangle;connectable=0;top=0;left=0;bottom=0;right=0;align=left;spacingLeft=6;overflow=hidden;whiteSpace=wrap;html=1;shadow=0;labelBackgroundColor=light-dark(#f9f6f6, #ededed);strokeColor=light-dark(#af4646, #ededed);strokeWidth=2;" parent="ifLj0rHLDiwDutu8jd7p-97" vertex="1">
          <mxGeometry x="30" width="150" height="30" as="geometry">
            <mxRectangle width="150" height="30" as="alternateBounds" />
          </mxGeometry>
        </mxCell>
        <mxCell id="ifLj0rHLDiwDutu8jd7p-100" value="" style="shape=tableRow;horizontal=0;startSize=0;swimlaneHead=0;swimlaneBody=0;collapsible=0;dropTarget=0;points=[[0,0.5],[1,0.5]];portConstraint=eastwest;top=0;left=0;right=0;bottom=0;shadow=0;whiteSpace=wrap;labelBackgroundColor=light-dark(#f9f6f6, #ededed);strokeColor=light-dark(#af4646, #ededed);strokeWidth=2;" parent="ifLj0rHLDiwDutu8jd7p-87" vertex="1">
          <mxGeometry y="150" width="180" height="30" as="geometry" />
        </mxCell>
        <mxCell id="ifLj0rHLDiwDutu8jd7p-101" value="" style="shape=partialRectangle;connectable=0;top=0;left=0;bottom=0;right=0;editable=1;overflow=hidden;whiteSpace=wrap;html=1;shadow=0;labelBackgroundColor=light-dark(#f9f6f6, #ededed);strokeColor=light-dark(#af4646, #ededed);strokeWidth=2;" parent="ifLj0rHLDiwDutu8jd7p-100" vertex="1">
          <mxGeometry width="30" height="30" as="geometry">
            <mxRectangle width="30" height="30" as="alternateBounds" />
          </mxGeometry>
        </mxCell>
        <mxCell id="ifLj0rHLDiwDutu8jd7p-102" value="plate_number" style="shape=partialRectangle;connectable=0;top=0;left=0;bottom=0;right=0;align=left;spacingLeft=6;overflow=hidden;whiteSpace=wrap;html=1;shadow=0;labelBackgroundColor=light-dark(#f9f6f6, #ededed);strokeColor=light-dark(#af4646, #ededed);strokeWidth=2;" parent="ifLj0rHLDiwDutu8jd7p-100" vertex="1">
          <mxGeometry x="30" width="150" height="30" as="geometry">
            <mxRectangle width="150" height="30" as="alternateBounds" />
          </mxGeometry>
        </mxCell>
        <mxCell id="ifLj0rHLDiwDutu8jd7p-103" value="" style="shape=tableRow;horizontal=0;startSize=0;swimlaneHead=0;swimlaneBody=0;collapsible=0;dropTarget=0;points=[[0,0.5],[1,0.5]];portConstraint=eastwest;top=0;left=0;right=0;bottom=0;shadow=0;whiteSpace=wrap;labelBackgroundColor=light-dark(#f9f6f6, #ededed);strokeColor=light-dark(#af4646, #ededed);strokeWidth=2;" parent="ifLj0rHLDiwDutu8jd7p-87" vertex="1">
          <mxGeometry y="180" width="180" height="30" as="geometry" />
        </mxCell>
        <mxCell id="ifLj0rHLDiwDutu8jd7p-104" value="" style="shape=partialRectangle;connectable=0;top=0;left=0;bottom=0;right=0;editable=1;overflow=hidden;whiteSpace=wrap;html=1;shadow=0;labelBackgroundColor=light-dark(#f9f6f6, #ededed);strokeColor=light-dark(#af4646, #ededed);strokeWidth=2;" parent="ifLj0rHLDiwDutu8jd7p-103" vertex="1">
          <mxGeometry width="30" height="30" as="geometry">
            <mxRectangle width="30" height="30" as="alternateBounds" />
          </mxGeometry>
        </mxCell>
        <mxCell id="ifLj0rHLDiwDutu8jd7p-105" value="tare_weight" style="shape=partialRectangle;connectable=0;top=0;left=0;bottom=0;right=0;align=left;spacingLeft=6;overflow=hidden;whiteSpace=wrap;html=1;shadow=0;labelBackgroundColor=light-dark(#f9f6f6, #ededed);strokeColor=light-dark(#af4646, #ededed);strokeWidth=2;" parent="ifLj0rHLDiwDutu8jd7p-103" vertex="1">
          <mxGeometry x="30" width="150" height="30" as="geometry">
            <mxRectangle width="150" height="30" as="alternateBounds" />
          </mxGeometry>
        </mxCell>
        <mxCell id="ifLj0rHLDiwDutu8jd7p-106" value="" style="shape=tableRow;horizontal=0;startSize=0;swimlaneHead=0;swimlaneBody=0;collapsible=0;dropTarget=0;points=[[0,0.5],[1,0.5]];portConstraint=eastwest;top=0;left=0;right=0;bottom=0;shadow=0;whiteSpace=wrap;labelBackgroundColor=light-dark(#f9f6f6, #ededed);strokeColor=light-dark(#af4646, #ededed);strokeWidth=2;" parent="ifLj0rHLDiwDutu8jd7p-87" vertex="1">
          <mxGeometry y="210" width="180" height="30" as="geometry" />
        </mxCell>
        <mxCell id="ifLj0rHLDiwDutu8jd7p-107" value="" style="shape=partialRectangle;connectable=0;top=0;left=0;bottom=0;right=0;editable=1;overflow=hidden;whiteSpace=wrap;html=1;shadow=0;labelBackgroundColor=light-dark(#f9f6f6, #ededed);strokeColor=light-dark(#af4646, #ededed);strokeWidth=2;" parent="ifLj0rHLDiwDutu8jd7p-106" vertex="1">
          <mxGeometry width="30" height="30" as="geometry">
            <mxRectangle width="30" height="30" as="alternateBounds" />
          </mxGeometry>
        </mxCell>
        <mxCell id="ifLj0rHLDiwDutu8jd7p-108" value="fee_group_id" style="shape=partialRectangle;connectable=0;top=0;left=0;bottom=0;right=0;align=left;spacingLeft=6;overflow=hidden;whiteSpace=wrap;html=1;shadow=0;labelBackgroundColor=light-dark(#f9f6f6, #ededed);strokeColor=light-dark(#af4646, #ededed);strokeWidth=2;" parent="ifLj0rHLDiwDutu8jd7p-106" vertex="1">
          <mxGeometry x="30" width="150" height="30" as="geometry">
            <mxRectangle width="150" height="30" as="alternateBounds" />
          </mxGeometry>
        </mxCell>
        <mxCell id="ifLj0rHLDiwDutu8jd7p-109" value="" style="shape=tableRow;horizontal=0;startSize=0;swimlaneHead=0;swimlaneBody=0;collapsible=0;dropTarget=0;points=[[0,0.5],[1,0.5]];portConstraint=eastwest;top=0;left=0;right=0;bottom=0;shadow=0;whiteSpace=wrap;labelBackgroundColor=light-dark(#f9f6f6, #ededed);strokeColor=light-dark(#af4646, #ededed);strokeWidth=2;" parent="ifLj0rHLDiwDutu8jd7p-87" vertex="1">
          <mxGeometry y="240" width="180" height="30" as="geometry" />
        </mxCell>
        <mxCell id="ifLj0rHLDiwDutu8jd7p-110" value="" style="shape=partialRectangle;connectable=0;top=0;left=0;bottom=0;right=0;editable=1;overflow=hidden;whiteSpace=wrap;html=1;shadow=0;labelBackgroundColor=light-dark(#f9f6f6, #ededed);strokeColor=light-dark(#af4646, #ededed);strokeWidth=2;" parent="ifLj0rHLDiwDutu8jd7p-109" vertex="1">
          <mxGeometry width="30" height="30" as="geometry">
            <mxRectangle width="30" height="30" as="alternateBounds" />
          </mxGeometry>
        </mxCell>
        <mxCell id="ifLj0rHLDiwDutu8jd7p-111" value="country_id ?" style="shape=partialRectangle;connectable=0;top=0;left=0;bottom=0;right=0;align=left;spacingLeft=6;overflow=hidden;whiteSpace=wrap;html=1;shadow=0;labelBackgroundColor=light-dark(#f9f6f6, #ededed);strokeColor=light-dark(#af4646, #ededed);strokeWidth=2;" parent="ifLj0rHLDiwDutu8jd7p-109" vertex="1">
          <mxGeometry x="30" width="150" height="30" as="geometry">
            <mxRectangle width="150" height="30" as="alternateBounds" />
          </mxGeometry>
        </mxCell>
        <mxCell id="ifLj0rHLDiwDutu8jd7p-137" value="" style="shape=tableRow;horizontal=0;startSize=0;swimlaneHead=0;swimlaneBody=0;collapsible=0;dropTarget=0;points=[[0,0.5],[1,0.5]];portConstraint=eastwest;top=0;left=0;right=0;bottom=0;shadow=0;whiteSpace=wrap;labelBackgroundColor=light-dark(#f9f6f6, #ededed);strokeColor=light-dark(#af4646, #ededed);strokeWidth=2;" parent="ifLj0rHLDiwDutu8jd7p-87" vertex="1">
          <mxGeometry y="270" width="180" height="30" as="geometry" />
        </mxCell>
        <mxCell id="ifLj0rHLDiwDutu8jd7p-138" value="" style="shape=partialRectangle;connectable=0;top=0;left=0;bottom=0;right=0;editable=1;overflow=hidden;whiteSpace=wrap;html=1;shadow=0;labelBackgroundColor=light-dark(#f9f6f6, #ededed);strokeColor=light-dark(#af4646, #ededed);strokeWidth=2;" parent="ifLj0rHLDiwDutu8jd7p-137" vertex="1">
          <mxGeometry width="30" height="30" as="geometry">
            <mxRectangle width="30" height="30" as="alternateBounds" />
          </mxGeometry>
        </mxCell>
        <mxCell id="ifLj0rHLDiwDutu8jd7p-139" value="transport_mode_id" style="shape=partialRectangle;connectable=0;top=0;left=0;bottom=0;right=0;align=left;spacingLeft=6;overflow=hidden;whiteSpace=wrap;html=1;shadow=0;labelBackgroundColor=light-dark(#f9f6f6, #ededed);strokeColor=light-dark(#af4646, #ededed);strokeWidth=2;" parent="ifLj0rHLDiwDutu8jd7p-137" vertex="1">
          <mxGeometry x="30" width="150" height="30" as="geometry">
            <mxRectangle width="150" height="30" as="alternateBounds" />
          </mxGeometry>
        </mxCell>
        <mxCell id="ifLj0rHLDiwDutu8jd7p-140" value="permit_visitors" style="shape=table;startSize=30;container=1;collapsible=1;childLayout=tableLayout;fixedRows=1;rowLines=0;fontStyle=1;align=center;resizeLast=1;html=1;shadow=0;whiteSpace=wrap;labelBackgroundColor=light-dark(#f9f6f6, #ededed);swimlaneFillColor=none;strokeColor=light-dark(#af4646, #ededed);gradientColor=none;noLabel=0;strokeWidth=2;" parent="1" vertex="1">
          <mxGeometry x="1010" y="370" width="180" height="390" as="geometry" />
        </mxCell>
        <mxCell id="ifLj0rHLDiwDutu8jd7p-141" value="" style="shape=tableRow;horizontal=0;startSize=0;swimlaneHead=0;swimlaneBody=0;collapsible=0;dropTarget=0;points=[[0,0.5],[1,0.5]];portConstraint=eastwest;top=0;left=0;right=0;bottom=1;shadow=0;whiteSpace=wrap;labelBackgroundColor=light-dark(#f9f6f6, #ededed);strokeColor=light-dark(#af4646, #ededed);strokeWidth=2;" parent="ifLj0rHLDiwDutu8jd7p-140" vertex="1">
          <mxGeometry y="30" width="180" height="30" as="geometry" />
        </mxCell>
        <mxCell id="ifLj0rHLDiwDutu8jd7p-142" value="PK" style="shape=partialRectangle;connectable=0;top=0;left=0;bottom=0;right=0;fontStyle=1;overflow=hidden;whiteSpace=wrap;html=1;shadow=0;labelBackgroundColor=light-dark(#f9f6f6, #ededed);strokeColor=light-dark(#af4646, #ededed);strokeWidth=2;" parent="ifLj0rHLDiwDutu8jd7p-141" vertex="1">
          <mxGeometry width="30" height="30" as="geometry">
            <mxRectangle width="30" height="30" as="alternateBounds" />
          </mxGeometry>
        </mxCell>
        <mxCell id="ifLj0rHLDiwDutu8jd7p-143" value="id" style="shape=partialRectangle;connectable=0;top=0;left=0;bottom=0;right=0;align=left;spacingLeft=6;fontStyle=5;overflow=hidden;whiteSpace=wrap;html=1;shadow=0;labelBackgroundColor=light-dark(#f9f6f6, #ededed);strokeColor=light-dark(#af4646, #ededed);strokeWidth=2;" parent="ifLj0rHLDiwDutu8jd7p-141" vertex="1">
          <mxGeometry x="30" width="150" height="30" as="geometry">
            <mxRectangle width="150" height="30" as="alternateBounds" />
          </mxGeometry>
        </mxCell>
        <mxCell id="ifLj0rHLDiwDutu8jd7p-144" value="" style="shape=tableRow;horizontal=0;startSize=0;swimlaneHead=0;swimlaneBody=0;collapsible=0;dropTarget=0;points=[[0,0.5],[1,0.5]];portConstraint=eastwest;top=0;left=0;right=0;bottom=0;shadow=0;whiteSpace=wrap;labelBackgroundColor=light-dark(#f9f6f6, #ededed);strokeColor=light-dark(#af4646, #ededed);strokeWidth=2;" parent="ifLj0rHLDiwDutu8jd7p-140" vertex="1">
          <mxGeometry y="60" width="180" height="30" as="geometry" />
        </mxCell>
        <mxCell id="ifLj0rHLDiwDutu8jd7p-145" value="" style="shape=partialRectangle;connectable=0;top=0;left=0;bottom=0;right=0;editable=1;overflow=hidden;whiteSpace=wrap;html=1;shadow=0;labelBackgroundColor=light-dark(#f9f6f6, #ededed);strokeColor=light-dark(#af4646, #ededed);strokeWidth=2;" parent="ifLj0rHLDiwDutu8jd7p-144" vertex="1">
          <mxGeometry width="30" height="30" as="geometry">
            <mxRectangle width="30" height="30" as="alternateBounds" />
          </mxGeometry>
        </mxCell>
        <mxCell id="ifLj0rHLDiwDutu8jd7p-146" value="uuid" style="shape=partialRectangle;connectable=0;top=0;left=0;bottom=0;right=0;align=left;spacingLeft=6;overflow=hidden;whiteSpace=wrap;html=1;shadow=0;labelBackgroundColor=light-dark(#f9f6f6, #ededed);strokeColor=light-dark(#af4646, #ededed);strokeWidth=2;" parent="ifLj0rHLDiwDutu8jd7p-144" vertex="1">
          <mxGeometry x="30" width="150" height="30" as="geometry">
            <mxRectangle width="150" height="30" as="alternateBounds" />
          </mxGeometry>
        </mxCell>
        <mxCell id="ifLj0rHLDiwDutu8jd7p-147" value="" style="shape=tableRow;horizontal=0;startSize=0;swimlaneHead=0;swimlaneBody=0;collapsible=0;dropTarget=0;points=[[0,0.5],[1,0.5]];portConstraint=eastwest;top=0;left=0;right=0;bottom=0;shadow=0;whiteSpace=wrap;labelBackgroundColor=light-dark(#f9f6f6, #ededed);strokeColor=light-dark(#af4646, #ededed);strokeWidth=2;" parent="ifLj0rHLDiwDutu8jd7p-140" vertex="1">
          <mxGeometry y="90" width="180" height="30" as="geometry" />
        </mxCell>
        <mxCell id="ifLj0rHLDiwDutu8jd7p-148" value="" style="shape=partialRectangle;connectable=0;top=0;left=0;bottom=0;right=0;editable=1;overflow=hidden;whiteSpace=wrap;html=1;shadow=0;labelBackgroundColor=light-dark(#f9f6f6, #ededed);strokeColor=light-dark(#af4646, #ededed);strokeWidth=2;" parent="ifLj0rHLDiwDutu8jd7p-147" vertex="1">
          <mxGeometry width="30" height="30" as="geometry">
            <mxRectangle width="30" height="30" as="alternateBounds" />
          </mxGeometry>
        </mxCell>
        <mxCell id="ifLj0rHLDiwDutu8jd7p-149" value="permit_attaction_site_id" style="shape=partialRectangle;connectable=0;top=0;left=0;bottom=0;right=0;align=left;spacingLeft=6;overflow=hidden;whiteSpace=wrap;html=1;shadow=0;labelBackgroundColor=light-dark(#f9f6f6, #ededed);strokeColor=light-dark(#af4646, #ededed);strokeWidth=2;" parent="ifLj0rHLDiwDutu8jd7p-147" vertex="1">
          <mxGeometry x="30" width="150" height="30" as="geometry">
            <mxRectangle width="150" height="30" as="alternateBounds" />
          </mxGeometry>
        </mxCell>
        <mxCell id="ifLj0rHLDiwDutu8jd7p-150" value="" style="shape=tableRow;horizontal=0;startSize=0;swimlaneHead=0;swimlaneBody=0;collapsible=0;dropTarget=0;points=[[0,0.5],[1,0.5]];portConstraint=eastwest;top=0;left=0;right=0;bottom=0;shadow=0;whiteSpace=wrap;labelBackgroundColor=light-dark(#f9f6f6, #ededed);strokeColor=light-dark(#af4646, #ededed);strokeWidth=2;" parent="ifLj0rHLDiwDutu8jd7p-140" vertex="1">
          <mxGeometry y="120" width="180" height="30" as="geometry" />
        </mxCell>
        <mxCell id="ifLj0rHLDiwDutu8jd7p-151" value="" style="shape=partialRectangle;connectable=0;top=0;left=0;bottom=0;right=0;editable=1;overflow=hidden;whiteSpace=wrap;html=1;shadow=0;labelBackgroundColor=light-dark(#f9f6f6, #ededed);strokeColor=light-dark(#af4646, #ededed);strokeWidth=2;" parent="ifLj0rHLDiwDutu8jd7p-150" vertex="1">
          <mxGeometry width="30" height="30" as="geometry">
            <mxRectangle width="30" height="30" as="alternateBounds" />
          </mxGeometry>
        </mxCell>
        <mxCell id="ifLj0rHLDiwDutu8jd7p-152" value="visitor_id" style="shape=partialRectangle;connectable=0;top=0;left=0;bottom=0;right=0;align=left;spacingLeft=6;overflow=hidden;whiteSpace=wrap;html=1;shadow=0;labelBackgroundColor=light-dark(#f9f6f6, #ededed);strokeColor=light-dark(#af4646, #ededed);strokeWidth=2;" parent="ifLj0rHLDiwDutu8jd7p-150" vertex="1">
          <mxGeometry x="30" width="150" height="30" as="geometry">
            <mxRectangle width="150" height="30" as="alternateBounds" />
          </mxGeometry>
        </mxCell>
        <mxCell id="ifLj0rHLDiwDutu8jd7p-153" value="" style="shape=tableRow;horizontal=0;startSize=0;swimlaneHead=0;swimlaneBody=0;collapsible=0;dropTarget=0;points=[[0,0.5],[1,0.5]];portConstraint=eastwest;top=0;left=0;right=0;bottom=0;shadow=0;whiteSpace=wrap;labelBackgroundColor=light-dark(#f9f6f6, #ededed);strokeColor=light-dark(#af4646, #ededed);strokeWidth=2;" parent="ifLj0rHLDiwDutu8jd7p-140" vertex="1">
          <mxGeometry y="150" width="180" height="30" as="geometry" />
        </mxCell>
        <mxCell id="ifLj0rHLDiwDutu8jd7p-154" value="" style="shape=partialRectangle;connectable=0;top=0;left=0;bottom=0;right=0;editable=1;overflow=hidden;whiteSpace=wrap;html=1;shadow=0;labelBackgroundColor=light-dark(#f9f6f6, #ededed);strokeColor=light-dark(#af4646, #ededed);strokeWidth=2;" parent="ifLj0rHLDiwDutu8jd7p-153" vertex="1">
          <mxGeometry width="30" height="30" as="geometry">
            <mxRectangle width="30" height="30" as="alternateBounds" />
          </mxGeometry>
        </mxCell>
        <mxCell id="ifLj0rHLDiwDutu8jd7p-155" value="country_id" style="shape=partialRectangle;connectable=0;top=0;left=0;bottom=0;right=0;align=left;spacingLeft=6;overflow=hidden;whiteSpace=wrap;html=1;shadow=0;labelBackgroundColor=light-dark(#f9f6f6, #ededed);strokeColor=light-dark(#af4646, #ededed);strokeWidth=2;" parent="ifLj0rHLDiwDutu8jd7p-153" vertex="1">
          <mxGeometry x="30" width="150" height="30" as="geometry">
            <mxRectangle width="150" height="30" as="alternateBounds" />
          </mxGeometry>
        </mxCell>
        <mxCell id="ifLj0rHLDiwDutu8jd7p-156" value="" style="shape=tableRow;horizontal=0;startSize=0;swimlaneHead=0;swimlaneBody=0;collapsible=0;dropTarget=0;points=[[0,0.5],[1,0.5]];portConstraint=eastwest;top=0;left=0;right=0;bottom=0;shadow=0;whiteSpace=wrap;labelBackgroundColor=light-dark(#f9f6f6, #ededed);strokeColor=light-dark(#af4646, #ededed);strokeWidth=2;" parent="ifLj0rHLDiwDutu8jd7p-140" vertex="1">
          <mxGeometry y="180" width="180" height="30" as="geometry" />
        </mxCell>
        <mxCell id="ifLj0rHLDiwDutu8jd7p-157" value="" style="shape=partialRectangle;connectable=0;top=0;left=0;bottom=0;right=0;editable=1;overflow=hidden;whiteSpace=wrap;html=1;shadow=0;labelBackgroundColor=light-dark(#f9f6f6, #ededed);strokeColor=light-dark(#af4646, #ededed);strokeWidth=2;" parent="ifLj0rHLDiwDutu8jd7p-156" vertex="1">
          <mxGeometry width="30" height="30" as="geometry">
            <mxRectangle width="30" height="30" as="alternateBounds" />
          </mxGeometry>
        </mxCell>
        <mxCell id="ifLj0rHLDiwDutu8jd7p-158" value="fee_group_id" style="shape=partialRectangle;connectable=0;top=0;left=0;bottom=0;right=0;align=left;spacingLeft=6;overflow=hidden;whiteSpace=wrap;html=1;shadow=0;labelBackgroundColor=light-dark(#f9f6f6, #ededed);strokeColor=light-dark(#af4646, #ededed);strokeWidth=2;" parent="ifLj0rHLDiwDutu8jd7p-156" vertex="1">
          <mxGeometry x="30" width="150" height="30" as="geometry">
            <mxRectangle width="150" height="30" as="alternateBounds" />
          </mxGeometry>
        </mxCell>
        <mxCell id="ifLj0rHLDiwDutu8jd7p-159" value="" style="shape=tableRow;horizontal=0;startSize=0;swimlaneHead=0;swimlaneBody=0;collapsible=0;dropTarget=0;points=[[0,0.5],[1,0.5]];portConstraint=eastwest;top=0;left=0;right=0;bottom=0;shadow=0;whiteSpace=wrap;labelBackgroundColor=light-dark(#f9f6f6, #ededed);strokeColor=light-dark(#af4646, #ededed);strokeWidth=2;" parent="ifLj0rHLDiwDutu8jd7p-140" vertex="1">
          <mxGeometry y="210" width="180" height="30" as="geometry" />
        </mxCell>
        <mxCell id="ifLj0rHLDiwDutu8jd7p-160" value="" style="shape=partialRectangle;connectable=0;top=0;left=0;bottom=0;right=0;editable=1;overflow=hidden;whiteSpace=wrap;html=1;shadow=0;labelBackgroundColor=light-dark(#f9f6f6, #ededed);strokeColor=light-dark(#af4646, #ededed);strokeWidth=2;" parent="ifLj0rHLDiwDutu8jd7p-159" vertex="1">
          <mxGeometry width="30" height="30" as="geometry">
            <mxRectangle width="30" height="30" as="alternateBounds" />
          </mxGeometry>
        </mxCell>
        <mxCell id="ifLj0rHLDiwDutu8jd7p-161" value="id_type_id" style="shape=partialRectangle;connectable=0;top=0;left=0;bottom=0;right=0;align=left;spacingLeft=6;overflow=hidden;whiteSpace=wrap;html=1;shadow=0;labelBackgroundColor=light-dark(#f9f6f6, #ededed);strokeColor=light-dark(#af4646, #ededed);strokeWidth=2;" parent="ifLj0rHLDiwDutu8jd7p-159" vertex="1">
          <mxGeometry x="30" width="150" height="30" as="geometry">
            <mxRectangle width="150" height="30" as="alternateBounds" />
          </mxGeometry>
        </mxCell>
        <mxCell id="ifLj0rHLDiwDutu8jd7p-162" value="" style="shape=tableRow;horizontal=0;startSize=0;swimlaneHead=0;swimlaneBody=0;collapsible=0;dropTarget=0;points=[[0,0.5],[1,0.5]];portConstraint=eastwest;top=0;left=0;right=0;bottom=0;shadow=0;whiteSpace=wrap;labelBackgroundColor=light-dark(#f9f6f6, #ededed);strokeColor=light-dark(#af4646, #ededed);strokeWidth=2;" parent="ifLj0rHLDiwDutu8jd7p-140" vertex="1">
          <mxGeometry y="240" width="180" height="30" as="geometry" />
        </mxCell>
        <mxCell id="ifLj0rHLDiwDutu8jd7p-163" value="" style="shape=partialRectangle;connectable=0;top=0;left=0;bottom=0;right=0;editable=1;overflow=hidden;whiteSpace=wrap;html=1;shadow=0;labelBackgroundColor=light-dark(#f9f6f6, #ededed);strokeColor=light-dark(#af4646, #ededed);strokeWidth=2;" parent="ifLj0rHLDiwDutu8jd7p-162" vertex="1">
          <mxGeometry width="30" height="30" as="geometry">
            <mxRectangle width="30" height="30" as="alternateBounds" />
          </mxGeometry>
        </mxCell>
        <mxCell id="ifLj0rHLDiwDutu8jd7p-164" value="id_number" style="shape=partialRectangle;connectable=0;top=0;left=0;bottom=0;right=0;align=left;spacingLeft=6;overflow=hidden;whiteSpace=wrap;html=1;shadow=0;labelBackgroundColor=light-dark(#f9f6f6, #ededed);strokeColor=light-dark(#af4646, #ededed);strokeWidth=2;" parent="ifLj0rHLDiwDutu8jd7p-162" vertex="1">
          <mxGeometry x="30" width="150" height="30" as="geometry">
            <mxRectangle width="150" height="30" as="alternateBounds" />
          </mxGeometry>
        </mxCell>
        <mxCell id="ifLj0rHLDiwDutu8jd7p-165" value="" style="shape=tableRow;horizontal=0;startSize=0;swimlaneHead=0;swimlaneBody=0;collapsible=0;dropTarget=0;points=[[0,0.5],[1,0.5]];portConstraint=eastwest;top=0;left=0;right=0;bottom=0;shadow=0;whiteSpace=wrap;labelBackgroundColor=light-dark(#f9f6f6, #ededed);strokeColor=light-dark(#af4646, #ededed);strokeWidth=2;" parent="ifLj0rHLDiwDutu8jd7p-140" vertex="1">
          <mxGeometry y="270" width="180" height="30" as="geometry" />
        </mxCell>
        <mxCell id="ifLj0rHLDiwDutu8jd7p-166" value="" style="shape=partialRectangle;connectable=0;top=0;left=0;bottom=0;right=0;editable=1;overflow=hidden;whiteSpace=wrap;html=1;shadow=0;labelBackgroundColor=light-dark(#f9f6f6, #ededed);strokeColor=light-dark(#af4646, #ededed);strokeWidth=2;" parent="ifLj0rHLDiwDutu8jd7p-165" vertex="1">
          <mxGeometry width="30" height="30" as="geometry">
            <mxRectangle width="30" height="30" as="alternateBounds" />
          </mxGeometry>
        </mxCell>
        <mxCell id="ifLj0rHLDiwDutu8jd7p-167" value="name" style="shape=partialRectangle;connectable=0;top=0;left=0;bottom=0;right=0;align=left;spacingLeft=6;overflow=hidden;whiteSpace=wrap;html=1;shadow=0;labelBackgroundColor=light-dark(#f9f6f6, #ededed);strokeColor=light-dark(#af4646, #ededed);strokeWidth=2;" parent="ifLj0rHLDiwDutu8jd7p-165" vertex="1">
          <mxGeometry x="30" width="150" height="30" as="geometry">
            <mxRectangle width="150" height="30" as="alternateBounds" />
          </mxGeometry>
        </mxCell>
        <mxCell id="ifLj0rHLDiwDutu8jd7p-169" value="" style="shape=tableRow;horizontal=0;startSize=0;swimlaneHead=0;swimlaneBody=0;collapsible=0;dropTarget=0;points=[[0,0.5],[1,0.5]];portConstraint=eastwest;top=0;left=0;right=0;bottom=0;shadow=0;whiteSpace=wrap;labelBackgroundColor=light-dark(#f9f6f6, #ededed);strokeColor=light-dark(#af4646, #ededed);strokeWidth=2;" parent="ifLj0rHLDiwDutu8jd7p-140" vertex="1">
          <mxGeometry y="300" width="180" height="30" as="geometry" />
        </mxCell>
        <mxCell id="ifLj0rHLDiwDutu8jd7p-170" value="" style="shape=partialRectangle;connectable=0;top=0;left=0;bottom=0;right=0;editable=1;overflow=hidden;whiteSpace=wrap;html=1;shadow=0;labelBackgroundColor=light-dark(#f9f6f6, #ededed);strokeColor=light-dark(#af4646, #ededed);strokeWidth=2;" parent="ifLj0rHLDiwDutu8jd7p-169" vertex="1">
          <mxGeometry width="30" height="30" as="geometry">
            <mxRectangle width="30" height="30" as="alternateBounds" />
          </mxGeometry>
        </mxCell>
        <mxCell id="ifLj0rHLDiwDutu8jd7p-171" value="gender" style="shape=partialRectangle;connectable=0;top=0;left=0;bottom=0;right=0;align=left;spacingLeft=6;overflow=hidden;whiteSpace=wrap;html=1;shadow=0;labelBackgroundColor=light-dark(#f9f6f6, #ededed);strokeColor=light-dark(#af4646, #ededed);strokeWidth=2;" parent="ifLj0rHLDiwDutu8jd7p-169" vertex="1">
          <mxGeometry x="30" width="150" height="30" as="geometry">
            <mxRectangle width="150" height="30" as="alternateBounds" />
          </mxGeometry>
        </mxCell>
        <mxCell id="ifLj0rHLDiwDutu8jd7p-172" value="" style="shape=tableRow;horizontal=0;startSize=0;swimlaneHead=0;swimlaneBody=0;collapsible=0;dropTarget=0;points=[[0,0.5],[1,0.5]];portConstraint=eastwest;top=0;left=0;right=0;bottom=0;shadow=0;whiteSpace=wrap;labelBackgroundColor=light-dark(#f9f6f6, #ededed);strokeColor=light-dark(#af4646, #ededed);strokeWidth=2;" parent="ifLj0rHLDiwDutu8jd7p-140" vertex="1">
          <mxGeometry y="330" width="180" height="30" as="geometry" />
        </mxCell>
        <mxCell id="ifLj0rHLDiwDutu8jd7p-173" value="" style="shape=partialRectangle;connectable=0;top=0;left=0;bottom=0;right=0;editable=1;overflow=hidden;whiteSpace=wrap;html=1;shadow=0;labelBackgroundColor=light-dark(#f9f6f6, #ededed);strokeColor=light-dark(#af4646, #ededed);strokeWidth=2;" parent="ifLj0rHLDiwDutu8jd7p-172" vertex="1">
          <mxGeometry width="30" height="30" as="geometry">
            <mxRectangle width="30" height="30" as="alternateBounds" />
          </mxGeometry>
        </mxCell>
        <mxCell id="ifLj0rHLDiwDutu8jd7p-174" value="visitor_type" style="shape=partialRectangle;connectable=0;top=0;left=0;bottom=0;right=0;align=left;spacingLeft=6;overflow=hidden;whiteSpace=wrap;html=1;shadow=0;labelBackgroundColor=light-dark(#f9f6f6, #ededed);strokeColor=light-dark(#af4646, #ededed);strokeWidth=2;" parent="ifLj0rHLDiwDutu8jd7p-172" vertex="1">
          <mxGeometry x="30" width="150" height="30" as="geometry">
            <mxRectangle width="150" height="30" as="alternateBounds" />
          </mxGeometry>
        </mxCell>
        <mxCell id="ifLj0rHLDiwDutu8jd7p-175" value="" style="shape=tableRow;horizontal=0;startSize=0;swimlaneHead=0;swimlaneBody=0;collapsible=0;dropTarget=0;points=[[0,0.5],[1,0.5]];portConstraint=eastwest;top=0;left=0;right=0;bottom=0;shadow=0;whiteSpace=wrap;labelBackgroundColor=light-dark(#f9f6f6, #ededed);strokeColor=light-dark(#af4646, #ededed);strokeWidth=2;" parent="ifLj0rHLDiwDutu8jd7p-140" vertex="1">
          <mxGeometry y="360" width="180" height="30" as="geometry" />
        </mxCell>
        <mxCell id="ifLj0rHLDiwDutu8jd7p-176" value="" style="shape=partialRectangle;connectable=0;top=0;left=0;bottom=0;right=0;editable=1;overflow=hidden;whiteSpace=wrap;html=1;shadow=0;labelBackgroundColor=light-dark(#f9f6f6, #ededed);strokeColor=light-dark(#af4646, #ededed);strokeWidth=2;" parent="ifLj0rHLDiwDutu8jd7p-175" vertex="1">
          <mxGeometry width="30" height="30" as="geometry">
            <mxRectangle width="30" height="30" as="alternateBounds" />
          </mxGeometry>
        </mxCell>
        <mxCell id="ifLj0rHLDiwDutu8jd7p-177" value="dob" style="shape=partialRectangle;connectable=0;top=0;left=0;bottom=0;right=0;align=left;spacingLeft=6;overflow=hidden;whiteSpace=wrap;html=1;shadow=0;labelBackgroundColor=light-dark(#f9f6f6, #ededed);strokeColor=light-dark(#af4646, #ededed);strokeWidth=2;" parent="ifLj0rHLDiwDutu8jd7p-175" vertex="1">
          <mxGeometry x="30" width="150" height="30" as="geometry">
            <mxRectangle width="150" height="30" as="alternateBounds" />
          </mxGeometry>
        </mxCell>
        <mxCell id="ifLj0rHLDiwDutu8jd7p-178" value="permit_activities" style="shape=table;startSize=30;container=1;collapsible=1;childLayout=tableLayout;fixedRows=1;rowLines=0;fontStyle=1;align=center;resizeLast=1;html=1;shadow=0;whiteSpace=wrap;labelBackgroundColor=light-dark(#f9f6f6, #ededed);swimlaneFillColor=none;strokeColor=light-dark(#af4646, #ededed);gradientColor=none;noLabel=0;strokeWidth=2;" parent="1" vertex="1">
          <mxGeometry x="470" y="300" width="180" height="300" as="geometry" />
        </mxCell>
        <mxCell id="ifLj0rHLDiwDutu8jd7p-179" value="" style="shape=tableRow;horizontal=0;startSize=0;swimlaneHead=0;swimlaneBody=0;collapsible=0;dropTarget=0;points=[[0,0.5],[1,0.5]];portConstraint=eastwest;top=0;left=0;right=0;bottom=1;shadow=0;whiteSpace=wrap;labelBackgroundColor=light-dark(#f9f6f6, #ededed);strokeColor=light-dark(#af4646, #ededed);strokeWidth=2;" parent="ifLj0rHLDiwDutu8jd7p-178" vertex="1">
          <mxGeometry y="30" width="180" height="30" as="geometry" />
        </mxCell>
        <mxCell id="ifLj0rHLDiwDutu8jd7p-180" value="PK" style="shape=partialRectangle;connectable=0;top=0;left=0;bottom=0;right=0;fontStyle=1;overflow=hidden;whiteSpace=wrap;html=1;shadow=0;labelBackgroundColor=light-dark(#f9f6f6, #ededed);strokeColor=light-dark(#af4646, #ededed);strokeWidth=2;" parent="ifLj0rHLDiwDutu8jd7p-179" vertex="1">
          <mxGeometry width="30" height="30" as="geometry">
            <mxRectangle width="30" height="30" as="alternateBounds" />
          </mxGeometry>
        </mxCell>
        <mxCell id="ifLj0rHLDiwDutu8jd7p-181" value="id" style="shape=partialRectangle;connectable=0;top=0;left=0;bottom=0;right=0;align=left;spacingLeft=6;fontStyle=5;overflow=hidden;whiteSpace=wrap;html=1;shadow=0;labelBackgroundColor=light-dark(#f9f6f6, #ededed);strokeColor=light-dark(#af4646, #ededed);strokeWidth=2;" parent="ifLj0rHLDiwDutu8jd7p-179" vertex="1">
          <mxGeometry x="30" width="150" height="30" as="geometry">
            <mxRectangle width="150" height="30" as="alternateBounds" />
          </mxGeometry>
        </mxCell>
        <mxCell id="ifLj0rHLDiwDutu8jd7p-182" value="" style="shape=tableRow;horizontal=0;startSize=0;swimlaneHead=0;swimlaneBody=0;collapsible=0;dropTarget=0;points=[[0,0.5],[1,0.5]];portConstraint=eastwest;top=0;left=0;right=0;bottom=0;shadow=0;whiteSpace=wrap;labelBackgroundColor=light-dark(#f9f6f6, #ededed);strokeColor=light-dark(#af4646, #ededed);strokeWidth=2;" parent="ifLj0rHLDiwDutu8jd7p-178" vertex="1">
          <mxGeometry y="60" width="180" height="30" as="geometry" />
        </mxCell>
        <mxCell id="ifLj0rHLDiwDutu8jd7p-183" value="" style="shape=partialRectangle;connectable=0;top=0;left=0;bottom=0;right=0;editable=1;overflow=hidden;whiteSpace=wrap;html=1;shadow=0;labelBackgroundColor=light-dark(#f9f6f6, #ededed);strokeColor=light-dark(#af4646, #ededed);strokeWidth=2;" parent="ifLj0rHLDiwDutu8jd7p-182" vertex="1">
          <mxGeometry width="30" height="30" as="geometry">
            <mxRectangle width="30" height="30" as="alternateBounds" />
          </mxGeometry>
        </mxCell>
        <mxCell id="ifLj0rHLDiwDutu8jd7p-184" value="uuid" style="shape=partialRectangle;connectable=0;top=0;left=0;bottom=0;right=0;align=left;spacingLeft=6;overflow=hidden;whiteSpace=wrap;html=1;shadow=0;labelBackgroundColor=light-dark(#f9f6f6, #ededed);strokeColor=light-dark(#af4646, #ededed);strokeWidth=2;" parent="ifLj0rHLDiwDutu8jd7p-182" vertex="1">
          <mxGeometry x="30" width="150" height="30" as="geometry">
            <mxRectangle width="150" height="30" as="alternateBounds" />
          </mxGeometry>
        </mxCell>
        <mxCell id="ifLj0rHLDiwDutu8jd7p-185" value="" style="shape=tableRow;horizontal=0;startSize=0;swimlaneHead=0;swimlaneBody=0;collapsible=0;dropTarget=0;points=[[0,0.5],[1,0.5]];portConstraint=eastwest;top=0;left=0;right=0;bottom=0;shadow=0;whiteSpace=wrap;labelBackgroundColor=light-dark(#f9f6f6, #ededed);strokeColor=light-dark(#af4646, #ededed);strokeWidth=2;" parent="ifLj0rHLDiwDutu8jd7p-178" vertex="1">
          <mxGeometry y="90" width="180" height="30" as="geometry" />
        </mxCell>
        <mxCell id="ifLj0rHLDiwDutu8jd7p-186" value="" style="shape=partialRectangle;connectable=0;top=0;left=0;bottom=0;right=0;editable=1;overflow=hidden;whiteSpace=wrap;html=1;shadow=0;labelBackgroundColor=light-dark(#f9f6f6, #ededed);strokeColor=light-dark(#af4646, #ededed);strokeWidth=2;" parent="ifLj0rHLDiwDutu8jd7p-185" vertex="1">
          <mxGeometry width="30" height="30" as="geometry">
            <mxRectangle width="30" height="30" as="alternateBounds" />
          </mxGeometry>
        </mxCell>
        <mxCell id="ifLj0rHLDiwDutu8jd7p-187" value="permit_attaction_site_id" style="shape=partialRectangle;connectable=0;top=0;left=0;bottom=0;right=0;align=left;spacingLeft=6;overflow=hidden;whiteSpace=wrap;html=1;shadow=0;labelBackgroundColor=light-dark(#f9f6f6, #ededed);strokeColor=light-dark(#af4646, #ededed);strokeWidth=2;" parent="ifLj0rHLDiwDutu8jd7p-185" vertex="1">
          <mxGeometry x="30" width="150" height="30" as="geometry">
            <mxRectangle width="150" height="30" as="alternateBounds" />
          </mxGeometry>
        </mxCell>
        <mxCell id="ifLj0rHLDiwDutu8jd7p-188" value="" style="shape=tableRow;horizontal=0;startSize=0;swimlaneHead=0;swimlaneBody=0;collapsible=0;dropTarget=0;points=[[0,0.5],[1,0.5]];portConstraint=eastwest;top=0;left=0;right=0;bottom=0;shadow=0;whiteSpace=wrap;labelBackgroundColor=light-dark(#f9f6f6, #ededed);strokeColor=light-dark(#af4646, #ededed);strokeWidth=2;" parent="ifLj0rHLDiwDutu8jd7p-178" vertex="1">
          <mxGeometry y="120" width="180" height="30" as="geometry" />
        </mxCell>
        <mxCell id="ifLj0rHLDiwDutu8jd7p-189" value="" style="shape=partialRectangle;connectable=0;top=0;left=0;bottom=0;right=0;editable=1;overflow=hidden;whiteSpace=wrap;html=1;shadow=0;labelBackgroundColor=light-dark(#f9f6f6, #ededed);strokeColor=light-dark(#af4646, #ededed);strokeWidth=2;" parent="ifLj0rHLDiwDutu8jd7p-188" vertex="1">
          <mxGeometry width="30" height="30" as="geometry">
            <mxRectangle width="30" height="30" as="alternateBounds" />
          </mxGeometry>
        </mxCell>
        <mxCell id="ifLj0rHLDiwDutu8jd7p-190" value="activity_id" style="shape=partialRectangle;connectable=0;top=0;left=0;bottom=0;right=0;align=left;spacingLeft=6;overflow=hidden;whiteSpace=wrap;html=1;shadow=0;labelBackgroundColor=light-dark(#f9f6f6, #ededed);strokeColor=light-dark(#af4646, #ededed);strokeWidth=2;" parent="ifLj0rHLDiwDutu8jd7p-188" vertex="1">
          <mxGeometry x="30" width="150" height="30" as="geometry">
            <mxRectangle width="150" height="30" as="alternateBounds" />
          </mxGeometry>
        </mxCell>
        <mxCell id="ifLj0rHLDiwDutu8jd7p-191" value="" style="shape=tableRow;horizontal=0;startSize=0;swimlaneHead=0;swimlaneBody=0;collapsible=0;dropTarget=0;points=[[0,0.5],[1,0.5]];portConstraint=eastwest;top=0;left=0;right=0;bottom=0;shadow=0;whiteSpace=wrap;labelBackgroundColor=light-dark(#f9f6f6, #ededed);strokeColor=light-dark(#af4646, #ededed);strokeWidth=2;" parent="ifLj0rHLDiwDutu8jd7p-178" vertex="1">
          <mxGeometry y="150" width="180" height="30" as="geometry" />
        </mxCell>
        <mxCell id="ifLj0rHLDiwDutu8jd7p-192" value="" style="shape=partialRectangle;connectable=0;top=0;left=0;bottom=0;right=0;editable=1;overflow=hidden;whiteSpace=wrap;html=1;shadow=0;labelBackgroundColor=light-dark(#f9f6f6, #ededed);strokeColor=light-dark(#af4646, #ededed);strokeWidth=2;" parent="ifLj0rHLDiwDutu8jd7p-191" vertex="1">
          <mxGeometry width="30" height="30" as="geometry">
            <mxRectangle width="30" height="30" as="alternateBounds" />
          </mxGeometry>
        </mxCell>
        <mxCell id="ifLj0rHLDiwDutu8jd7p-193" value="free_group_id" style="shape=partialRectangle;connectable=0;top=0;left=0;bottom=0;right=0;align=left;spacingLeft=6;overflow=hidden;whiteSpace=wrap;html=1;shadow=0;labelBackgroundColor=light-dark(#f9f6f6, #ededed);strokeColor=light-dark(#af4646, #ededed);strokeWidth=2;" parent="ifLj0rHLDiwDutu8jd7p-191" vertex="1">
          <mxGeometry x="30" width="150" height="30" as="geometry">
            <mxRectangle width="150" height="30" as="alternateBounds" />
          </mxGeometry>
        </mxCell>
        <mxCell id="ifLj0rHLDiwDutu8jd7p-194" value="" style="shape=tableRow;horizontal=0;startSize=0;swimlaneHead=0;swimlaneBody=0;collapsible=0;dropTarget=0;points=[[0,0.5],[1,0.5]];portConstraint=eastwest;top=0;left=0;right=0;bottom=0;shadow=0;whiteSpace=wrap;labelBackgroundColor=light-dark(#f9f6f6, #ededed);strokeColor=light-dark(#af4646, #ededed);strokeWidth=2;" parent="ifLj0rHLDiwDutu8jd7p-178" vertex="1">
          <mxGeometry y="180" width="180" height="30" as="geometry" />
        </mxCell>
        <mxCell id="ifLj0rHLDiwDutu8jd7p-195" value="" style="shape=partialRectangle;connectable=0;top=0;left=0;bottom=0;right=0;editable=1;overflow=hidden;whiteSpace=wrap;html=1;shadow=0;labelBackgroundColor=light-dark(#f9f6f6, #ededed);strokeColor=light-dark(#af4646, #ededed);strokeWidth=2;" parent="ifLj0rHLDiwDutu8jd7p-194" vertex="1">
          <mxGeometry width="30" height="30" as="geometry">
            <mxRectangle width="30" height="30" as="alternateBounds" />
          </mxGeometry>
        </mxCell>
        <mxCell id="ifLj0rHLDiwDutu8jd7p-196" value="plate_number" style="shape=partialRectangle;connectable=0;top=0;left=0;bottom=0;right=0;align=left;spacingLeft=6;overflow=hidden;whiteSpace=wrap;html=1;shadow=0;labelBackgroundColor=light-dark(#f9f6f6, #ededed);strokeColor=light-dark(#af4646, #ededed);strokeWidth=2;" parent="ifLj0rHLDiwDutu8jd7p-194" vertex="1">
          <mxGeometry x="30" width="150" height="30" as="geometry">
            <mxRectangle width="150" height="30" as="alternateBounds" />
          </mxGeometry>
        </mxCell>
        <mxCell id="ifLj0rHLDiwDutu8jd7p-197" value="" style="shape=tableRow;horizontal=0;startSize=0;swimlaneHead=0;swimlaneBody=0;collapsible=0;dropTarget=0;points=[[0,0.5],[1,0.5]];portConstraint=eastwest;top=0;left=0;right=0;bottom=0;shadow=0;whiteSpace=wrap;labelBackgroundColor=light-dark(#f9f6f6, #ededed);strokeColor=light-dark(#af4646, #ededed);strokeWidth=2;" parent="ifLj0rHLDiwDutu8jd7p-178" vertex="1">
          <mxGeometry y="210" width="180" height="30" as="geometry" />
        </mxCell>
        <mxCell id="ifLj0rHLDiwDutu8jd7p-198" value="" style="shape=partialRectangle;connectable=0;top=0;left=0;bottom=0;right=0;editable=1;overflow=hidden;whiteSpace=wrap;html=1;shadow=0;labelBackgroundColor=light-dark(#f9f6f6, #ededed);strokeColor=light-dark(#af4646, #ededed);strokeWidth=2;" parent="ifLj0rHLDiwDutu8jd7p-197" vertex="1">
          <mxGeometry width="30" height="30" as="geometry">
            <mxRectangle width="30" height="30" as="alternateBounds" />
          </mxGeometry>
        </mxCell>
        <mxCell id="ifLj0rHLDiwDutu8jd7p-199" value="date_from" style="shape=partialRectangle;connectable=0;top=0;left=0;bottom=0;right=0;align=left;spacingLeft=6;overflow=hidden;whiteSpace=wrap;html=1;shadow=0;labelBackgroundColor=light-dark(#f9f6f6, #ededed);strokeColor=light-dark(#af4646, #ededed);strokeWidth=2;" parent="ifLj0rHLDiwDutu8jd7p-197" vertex="1">
          <mxGeometry x="30" width="150" height="30" as="geometry">
            <mxRectangle width="150" height="30" as="alternateBounds" />
          </mxGeometry>
        </mxCell>
        <mxCell id="ifLj0rHLDiwDutu8jd7p-200" value="" style="shape=tableRow;horizontal=0;startSize=0;swimlaneHead=0;swimlaneBody=0;collapsible=0;dropTarget=0;points=[[0,0.5],[1,0.5]];portConstraint=eastwest;top=0;left=0;right=0;bottom=0;shadow=0;whiteSpace=wrap;labelBackgroundColor=light-dark(#f9f6f6, #ededed);strokeColor=light-dark(#af4646, #ededed);strokeWidth=2;" parent="ifLj0rHLDiwDutu8jd7p-178" vertex="1">
          <mxGeometry y="240" width="180" height="30" as="geometry" />
        </mxCell>
        <mxCell id="ifLj0rHLDiwDutu8jd7p-201" value="" style="shape=partialRectangle;connectable=0;top=0;left=0;bottom=0;right=0;editable=1;overflow=hidden;whiteSpace=wrap;html=1;shadow=0;labelBackgroundColor=light-dark(#f9f6f6, #ededed);strokeColor=light-dark(#af4646, #ededed);strokeWidth=2;" parent="ifLj0rHLDiwDutu8jd7p-200" vertex="1">
          <mxGeometry width="30" height="30" as="geometry">
            <mxRectangle width="30" height="30" as="alternateBounds" />
          </mxGeometry>
        </mxCell>
        <mxCell id="ifLj0rHLDiwDutu8jd7p-202" value="date_to" style="shape=partialRectangle;connectable=0;top=0;left=0;bottom=0;right=0;align=left;spacingLeft=6;overflow=hidden;whiteSpace=wrap;html=1;shadow=0;labelBackgroundColor=light-dark(#f9f6f6, #ededed);strokeColor=light-dark(#af4646, #ededed);strokeWidth=2;" parent="ifLj0rHLDiwDutu8jd7p-200" vertex="1">
          <mxGeometry x="30" width="150" height="30" as="geometry">
            <mxRectangle width="150" height="30" as="alternateBounds" />
          </mxGeometry>
        </mxCell>
        <mxCell id="ifLj0rHLDiwDutu8jd7p-203" value="" style="shape=tableRow;horizontal=0;startSize=0;swimlaneHead=0;swimlaneBody=0;collapsible=0;dropTarget=0;points=[[0,0.5],[1,0.5]];portConstraint=eastwest;top=0;left=0;right=0;bottom=0;shadow=0;whiteSpace=wrap;labelBackgroundColor=light-dark(#f9f6f6, #ededed);strokeColor=light-dark(#af4646, #ededed);strokeWidth=2;" parent="ifLj0rHLDiwDutu8jd7p-178" vertex="1">
          <mxGeometry y="270" width="180" height="30" as="geometry" />
        </mxCell>
        <mxCell id="ifLj0rHLDiwDutu8jd7p-204" value="" style="shape=partialRectangle;connectable=0;top=0;left=0;bottom=0;right=0;editable=1;overflow=hidden;whiteSpace=wrap;html=1;shadow=0;labelBackgroundColor=light-dark(#f9f6f6, #ededed);strokeColor=light-dark(#af4646, #ededed);strokeWidth=2;" parent="ifLj0rHLDiwDutu8jd7p-203" vertex="1">
          <mxGeometry width="30" height="30" as="geometry">
            <mxRectangle width="30" height="30" as="alternateBounds" />
          </mxGeometry>
        </mxCell>
        <mxCell id="ifLj0rHLDiwDutu8jd7p-205" value="" style="shape=partialRectangle;connectable=0;top=0;left=0;bottom=0;right=0;align=left;spacingLeft=6;overflow=hidden;whiteSpace=wrap;html=1;shadow=0;labelBackgroundColor=light-dark(#f9f6f6, #ededed);strokeColor=light-dark(#af4646, #ededed);strokeWidth=2;" parent="ifLj0rHLDiwDutu8jd7p-203" vertex="1">
          <mxGeometry x="30" width="150" height="30" as="geometry">
            <mxRectangle width="150" height="30" as="alternateBounds" />
          </mxGeometry>
        </mxCell>
        <mxCell id="ifLj0rHLDiwDutu8jd7p-206" value="permit_activity_visitors" style="shape=table;startSize=30;container=1;collapsible=1;childLayout=tableLayout;fixedRows=1;rowLines=0;fontStyle=1;align=center;resizeLast=1;html=1;shadow=0;whiteSpace=wrap;labelBackgroundColor=light-dark(#f9f6f6, #ededed);swimlaneFillColor=none;strokeColor=light-dark(#af4646, #ededed);gradientColor=none;noLabel=0;strokeWidth=2;" parent="1" vertex="1">
          <mxGeometry x="750" y="370" width="180" height="180" as="geometry" />
        </mxCell>
        <mxCell id="ifLj0rHLDiwDutu8jd7p-207" value="" style="shape=tableRow;horizontal=0;startSize=0;swimlaneHead=0;swimlaneBody=0;collapsible=0;dropTarget=0;points=[[0,0.5],[1,0.5]];portConstraint=eastwest;top=0;left=0;right=0;bottom=1;shadow=0;whiteSpace=wrap;labelBackgroundColor=light-dark(#f9f6f6, #ededed);strokeColor=light-dark(#af4646, #ededed);strokeWidth=2;" parent="ifLj0rHLDiwDutu8jd7p-206" vertex="1">
          <mxGeometry y="30" width="180" height="30" as="geometry" />
        </mxCell>
        <mxCell id="ifLj0rHLDiwDutu8jd7p-208" value="PK" style="shape=partialRectangle;connectable=0;top=0;left=0;bottom=0;right=0;fontStyle=1;overflow=hidden;whiteSpace=wrap;html=1;shadow=0;labelBackgroundColor=light-dark(#f9f6f6, #ededed);strokeColor=light-dark(#af4646, #ededed);strokeWidth=2;" parent="ifLj0rHLDiwDutu8jd7p-207" vertex="1">
          <mxGeometry width="30" height="30" as="geometry">
            <mxRectangle width="30" height="30" as="alternateBounds" />
          </mxGeometry>
        </mxCell>
        <mxCell id="ifLj0rHLDiwDutu8jd7p-209" value="id" style="shape=partialRectangle;connectable=0;top=0;left=0;bottom=0;right=0;align=left;spacingLeft=6;fontStyle=5;overflow=hidden;whiteSpace=wrap;html=1;shadow=0;labelBackgroundColor=light-dark(#f9f6f6, #ededed);strokeColor=light-dark(#af4646, #ededed);strokeWidth=2;" parent="ifLj0rHLDiwDutu8jd7p-207" vertex="1">
          <mxGeometry x="30" width="150" height="30" as="geometry">
            <mxRectangle width="150" height="30" as="alternateBounds" />
          </mxGeometry>
        </mxCell>
        <mxCell id="ifLj0rHLDiwDutu8jd7p-210" value="" style="shape=tableRow;horizontal=0;startSize=0;swimlaneHead=0;swimlaneBody=0;collapsible=0;dropTarget=0;points=[[0,0.5],[1,0.5]];portConstraint=eastwest;top=0;left=0;right=0;bottom=0;shadow=0;whiteSpace=wrap;labelBackgroundColor=light-dark(#f9f6f6, #ededed);strokeColor=light-dark(#af4646, #ededed);strokeWidth=2;" parent="ifLj0rHLDiwDutu8jd7p-206" vertex="1">
          <mxGeometry y="60" width="180" height="30" as="geometry" />
        </mxCell>
        <mxCell id="ifLj0rHLDiwDutu8jd7p-211" value="" style="shape=partialRectangle;connectable=0;top=0;left=0;bottom=0;right=0;editable=1;overflow=hidden;whiteSpace=wrap;html=1;shadow=0;labelBackgroundColor=light-dark(#f9f6f6, #ededed);strokeColor=light-dark(#af4646, #ededed);strokeWidth=2;" parent="ifLj0rHLDiwDutu8jd7p-210" vertex="1">
          <mxGeometry width="30" height="30" as="geometry">
            <mxRectangle width="30" height="30" as="alternateBounds" />
          </mxGeometry>
        </mxCell>
        <mxCell id="ifLj0rHLDiwDutu8jd7p-212" value="uuid" style="shape=partialRectangle;connectable=0;top=0;left=0;bottom=0;right=0;align=left;spacingLeft=6;overflow=hidden;whiteSpace=wrap;html=1;shadow=0;labelBackgroundColor=light-dark(#f9f6f6, #ededed);strokeColor=light-dark(#af4646, #ededed);strokeWidth=2;" parent="ifLj0rHLDiwDutu8jd7p-210" vertex="1">
          <mxGeometry x="30" width="150" height="30" as="geometry">
            <mxRectangle width="150" height="30" as="alternateBounds" />
          </mxGeometry>
        </mxCell>
        <mxCell id="ifLj0rHLDiwDutu8jd7p-216" value="" style="shape=tableRow;horizontal=0;startSize=0;swimlaneHead=0;swimlaneBody=0;collapsible=0;dropTarget=0;points=[[0,0.5],[1,0.5]];portConstraint=eastwest;top=0;left=0;right=0;bottom=0;shadow=0;whiteSpace=wrap;labelBackgroundColor=light-dark(#f9f6f6, #ededed);strokeColor=light-dark(#af4646, #ededed);strokeWidth=2;" parent="ifLj0rHLDiwDutu8jd7p-206" vertex="1">
          <mxGeometry y="90" width="180" height="30" as="geometry" />
        </mxCell>
        <mxCell id="ifLj0rHLDiwDutu8jd7p-217" value="" style="shape=partialRectangle;connectable=0;top=0;left=0;bottom=0;right=0;editable=1;overflow=hidden;whiteSpace=wrap;html=1;shadow=0;labelBackgroundColor=light-dark(#f9f6f6, #ededed);strokeColor=light-dark(#af4646, #ededed);strokeWidth=2;" parent="ifLj0rHLDiwDutu8jd7p-216" vertex="1">
          <mxGeometry width="30" height="30" as="geometry">
            <mxRectangle width="30" height="30" as="alternateBounds" />
          </mxGeometry>
        </mxCell>
        <mxCell id="ifLj0rHLDiwDutu8jd7p-218" value="permit_activity_id" style="shape=partialRectangle;connectable=0;top=0;left=0;bottom=0;right=0;align=left;spacingLeft=6;overflow=hidden;whiteSpace=wrap;html=1;shadow=0;labelBackgroundColor=light-dark(#f9f6f6, #ededed);strokeColor=light-dark(#af4646, #ededed);strokeWidth=2;" parent="ifLj0rHLDiwDutu8jd7p-216" vertex="1">
          <mxGeometry x="30" width="150" height="30" as="geometry">
            <mxRectangle width="150" height="30" as="alternateBounds" />
          </mxGeometry>
        </mxCell>
        <mxCell id="ifLj0rHLDiwDutu8jd7p-219" value="" style="shape=tableRow;horizontal=0;startSize=0;swimlaneHead=0;swimlaneBody=0;collapsible=0;dropTarget=0;points=[[0,0.5],[1,0.5]];portConstraint=eastwest;top=0;left=0;right=0;bottom=0;shadow=0;whiteSpace=wrap;labelBackgroundColor=light-dark(#f9f6f6, #ededed);strokeColor=light-dark(#af4646, #ededed);strokeWidth=2;" parent="ifLj0rHLDiwDutu8jd7p-206" vertex="1">
          <mxGeometry y="120" width="180" height="30" as="geometry" />
        </mxCell>
        <mxCell id="ifLj0rHLDiwDutu8jd7p-220" value="" style="shape=partialRectangle;connectable=0;top=0;left=0;bottom=0;right=0;editable=1;overflow=hidden;whiteSpace=wrap;html=1;shadow=0;labelBackgroundColor=light-dark(#f9f6f6, #ededed);strokeColor=light-dark(#af4646, #ededed);strokeWidth=2;" parent="ifLj0rHLDiwDutu8jd7p-219" vertex="1">
          <mxGeometry width="30" height="30" as="geometry">
            <mxRectangle width="30" height="30" as="alternateBounds" />
          </mxGeometry>
        </mxCell>
        <mxCell id="ifLj0rHLDiwDutu8jd7p-221" value="permit_visitor_id" style="shape=partialRectangle;connectable=0;top=0;left=0;bottom=0;right=0;align=left;spacingLeft=6;overflow=hidden;whiteSpace=wrap;html=1;shadow=0;labelBackgroundColor=light-dark(#f9f6f6, #ededed);strokeColor=light-dark(#af4646, #ededed);strokeWidth=2;" parent="ifLj0rHLDiwDutu8jd7p-219" vertex="1">
          <mxGeometry x="30" width="150" height="30" as="geometry">
            <mxRectangle width="150" height="30" as="alternateBounds" />
          </mxGeometry>
        </mxCell>
        <mxCell id="ifLj0rHLDiwDutu8jd7p-231" value="" style="shape=tableRow;horizontal=0;startSize=0;swimlaneHead=0;swimlaneBody=0;collapsible=0;dropTarget=0;points=[[0,0.5],[1,0.5]];portConstraint=eastwest;top=0;left=0;right=0;bottom=0;shadow=0;whiteSpace=wrap;labelBackgroundColor=light-dark(#f9f6f6, #ededed);strokeColor=light-dark(#af4646, #ededed);strokeWidth=2;" parent="ifLj0rHLDiwDutu8jd7p-206" vertex="1">
          <mxGeometry y="150" width="180" height="30" as="geometry" />
        </mxCell>
        <mxCell id="ifLj0rHLDiwDutu8jd7p-232" value="" style="shape=partialRectangle;connectable=0;top=0;left=0;bottom=0;right=0;editable=1;overflow=hidden;whiteSpace=wrap;html=1;shadow=0;labelBackgroundColor=light-dark(#f9f6f6, #ededed);strokeColor=light-dark(#af4646, #ededed);strokeWidth=2;" parent="ifLj0rHLDiwDutu8jd7p-231" vertex="1">
          <mxGeometry width="30" height="30" as="geometry">
            <mxRectangle width="30" height="30" as="alternateBounds" />
          </mxGeometry>
        </mxCell>
        <mxCell id="ifLj0rHLDiwDutu8jd7p-233" value="" style="shape=partialRectangle;connectable=0;top=0;left=0;bottom=0;right=0;align=left;spacingLeft=6;overflow=hidden;whiteSpace=wrap;html=1;shadow=0;labelBackgroundColor=light-dark(#f9f6f6, #ededed);strokeColor=light-dark(#af4646, #ededed);strokeWidth=2;" parent="ifLj0rHLDiwDutu8jd7p-231" vertex="1">
          <mxGeometry x="30" width="150" height="30" as="geometry">
            <mxRectangle width="150" height="30" as="alternateBounds" />
          </mxGeometry>
        </mxCell>
        <mxCell id="ifLj0rHLDiwDutu8jd7p-235" value="permit_establishments" style="shape=table;startSize=30;container=1;collapsible=1;childLayout=tableLayout;fixedRows=1;rowLines=0;fontStyle=1;align=center;resizeLast=1;html=1;shadow=0;whiteSpace=wrap;labelBackgroundColor=light-dark(#f9f6f6, #ededed);swimlaneFillColor=none;strokeColor=light-dark(#af4646, #ededed);gradientColor=none;noLabel=0;strokeWidth=2;" parent="1" vertex="1">
          <mxGeometry x="680" y="570" width="180" height="270" as="geometry" />
        </mxCell>
        <mxCell id="ifLj0rHLDiwDutu8jd7p-236" value="" style="shape=tableRow;horizontal=0;startSize=0;swimlaneHead=0;swimlaneBody=0;collapsible=0;dropTarget=0;points=[[0,0.5],[1,0.5]];portConstraint=eastwest;top=0;left=0;right=0;bottom=1;shadow=0;whiteSpace=wrap;labelBackgroundColor=light-dark(#f9f6f6, #ededed);strokeColor=light-dark(#af4646, #ededed);strokeWidth=2;" parent="ifLj0rHLDiwDutu8jd7p-235" vertex="1">
          <mxGeometry y="30" width="180" height="30" as="geometry" />
        </mxCell>
        <mxCell id="ifLj0rHLDiwDutu8jd7p-237" value="PK" style="shape=partialRectangle;connectable=0;top=0;left=0;bottom=0;right=0;fontStyle=1;overflow=hidden;whiteSpace=wrap;html=1;shadow=0;labelBackgroundColor=light-dark(#f9f6f6, #ededed);strokeColor=light-dark(#af4646, #ededed);strokeWidth=2;" parent="ifLj0rHLDiwDutu8jd7p-236" vertex="1">
          <mxGeometry width="30" height="30" as="geometry">
            <mxRectangle width="30" height="30" as="alternateBounds" />
          </mxGeometry>
        </mxCell>
        <mxCell id="ifLj0rHLDiwDutu8jd7p-238" value="id" style="shape=partialRectangle;connectable=0;top=0;left=0;bottom=0;right=0;align=left;spacingLeft=6;fontStyle=5;overflow=hidden;whiteSpace=wrap;html=1;shadow=0;labelBackgroundColor=light-dark(#f9f6f6, #ededed);strokeColor=light-dark(#af4646, #ededed);strokeWidth=2;" parent="ifLj0rHLDiwDutu8jd7p-236" vertex="1">
          <mxGeometry x="30" width="150" height="30" as="geometry">
            <mxRectangle width="150" height="30" as="alternateBounds" />
          </mxGeometry>
        </mxCell>
        <mxCell id="ifLj0rHLDiwDutu8jd7p-239" value="" style="shape=tableRow;horizontal=0;startSize=0;swimlaneHead=0;swimlaneBody=0;collapsible=0;dropTarget=0;points=[[0,0.5],[1,0.5]];portConstraint=eastwest;top=0;left=0;right=0;bottom=0;shadow=0;whiteSpace=wrap;labelBackgroundColor=light-dark(#f9f6f6, #ededed);strokeColor=light-dark(#af4646, #ededed);strokeWidth=2;" parent="ifLj0rHLDiwDutu8jd7p-235" vertex="1">
          <mxGeometry y="60" width="180" height="30" as="geometry" />
        </mxCell>
        <mxCell id="ifLj0rHLDiwDutu8jd7p-240" value="" style="shape=partialRectangle;connectable=0;top=0;left=0;bottom=0;right=0;editable=1;overflow=hidden;whiteSpace=wrap;html=1;shadow=0;labelBackgroundColor=light-dark(#f9f6f6, #ededed);strokeColor=light-dark(#af4646, #ededed);strokeWidth=2;" parent="ifLj0rHLDiwDutu8jd7p-239" vertex="1">
          <mxGeometry width="30" height="30" as="geometry">
            <mxRectangle width="30" height="30" as="alternateBounds" />
          </mxGeometry>
        </mxCell>
        <mxCell id="ifLj0rHLDiwDutu8jd7p-241" value="uuid" style="shape=partialRectangle;connectable=0;top=0;left=0;bottom=0;right=0;align=left;spacingLeft=6;overflow=hidden;whiteSpace=wrap;html=1;shadow=0;labelBackgroundColor=light-dark(#f9f6f6, #ededed);strokeColor=light-dark(#af4646, #ededed);strokeWidth=2;" parent="ifLj0rHLDiwDutu8jd7p-239" vertex="1">
          <mxGeometry x="30" width="150" height="30" as="geometry">
            <mxRectangle width="150" height="30" as="alternateBounds" />
          </mxGeometry>
        </mxCell>
        <mxCell id="ifLj0rHLDiwDutu8jd7p-242" value="" style="shape=tableRow;horizontal=0;startSize=0;swimlaneHead=0;swimlaneBody=0;collapsible=0;dropTarget=0;points=[[0,0.5],[1,0.5]];portConstraint=eastwest;top=0;left=0;right=0;bottom=0;shadow=0;whiteSpace=wrap;labelBackgroundColor=light-dark(#f9f6f6, #ededed);strokeColor=light-dark(#af4646, #ededed);strokeWidth=2;" parent="ifLj0rHLDiwDutu8jd7p-235" vertex="1">
          <mxGeometry y="90" width="180" height="30" as="geometry" />
        </mxCell>
        <mxCell id="ifLj0rHLDiwDutu8jd7p-243" value="" style="shape=partialRectangle;connectable=0;top=0;left=0;bottom=0;right=0;editable=1;overflow=hidden;whiteSpace=wrap;html=1;shadow=0;labelBackgroundColor=light-dark(#f9f6f6, #ededed);strokeColor=light-dark(#af4646, #ededed);strokeWidth=2;" parent="ifLj0rHLDiwDutu8jd7p-242" vertex="1">
          <mxGeometry width="30" height="30" as="geometry">
            <mxRectangle width="30" height="30" as="alternateBounds" />
          </mxGeometry>
        </mxCell>
        <mxCell id="ifLj0rHLDiwDutu8jd7p-244" value="permit_attaction_site_id" style="shape=partialRectangle;connectable=0;top=0;left=0;bottom=0;right=0;align=left;spacingLeft=6;overflow=hidden;whiteSpace=wrap;html=1;shadow=0;labelBackgroundColor=light-dark(#f9f6f6, #ededed);strokeColor=light-dark(#af4646, #ededed);strokeWidth=2;" parent="ifLj0rHLDiwDutu8jd7p-242" vertex="1">
          <mxGeometry x="30" width="150" height="30" as="geometry">
            <mxRectangle width="150" height="30" as="alternateBounds" />
          </mxGeometry>
        </mxCell>
        <mxCell id="ifLj0rHLDiwDutu8jd7p-245" value="" style="shape=tableRow;horizontal=0;startSize=0;swimlaneHead=0;swimlaneBody=0;collapsible=0;dropTarget=0;points=[[0,0.5],[1,0.5]];portConstraint=eastwest;top=0;left=0;right=0;bottom=0;shadow=0;whiteSpace=wrap;labelBackgroundColor=light-dark(#f9f6f6, #ededed);strokeColor=light-dark(#af4646, #ededed);strokeWidth=2;" parent="ifLj0rHLDiwDutu8jd7p-235" vertex="1">
          <mxGeometry y="120" width="180" height="30" as="geometry" />
        </mxCell>
        <mxCell id="ifLj0rHLDiwDutu8jd7p-246" value="" style="shape=partialRectangle;connectable=0;top=0;left=0;bottom=0;right=0;editable=1;overflow=hidden;whiteSpace=wrap;html=1;shadow=0;labelBackgroundColor=light-dark(#f9f6f6, #ededed);strokeColor=light-dark(#af4646, #ededed);strokeWidth=2;" parent="ifLj0rHLDiwDutu8jd7p-245" vertex="1">
          <mxGeometry width="30" height="30" as="geometry">
            <mxRectangle width="30" height="30" as="alternateBounds" />
          </mxGeometry>
        </mxCell>
        <mxCell id="ifLj0rHLDiwDutu8jd7p-247" value="establishment_id" style="shape=partialRectangle;connectable=0;top=0;left=0;bottom=0;right=0;align=left;spacingLeft=6;overflow=hidden;whiteSpace=wrap;html=1;shadow=0;labelBackgroundColor=light-dark(#f9f6f6, #ededed);strokeColor=light-dark(#af4646, #ededed);strokeWidth=2;" parent="ifLj0rHLDiwDutu8jd7p-245" vertex="1">
          <mxGeometry x="30" width="150" height="30" as="geometry">
            <mxRectangle width="150" height="30" as="alternateBounds" />
          </mxGeometry>
        </mxCell>
        <mxCell id="ifLj0rHLDiwDutu8jd7p-248" value="" style="shape=tableRow;horizontal=0;startSize=0;swimlaneHead=0;swimlaneBody=0;collapsible=0;dropTarget=0;points=[[0,0.5],[1,0.5]];portConstraint=eastwest;top=0;left=0;right=0;bottom=0;shadow=0;whiteSpace=wrap;labelBackgroundColor=light-dark(#f9f6f6, #ededed);strokeColor=light-dark(#af4646, #ededed);strokeWidth=2;" parent="ifLj0rHLDiwDutu8jd7p-235" vertex="1">
          <mxGeometry y="150" width="180" height="30" as="geometry" />
        </mxCell>
        <mxCell id="ifLj0rHLDiwDutu8jd7p-249" value="" style="shape=partialRectangle;connectable=0;top=0;left=0;bottom=0;right=0;editable=1;overflow=hidden;whiteSpace=wrap;html=1;shadow=0;labelBackgroundColor=light-dark(#f9f6f6, #ededed);strokeColor=light-dark(#af4646, #ededed);strokeWidth=2;" parent="ifLj0rHLDiwDutu8jd7p-248" vertex="1">
          <mxGeometry width="30" height="30" as="geometry">
            <mxRectangle width="30" height="30" as="alternateBounds" />
          </mxGeometry>
        </mxCell>
        <mxCell id="ifLj0rHLDiwDutu8jd7p-250" value="permit_visitor_id" style="shape=partialRectangle;connectable=0;top=0;left=0;bottom=0;right=0;align=left;spacingLeft=6;overflow=hidden;whiteSpace=wrap;html=1;shadow=0;labelBackgroundColor=light-dark(#f9f6f6, #ededed);strokeColor=light-dark(#af4646, #ededed);strokeWidth=2;" parent="ifLj0rHLDiwDutu8jd7p-248" vertex="1">
          <mxGeometry x="30" width="150" height="30" as="geometry">
            <mxRectangle width="150" height="30" as="alternateBounds" />
          </mxGeometry>
        </mxCell>
        <mxCell id="ifLj0rHLDiwDutu8jd7p-254" value="" style="shape=tableRow;horizontal=0;startSize=0;swimlaneHead=0;swimlaneBody=0;collapsible=0;dropTarget=0;points=[[0,0.5],[1,0.5]];portConstraint=eastwest;top=0;left=0;right=0;bottom=0;shadow=0;whiteSpace=wrap;labelBackgroundColor=light-dark(#f9f6f6, #ededed);strokeColor=light-dark(#af4646, #ededed);strokeWidth=2;" parent="ifLj0rHLDiwDutu8jd7p-235" vertex="1">
          <mxGeometry y="180" width="180" height="30" as="geometry" />
        </mxCell>
        <mxCell id="ifLj0rHLDiwDutu8jd7p-255" value="" style="shape=partialRectangle;connectable=0;top=0;left=0;bottom=0;right=0;editable=1;overflow=hidden;whiteSpace=wrap;html=1;shadow=0;labelBackgroundColor=light-dark(#f9f6f6, #ededed);strokeColor=light-dark(#af4646, #ededed);strokeWidth=2;" parent="ifLj0rHLDiwDutu8jd7p-254" vertex="1">
          <mxGeometry width="30" height="30" as="geometry">
            <mxRectangle width="30" height="30" as="alternateBounds" />
          </mxGeometry>
        </mxCell>
        <mxCell id="ifLj0rHLDiwDutu8jd7p-256" value="date_from" style="shape=partialRectangle;connectable=0;top=0;left=0;bottom=0;right=0;align=left;spacingLeft=6;overflow=hidden;whiteSpace=wrap;html=1;shadow=0;labelBackgroundColor=light-dark(#f9f6f6, #ededed);strokeColor=light-dark(#af4646, #ededed);strokeWidth=2;" parent="ifLj0rHLDiwDutu8jd7p-254" vertex="1">
          <mxGeometry x="30" width="150" height="30" as="geometry">
            <mxRectangle width="150" height="30" as="alternateBounds" />
          </mxGeometry>
        </mxCell>
        <mxCell id="ifLj0rHLDiwDutu8jd7p-257" value="" style="shape=tableRow;horizontal=0;startSize=0;swimlaneHead=0;swimlaneBody=0;collapsible=0;dropTarget=0;points=[[0,0.5],[1,0.5]];portConstraint=eastwest;top=0;left=0;right=0;bottom=0;shadow=0;whiteSpace=wrap;labelBackgroundColor=light-dark(#f9f6f6, #ededed);strokeColor=light-dark(#af4646, #ededed);strokeWidth=2;" parent="ifLj0rHLDiwDutu8jd7p-235" vertex="1">
          <mxGeometry y="210" width="180" height="30" as="geometry" />
        </mxCell>
        <mxCell id="ifLj0rHLDiwDutu8jd7p-258" value="" style="shape=partialRectangle;connectable=0;top=0;left=0;bottom=0;right=0;editable=1;overflow=hidden;whiteSpace=wrap;html=1;shadow=0;labelBackgroundColor=light-dark(#f9f6f6, #ededed);strokeColor=light-dark(#af4646, #ededed);strokeWidth=2;" parent="ifLj0rHLDiwDutu8jd7p-257" vertex="1">
          <mxGeometry width="30" height="30" as="geometry">
            <mxRectangle width="30" height="30" as="alternateBounds" />
          </mxGeometry>
        </mxCell>
        <mxCell id="ifLj0rHLDiwDutu8jd7p-259" value="date_to" style="shape=partialRectangle;connectable=0;top=0;left=0;bottom=0;right=0;align=left;spacingLeft=6;overflow=hidden;whiteSpace=wrap;html=1;shadow=0;labelBackgroundColor=light-dark(#f9f6f6, #ededed);strokeColor=light-dark(#af4646, #ededed);strokeWidth=2;" parent="ifLj0rHLDiwDutu8jd7p-257" vertex="1">
          <mxGeometry x="30" width="150" height="30" as="geometry">
            <mxRectangle width="150" height="30" as="alternateBounds" />
          </mxGeometry>
        </mxCell>
        <mxCell id="ifLj0rHLDiwDutu8jd7p-260" value="" style="shape=tableRow;horizontal=0;startSize=0;swimlaneHead=0;swimlaneBody=0;collapsible=0;dropTarget=0;points=[[0,0.5],[1,0.5]];portConstraint=eastwest;top=0;left=0;right=0;bottom=0;shadow=0;whiteSpace=wrap;labelBackgroundColor=light-dark(#f9f6f6, #ededed);strokeColor=light-dark(#af4646, #ededed);strokeWidth=2;" parent="ifLj0rHLDiwDutu8jd7p-235" vertex="1">
          <mxGeometry y="240" width="180" height="30" as="geometry" />
        </mxCell>
        <mxCell id="ifLj0rHLDiwDutu8jd7p-261" value="" style="shape=partialRectangle;connectable=0;top=0;left=0;bottom=0;right=0;editable=1;overflow=hidden;whiteSpace=wrap;html=1;shadow=0;labelBackgroundColor=light-dark(#f9f6f6, #ededed);strokeColor=light-dark(#af4646, #ededed);strokeWidth=2;" parent="ifLj0rHLDiwDutu8jd7p-260" vertex="1">
          <mxGeometry width="30" height="30" as="geometry">
            <mxRectangle width="30" height="30" as="alternateBounds" />
          </mxGeometry>
        </mxCell>
        <mxCell id="ifLj0rHLDiwDutu8jd7p-262" value="" style="shape=partialRectangle;connectable=0;top=0;left=0;bottom=0;right=0;align=left;spacingLeft=6;overflow=hidden;whiteSpace=wrap;html=1;shadow=0;labelBackgroundColor=light-dark(#f9f6f6, #ededed);strokeColor=light-dark(#af4646, #ededed);strokeWidth=2;" parent="ifLj0rHLDiwDutu8jd7p-260" vertex="1">
          <mxGeometry x="30" width="150" height="30" as="geometry">
            <mxRectangle width="150" height="30" as="alternateBounds" />
          </mxGeometry>
        </mxCell>
        <mxCell id="ifLj0rHLDiwDutu8jd7p-263" value="permit_credit_notes" style="shape=table;startSize=30;container=1;collapsible=1;childLayout=tableLayout;fixedRows=1;rowLines=0;fontStyle=1;align=center;resizeLast=1;html=1;shadow=0;whiteSpace=wrap;labelBackgroundColor=light-dark(#f9f6f6, #ededed);swimlaneFillColor=none;strokeColor=light-dark(#af4646, #ededed);gradientColor=none;noLabel=0;strokeWidth=2;" parent="1" vertex="1">
          <mxGeometry x="740" y="40" width="180" height="270" as="geometry" />
        </mxCell>
        <mxCell id="ifLj0rHLDiwDutu8jd7p-264" value="" style="shape=tableRow;horizontal=0;startSize=0;swimlaneHead=0;swimlaneBody=0;collapsible=0;dropTarget=0;points=[[0,0.5],[1,0.5]];portConstraint=eastwest;top=0;left=0;right=0;bottom=1;shadow=0;whiteSpace=wrap;labelBackgroundColor=light-dark(#f9f6f6, #ededed);strokeColor=light-dark(#af4646, #ededed);strokeWidth=2;" parent="ifLj0rHLDiwDutu8jd7p-263" vertex="1">
          <mxGeometry y="30" width="180" height="30" as="geometry" />
        </mxCell>
        <mxCell id="ifLj0rHLDiwDutu8jd7p-265" value="PK" style="shape=partialRectangle;connectable=0;top=0;left=0;bottom=0;right=0;fontStyle=1;overflow=hidden;whiteSpace=wrap;html=1;shadow=0;labelBackgroundColor=light-dark(#f9f6f6, #ededed);strokeColor=light-dark(#af4646, #ededed);strokeWidth=2;" parent="ifLj0rHLDiwDutu8jd7p-264" vertex="1">
          <mxGeometry width="30" height="30" as="geometry">
            <mxRectangle width="30" height="30" as="alternateBounds" />
          </mxGeometry>
        </mxCell>
        <mxCell id="ifLj0rHLDiwDutu8jd7p-266" value="id" style="shape=partialRectangle;connectable=0;top=0;left=0;bottom=0;right=0;align=left;spacingLeft=6;fontStyle=5;overflow=hidden;whiteSpace=wrap;html=1;shadow=0;labelBackgroundColor=light-dark(#f9f6f6, #ededed);strokeColor=light-dark(#af4646, #ededed);strokeWidth=2;" parent="ifLj0rHLDiwDutu8jd7p-264" vertex="1">
          <mxGeometry x="30" width="150" height="30" as="geometry">
            <mxRectangle width="150" height="30" as="alternateBounds" />
          </mxGeometry>
        </mxCell>
        <mxCell id="ifLj0rHLDiwDutu8jd7p-267" value="" style="shape=tableRow;horizontal=0;startSize=0;swimlaneHead=0;swimlaneBody=0;collapsible=0;dropTarget=0;points=[[0,0.5],[1,0.5]];portConstraint=eastwest;top=0;left=0;right=0;bottom=0;shadow=0;whiteSpace=wrap;labelBackgroundColor=light-dark(#f9f6f6, #ededed);strokeColor=light-dark(#af4646, #ededed);strokeWidth=2;" parent="ifLj0rHLDiwDutu8jd7p-263" vertex="1">
          <mxGeometry y="60" width="180" height="30" as="geometry" />
        </mxCell>
        <mxCell id="ifLj0rHLDiwDutu8jd7p-268" value="" style="shape=partialRectangle;connectable=0;top=0;left=0;bottom=0;right=0;editable=1;overflow=hidden;whiteSpace=wrap;html=1;shadow=0;labelBackgroundColor=light-dark(#f9f6f6, #ededed);strokeColor=light-dark(#af4646, #ededed);strokeWidth=2;" parent="ifLj0rHLDiwDutu8jd7p-267" vertex="1">
          <mxGeometry width="30" height="30" as="geometry">
            <mxRectangle width="30" height="30" as="alternateBounds" />
          </mxGeometry>
        </mxCell>
        <mxCell id="ifLj0rHLDiwDutu8jd7p-269" value="uuid" style="shape=partialRectangle;connectable=0;top=0;left=0;bottom=0;right=0;align=left;spacingLeft=6;overflow=hidden;whiteSpace=wrap;html=1;shadow=0;labelBackgroundColor=light-dark(#f9f6f6, #ededed);strokeColor=light-dark(#af4646, #ededed);strokeWidth=2;" parent="ifLj0rHLDiwDutu8jd7p-267" vertex="1">
          <mxGeometry x="30" width="150" height="30" as="geometry">
            <mxRectangle width="150" height="30" as="alternateBounds" />
          </mxGeometry>
        </mxCell>
        <mxCell id="ifLj0rHLDiwDutu8jd7p-270" value="" style="shape=tableRow;horizontal=0;startSize=0;swimlaneHead=0;swimlaneBody=0;collapsible=0;dropTarget=0;points=[[0,0.5],[1,0.5]];portConstraint=eastwest;top=0;left=0;right=0;bottom=0;shadow=0;whiteSpace=wrap;labelBackgroundColor=light-dark(#f9f6f6, #ededed);strokeColor=light-dark(#af4646, #ededed);strokeWidth=2;" parent="ifLj0rHLDiwDutu8jd7p-263" vertex="1">
          <mxGeometry y="90" width="180" height="30" as="geometry" />
        </mxCell>
        <mxCell id="ifLj0rHLDiwDutu8jd7p-271" value="" style="shape=partialRectangle;connectable=0;top=0;left=0;bottom=0;right=0;editable=1;overflow=hidden;whiteSpace=wrap;html=1;shadow=0;labelBackgroundColor=light-dark(#f9f6f6, #ededed);strokeColor=light-dark(#af4646, #ededed);strokeWidth=2;" parent="ifLj0rHLDiwDutu8jd7p-270" vertex="1">
          <mxGeometry width="30" height="30" as="geometry">
            <mxRectangle width="30" height="30" as="alternateBounds" />
          </mxGeometry>
        </mxCell>
        <mxCell id="ifLj0rHLDiwDutu8jd7p-272" value="permit_attaction_site_id" style="shape=partialRectangle;connectable=0;top=0;left=0;bottom=0;right=0;align=left;spacingLeft=6;overflow=hidden;whiteSpace=wrap;html=1;shadow=0;labelBackgroundColor=light-dark(#f9f6f6, #ededed);strokeColor=light-dark(#af4646, #ededed);strokeWidth=2;" parent="ifLj0rHLDiwDutu8jd7p-270" vertex="1">
          <mxGeometry x="30" width="150" height="30" as="geometry">
            <mxRectangle width="150" height="30" as="alternateBounds" />
          </mxGeometry>
        </mxCell>
        <mxCell id="ifLj0rHLDiwDutu8jd7p-273" value="" style="shape=tableRow;horizontal=0;startSize=0;swimlaneHead=0;swimlaneBody=0;collapsible=0;dropTarget=0;points=[[0,0.5],[1,0.5]];portConstraint=eastwest;top=0;left=0;right=0;bottom=0;shadow=0;whiteSpace=wrap;labelBackgroundColor=light-dark(#f9f6f6, #ededed);strokeColor=light-dark(#af4646, #ededed);strokeWidth=2;" parent="ifLj0rHLDiwDutu8jd7p-263" vertex="1">
          <mxGeometry y="120" width="180" height="30" as="geometry" />
        </mxCell>
        <mxCell id="ifLj0rHLDiwDutu8jd7p-274" value="" style="shape=partialRectangle;connectable=0;top=0;left=0;bottom=0;right=0;editable=1;overflow=hidden;whiteSpace=wrap;html=1;shadow=0;labelBackgroundColor=light-dark(#f9f6f6, #ededed);strokeColor=light-dark(#af4646, #ededed);strokeWidth=2;" parent="ifLj0rHLDiwDutu8jd7p-273" vertex="1">
          <mxGeometry width="30" height="30" as="geometry">
            <mxRectangle width="30" height="30" as="alternateBounds" />
          </mxGeometry>
        </mxCell>
        <mxCell id="ifLj0rHLDiwDutu8jd7p-275" value="control_number" style="shape=partialRectangle;connectable=0;top=0;left=0;bottom=0;right=0;align=left;spacingLeft=6;overflow=hidden;whiteSpace=wrap;html=1;shadow=0;labelBackgroundColor=light-dark(#f9f6f6, #ededed);strokeColor=light-dark(#af4646, #ededed);strokeWidth=2;" parent="ifLj0rHLDiwDutu8jd7p-273" vertex="1">
          <mxGeometry x="30" width="150" height="30" as="geometry">
            <mxRectangle width="150" height="30" as="alternateBounds" />
          </mxGeometry>
        </mxCell>
        <mxCell id="ifLj0rHLDiwDutu8jd7p-276" value="" style="shape=tableRow;horizontal=0;startSize=0;swimlaneHead=0;swimlaneBody=0;collapsible=0;dropTarget=0;points=[[0,0.5],[1,0.5]];portConstraint=eastwest;top=0;left=0;right=0;bottom=0;shadow=0;whiteSpace=wrap;labelBackgroundColor=light-dark(#f9f6f6, #ededed);strokeColor=light-dark(#af4646, #ededed);strokeWidth=2;" parent="ifLj0rHLDiwDutu8jd7p-263" vertex="1">
          <mxGeometry y="150" width="180" height="30" as="geometry" />
        </mxCell>
        <mxCell id="ifLj0rHLDiwDutu8jd7p-277" value="" style="shape=partialRectangle;connectable=0;top=0;left=0;bottom=0;right=0;editable=1;overflow=hidden;whiteSpace=wrap;html=1;shadow=0;labelBackgroundColor=light-dark(#f9f6f6, #ededed);strokeColor=light-dark(#af4646, #ededed);strokeWidth=2;" parent="ifLj0rHLDiwDutu8jd7p-276" vertex="1">
          <mxGeometry width="30" height="30" as="geometry">
            <mxRectangle width="30" height="30" as="alternateBounds" />
          </mxGeometry>
        </mxCell>
        <mxCell id="ifLj0rHLDiwDutu8jd7p-278" value="amount" style="shape=partialRectangle;connectable=0;top=0;left=0;bottom=0;right=0;align=left;spacingLeft=6;overflow=hidden;whiteSpace=wrap;html=1;shadow=0;labelBackgroundColor=light-dark(#f9f6f6, #ededed);strokeColor=light-dark(#af4646, #ededed);strokeWidth=2;" parent="ifLj0rHLDiwDutu8jd7p-276" vertex="1">
          <mxGeometry x="30" width="150" height="30" as="geometry">
            <mxRectangle width="150" height="30" as="alternateBounds" />
          </mxGeometry>
        </mxCell>
        <mxCell id="ifLj0rHLDiwDutu8jd7p-279" value="" style="shape=tableRow;horizontal=0;startSize=0;swimlaneHead=0;swimlaneBody=0;collapsible=0;dropTarget=0;points=[[0,0.5],[1,0.5]];portConstraint=eastwest;top=0;left=0;right=0;bottom=0;shadow=0;whiteSpace=wrap;labelBackgroundColor=light-dark(#f9f6f6, #ededed);strokeColor=light-dark(#af4646, #ededed);strokeWidth=2;" parent="ifLj0rHLDiwDutu8jd7p-263" vertex="1">
          <mxGeometry y="180" width="180" height="30" as="geometry" />
        </mxCell>
        <mxCell id="ifLj0rHLDiwDutu8jd7p-280" value="" style="shape=partialRectangle;connectable=0;top=0;left=0;bottom=0;right=0;editable=1;overflow=hidden;whiteSpace=wrap;html=1;shadow=0;labelBackgroundColor=light-dark(#f9f6f6, #ededed);strokeColor=light-dark(#af4646, #ededed);strokeWidth=2;" parent="ifLj0rHLDiwDutu8jd7p-279" vertex="1">
          <mxGeometry width="30" height="30" as="geometry">
            <mxRectangle width="30" height="30" as="alternateBounds" />
          </mxGeometry>
        </mxCell>
        <mxCell id="ifLj0rHLDiwDutu8jd7p-281" value="balance" style="shape=partialRectangle;connectable=0;top=0;left=0;bottom=0;right=0;align=left;spacingLeft=6;overflow=hidden;whiteSpace=wrap;html=1;shadow=0;labelBackgroundColor=light-dark(#f9f6f6, #ededed);strokeColor=light-dark(#af4646, #ededed);strokeWidth=2;" parent="ifLj0rHLDiwDutu8jd7p-279" vertex="1">
          <mxGeometry x="30" width="150" height="30" as="geometry">
            <mxRectangle width="150" height="30" as="alternateBounds" />
          </mxGeometry>
        </mxCell>
        <mxCell id="ifLj0rHLDiwDutu8jd7p-282" value="" style="shape=tableRow;horizontal=0;startSize=0;swimlaneHead=0;swimlaneBody=0;collapsible=0;dropTarget=0;points=[[0,0.5],[1,0.5]];portConstraint=eastwest;top=0;left=0;right=0;bottom=0;shadow=0;whiteSpace=wrap;labelBackgroundColor=light-dark(#f9f6f6, #ededed);strokeColor=light-dark(#af4646, #ededed);strokeWidth=2;" parent="ifLj0rHLDiwDutu8jd7p-263" vertex="1">
          <mxGeometry y="210" width="180" height="30" as="geometry" />
        </mxCell>
        <mxCell id="ifLj0rHLDiwDutu8jd7p-283" value="" style="shape=partialRectangle;connectable=0;top=0;left=0;bottom=0;right=0;editable=1;overflow=hidden;whiteSpace=wrap;html=1;shadow=0;labelBackgroundColor=light-dark(#f9f6f6, #ededed);strokeColor=light-dark(#af4646, #ededed);strokeWidth=2;" parent="ifLj0rHLDiwDutu8jd7p-282" vertex="1">
          <mxGeometry width="30" height="30" as="geometry">
            <mxRectangle width="30" height="30" as="alternateBounds" />
          </mxGeometry>
        </mxCell>
        <mxCell id="ifLj0rHLDiwDutu8jd7p-284" value="currency_id" style="shape=partialRectangle;connectable=0;top=0;left=0;bottom=0;right=0;align=left;spacingLeft=6;overflow=hidden;whiteSpace=wrap;html=1;shadow=0;labelBackgroundColor=light-dark(#f9f6f6, #ededed);strokeColor=light-dark(#af4646, #ededed);strokeWidth=2;" parent="ifLj0rHLDiwDutu8jd7p-282" vertex="1">
          <mxGeometry x="30" width="150" height="30" as="geometry">
            <mxRectangle width="150" height="30" as="alternateBounds" />
          </mxGeometry>
        </mxCell>
        <mxCell id="ifLj0rHLDiwDutu8jd7p-285" value="" style="shape=tableRow;horizontal=0;startSize=0;swimlaneHead=0;swimlaneBody=0;collapsible=0;dropTarget=0;points=[[0,0.5],[1,0.5]];portConstraint=eastwest;top=0;left=0;right=0;bottom=0;shadow=0;whiteSpace=wrap;labelBackgroundColor=light-dark(#f9f6f6, #ededed);strokeColor=light-dark(#af4646, #ededed);strokeWidth=2;" parent="ifLj0rHLDiwDutu8jd7p-263" vertex="1">
          <mxGeometry y="240" width="180" height="30" as="geometry" />
        </mxCell>
        <mxCell id="ifLj0rHLDiwDutu8jd7p-286" value="" style="shape=partialRectangle;connectable=0;top=0;left=0;bottom=0;right=0;editable=1;overflow=hidden;whiteSpace=wrap;html=1;shadow=0;labelBackgroundColor=light-dark(#f9f6f6, #ededed);strokeColor=light-dark(#af4646, #ededed);strokeWidth=2;" parent="ifLj0rHLDiwDutu8jd7p-285" vertex="1">
          <mxGeometry width="30" height="30" as="geometry">
            <mxRectangle width="30" height="30" as="alternateBounds" />
          </mxGeometry>
        </mxCell>
        <mxCell id="ifLj0rHLDiwDutu8jd7p-287" value="approval_status" style="shape=partialRectangle;connectable=0;top=0;left=0;bottom=0;right=0;align=left;spacingLeft=6;overflow=hidden;whiteSpace=wrap;html=1;shadow=0;labelBackgroundColor=light-dark(#f9f6f6, #ededed);strokeColor=light-dark(#af4646, #ededed);strokeWidth=2;" parent="ifLj0rHLDiwDutu8jd7p-285" vertex="1">
          <mxGeometry x="30" width="150" height="30" as="geometry">
            <mxRectangle width="150" height="30" as="alternateBounds" />
          </mxGeometry>
        </mxCell>
        <mxCell id="ifLj0rHLDiwDutu8jd7p-288" value="" style="edgeStyle=orthogonalEdgeStyle;fontSize=12;html=1;endArrow=ERzeroToMany;endFill=1;rounded=0;exitX=1.006;exitY=-0.067;exitDx=0;exitDy=0;exitPerimeter=0;shadow=0;labelBackgroundColor=light-dark(#f9f6f6, #ededed);strokeColor=light-dark(#af4646, #ededed);strokeWidth=2;" parent="1" source="ifLj0rHLDiwDutu8jd7p-4" target="ifLj0rHLDiwDutu8jd7p-23" edge="1">
          <mxGeometry width="100" height="100" relative="1" as="geometry">
            <mxPoint x="340" y="-70" as="sourcePoint" />
            <mxPoint x="440" y="-170" as="targetPoint" />
          </mxGeometry>
        </mxCell>
        <mxCell id="ifLj0rHLDiwDutu8jd7p-289" value="" style="edgeStyle=orthogonalEdgeStyle;fontSize=12;html=1;endArrow=ERoneToMany;rounded=0;exitX=1;exitY=0.5;exitDx=0;exitDy=0;entryX=0;entryY=0.5;entryDx=0;entryDy=0;shadow=0;labelBackgroundColor=light-dark(#f9f6f6, #ededed);strokeColor=light-dark(#af4646, #ededed);strokeWidth=2;" parent="1" source="ifLj0rHLDiwDutu8jd7p-17" target="ifLj0rHLDiwDutu8jd7p-94" edge="1">
          <mxGeometry width="100" height="100" relative="1" as="geometry">
            <mxPoint x="650" y="-70" as="sourcePoint" />
            <mxPoint x="800" y="-5" as="targetPoint" />
          </mxGeometry>
        </mxCell>
        <mxCell id="ifLj0rHLDiwDutu8jd7p-290" value="" style="edgeStyle=elbowEdgeStyle;fontSize=12;html=1;endArrow=ERoneToMany;rounded=0;entryX=-0.017;entryY=0.3;entryDx=0;entryDy=0;entryPerimeter=0;exitX=0.022;exitY=0.267;exitDx=0;exitDy=0;exitPerimeter=0;shadow=0;labelBackgroundColor=light-dark(#f9f6f6, #ededed);strokeColor=light-dark(#af4646, #ededed);strokeWidth=2;" parent="1" source="ifLj0rHLDiwDutu8jd7p-17" target="ifLj0rHLDiwDutu8jd7p-185" edge="1">
          <mxGeometry width="100" height="100" relative="1" as="geometry">
            <mxPoint x="350" y="350" as="sourcePoint" />
            <mxPoint x="450" y="250" as="targetPoint" />
            <Array as="points">
              <mxPoint x="430" y="200" />
            </Array>
          </mxGeometry>
        </mxCell>
        <mxCell id="ifLj0rHLDiwDutu8jd7p-291" value="" style="edgeStyle=elbowEdgeStyle;fontSize=12;html=1;endArrow=ERoneToMany;rounded=0;exitX=0.978;exitY=0.733;exitDx=0;exitDy=0;exitPerimeter=0;shadow=0;labelBackgroundColor=light-dark(#f9f6f6, #ededed);strokeColor=light-dark(#af4646, #ededed);strokeWidth=2;" parent="1" source="ifLj0rHLDiwDutu8jd7p-179" edge="1">
          <mxGeometry width="100" height="100" relative="1" as="geometry">
            <mxPoint x="640" y="430" as="sourcePoint" />
            <mxPoint x="750" y="480" as="targetPoint" />
          </mxGeometry>
        </mxCell>
        <mxCell id="ifLj0rHLDiwDutu8jd7p-292" value="" style="edgeStyle=elbowEdgeStyle;fontSize=12;html=1;endArrow=ERoneToMany;rounded=0;exitX=0.011;exitY=0.3;exitDx=0;exitDy=0;exitPerimeter=0;shadow=0;labelBackgroundColor=light-dark(#f9f6f6, #ededed);strokeColor=light-dark(#af4646, #ededed);strokeWidth=2;" parent="1" source="ifLj0rHLDiwDutu8jd7p-141" edge="1">
          <mxGeometry width="100" height="100" relative="1" as="geometry">
            <mxPoint x="910" y="360" as="sourcePoint" />
            <mxPoint x="930" y="510" as="targetPoint" />
          </mxGeometry>
        </mxCell>
        <mxCell id="ifLj0rHLDiwDutu8jd7p-293" value="" style="edgeStyle=elbowEdgeStyle;fontSize=12;html=1;endArrow=ERmandOne;startArrow=ERmandOne;rounded=0;exitX=1;exitY=0.5;exitDx=0;exitDy=0;shadow=0;labelBackgroundColor=light-dark(#f9f6f6, #ededed);strokeColor=light-dark(#af4646, #ededed);strokeWidth=2;" parent="1" source="ifLj0rHLDiwDutu8jd7p-17" edge="1">
          <mxGeometry width="100" height="100" relative="1" as="geometry">
            <mxPoint x="640" y="240" as="sourcePoint" />
            <mxPoint x="740" y="140" as="targetPoint" />
          </mxGeometry>
        </mxCell>
        <mxCell id="ifLj0rHLDiwDutu8jd7p-294" value="" style="edgeStyle=elbowEdgeStyle;fontSize=12;html=1;endArrow=ERoneToMany;rounded=0;exitX=0.05;exitY=0.667;exitDx=0;exitDy=0;exitPerimeter=0;shadow=0;labelBackgroundColor=light-dark(#f9f6f6, #ededed);strokeColor=light-dark(#af4646, #ededed);strokeWidth=2;" parent="1" source="ifLj0rHLDiwDutu8jd7p-17" target="ifLj0rHLDiwDutu8jd7p-242" edge="1">
          <mxGeometry width="100" height="100" relative="1" as="geometry">
            <mxPoint x="320" y="760" as="sourcePoint" />
            <mxPoint x="412" y="670" as="targetPoint" />
            <Array as="points">
              <mxPoint x="450" y="340" />
            </Array>
          </mxGeometry>
        </mxCell>
        <mxCell id="ifLj0rHLDiwDutu8jd7p-295" value="" style="edgeStyle=elbowEdgeStyle;fontSize=12;html=1;endArrow=ERoneToMany;rounded=0;exitX=0;exitY=0.5;exitDx=0;exitDy=0;shadow=0;labelBackgroundColor=light-dark(#f9f6f6, #ededed);strokeColor=light-dark(#af4646, #ededed);strokeWidth=2;" parent="1" source="ifLj0rHLDiwDutu8jd7p-141" target="ifLj0rHLDiwDutu8jd7p-248" edge="1">
          <mxGeometry width="100" height="100" relative="1" as="geometry">
            <mxPoint x="510" y="830" as="sourcePoint" />
            <mxPoint x="610" y="730" as="targetPoint" />
            <Array as="points">
              <mxPoint x="980" y="640" />
            </Array>
          </mxGeometry>
        </mxCell>
        <mxCell id="ifLj0rHLDiwDutu8jd7p-296" value="" style="edgeStyle=elbowEdgeStyle;fontSize=12;html=1;endArrow=ERoneToMany;rounded=0;exitX=1;exitY=0.5;exitDx=0;exitDy=0;entryX=1;entryY=0.5;entryDx=0;entryDy=0;shadow=0;labelBackgroundColor=light-dark(#f9f6f6, #ededed);strokeColor=light-dark(#af4646, #ededed);strokeWidth=2;" parent="1" source="ifLj0rHLDiwDutu8jd7p-4" target="ifLj0rHLDiwDutu8jd7p-69" edge="1">
          <mxGeometry width="100" height="100" relative="1" as="geometry">
            <mxPoint x="240" y="430" as="sourcePoint" />
            <mxPoint x="340" y="330" as="targetPoint" />
            <Array as="points">
              <mxPoint x="380" y="140" />
            </Array>
          </mxGeometry>
        </mxCell>
        <mxCell id="WMPpJEY-YGb8HN8OjGhZ-1" value="permit_inspections" style="shape=table;startSize=30;container=1;collapsible=1;childLayout=tableLayout;fixedRows=1;rowLines=0;fontStyle=1;align=center;resizeLast=1;html=1;shadow=0;whiteSpace=wrap;labelBackgroundColor=light-dark(#f9f6f6, #ededed);swimlaneFillColor=none;strokeColor=light-dark(#af4646, #ededed);gradientColor=none;noLabel=0;strokeWidth=2;" parent="1" vertex="1">
          <mxGeometry x="170" y="490" width="180" height="300" as="geometry" />
        </mxCell>
        <mxCell id="WMPpJEY-YGb8HN8OjGhZ-2" value="" style="shape=tableRow;horizontal=0;startSize=0;swimlaneHead=0;swimlaneBody=0;collapsible=0;dropTarget=0;points=[[0,0.5],[1,0.5]];portConstraint=eastwest;top=0;left=0;right=0;bottom=1;shadow=0;whiteSpace=wrap;labelBackgroundColor=light-dark(#f9f6f6, #ededed);strokeColor=light-dark(#af4646, #ededed);strokeWidth=2;" parent="WMPpJEY-YGb8HN8OjGhZ-1" vertex="1">
          <mxGeometry y="30" width="180" height="30" as="geometry" />
        </mxCell>
        <mxCell id="WMPpJEY-YGb8HN8OjGhZ-3" value="PK" style="shape=partialRectangle;connectable=0;top=0;left=0;bottom=0;right=0;fontStyle=1;overflow=hidden;whiteSpace=wrap;html=1;shadow=0;labelBackgroundColor=light-dark(#f9f6f6, #ededed);strokeColor=light-dark(#af4646, #ededed);strokeWidth=2;" parent="WMPpJEY-YGb8HN8OjGhZ-2" vertex="1">
          <mxGeometry width="30" height="30" as="geometry">
            <mxRectangle width="30" height="30" as="alternateBounds" />
          </mxGeometry>
        </mxCell>
        <mxCell id="WMPpJEY-YGb8HN8OjGhZ-4" value="id" style="shape=partialRectangle;connectable=0;top=0;left=0;bottom=0;right=0;align=left;spacingLeft=6;fontStyle=5;overflow=hidden;whiteSpace=wrap;html=1;shadow=0;labelBackgroundColor=light-dark(#f9f6f6, #ededed);strokeColor=light-dark(#af4646, #ededed);strokeWidth=2;" parent="WMPpJEY-YGb8HN8OjGhZ-2" vertex="1">
          <mxGeometry x="30" width="150" height="30" as="geometry">
            <mxRectangle width="150" height="30" as="alternateBounds" />
          </mxGeometry>
        </mxCell>
        <mxCell id="WMPpJEY-YGb8HN8OjGhZ-5" value="" style="shape=tableRow;horizontal=0;startSize=0;swimlaneHead=0;swimlaneBody=0;collapsible=0;dropTarget=0;points=[[0,0.5],[1,0.5]];portConstraint=eastwest;top=0;left=0;right=0;bottom=0;shadow=0;whiteSpace=wrap;labelBackgroundColor=light-dark(#f9f6f6, #ededed);strokeColor=light-dark(#af4646, #ededed);strokeWidth=2;" parent="WMPpJEY-YGb8HN8OjGhZ-1" vertex="1">
          <mxGeometry y="60" width="180" height="30" as="geometry" />
        </mxCell>
        <mxCell id="WMPpJEY-YGb8HN8OjGhZ-6" value="" style="shape=partialRectangle;connectable=0;top=0;left=0;bottom=0;right=0;editable=1;overflow=hidden;whiteSpace=wrap;html=1;shadow=0;labelBackgroundColor=light-dark(#f9f6f6, #ededed);strokeColor=light-dark(#af4646, #ededed);strokeWidth=2;" parent="WMPpJEY-YGb8HN8OjGhZ-5" vertex="1">
          <mxGeometry width="30" height="30" as="geometry">
            <mxRectangle width="30" height="30" as="alternateBounds" />
          </mxGeometry>
        </mxCell>
        <mxCell id="WMPpJEY-YGb8HN8OjGhZ-7" value="uuid" style="shape=partialRectangle;connectable=0;top=0;left=0;bottom=0;right=0;align=left;spacingLeft=6;overflow=hidden;whiteSpace=wrap;html=1;shadow=0;labelBackgroundColor=light-dark(#f9f6f6, #ededed);strokeColor=light-dark(#af4646, #ededed);strokeWidth=2;" parent="WMPpJEY-YGb8HN8OjGhZ-5" vertex="1">
          <mxGeometry x="30" width="150" height="30" as="geometry">
            <mxRectangle width="150" height="30" as="alternateBounds" />
          </mxGeometry>
        </mxCell>
        <mxCell id="WMPpJEY-YGb8HN8OjGhZ-8" value="" style="shape=tableRow;horizontal=0;startSize=0;swimlaneHead=0;swimlaneBody=0;collapsible=0;dropTarget=0;points=[[0,0.5],[1,0.5]];portConstraint=eastwest;top=0;left=0;right=0;bottom=0;shadow=0;whiteSpace=wrap;labelBackgroundColor=light-dark(#f9f6f6, #ededed);strokeColor=light-dark(#af4646, #ededed);strokeWidth=2;" parent="WMPpJEY-YGb8HN8OjGhZ-1" vertex="1">
          <mxGeometry y="90" width="180" height="30" as="geometry" />
        </mxCell>
        <mxCell id="WMPpJEY-YGb8HN8OjGhZ-9" value="" style="shape=partialRectangle;connectable=0;top=0;left=0;bottom=0;right=0;editable=1;overflow=hidden;whiteSpace=wrap;html=1;shadow=0;labelBackgroundColor=light-dark(#f9f6f6, #ededed);strokeColor=light-dark(#af4646, #ededed);strokeWidth=2;" parent="WMPpJEY-YGb8HN8OjGhZ-8" vertex="1">
          <mxGeometry width="30" height="30" as="geometry">
            <mxRectangle width="30" height="30" as="alternateBounds" />
          </mxGeometry>
        </mxCell>
        <mxCell id="WMPpJEY-YGb8HN8OjGhZ-10" value="permit_attraction_site_id" style="shape=partialRectangle;connectable=0;top=0;left=0;bottom=0;right=0;align=left;spacingLeft=6;overflow=hidden;whiteSpace=wrap;html=1;shadow=0;labelBackgroundColor=light-dark(#f9f6f6, #ededed);strokeColor=light-dark(#af4646, #ededed);strokeWidth=2;" parent="WMPpJEY-YGb8HN8OjGhZ-8" vertex="1">
          <mxGeometry x="30" width="150" height="30" as="geometry">
            <mxRectangle width="150" height="30" as="alternateBounds" />
          </mxGeometry>
        </mxCell>
        <mxCell id="WMPpJEY-YGb8HN8OjGhZ-11" value="" style="shape=tableRow;horizontal=0;startSize=0;swimlaneHead=0;swimlaneBody=0;collapsible=0;dropTarget=0;points=[[0,0.5],[1,0.5]];portConstraint=eastwest;top=0;left=0;right=0;bottom=0;shadow=0;whiteSpace=wrap;labelBackgroundColor=light-dark(#f9f6f6, #ededed);strokeColor=light-dark(#af4646, #ededed);strokeWidth=2;" parent="WMPpJEY-YGb8HN8OjGhZ-1" vertex="1">
          <mxGeometry y="120" width="180" height="30" as="geometry" />
        </mxCell>
        <mxCell id="WMPpJEY-YGb8HN8OjGhZ-12" value="" style="shape=partialRectangle;connectable=0;top=0;left=0;bottom=0;right=0;editable=1;overflow=hidden;whiteSpace=wrap;html=1;shadow=0;labelBackgroundColor=light-dark(#f9f6f6, #ededed);strokeColor=light-dark(#af4646, #ededed);strokeWidth=2;" parent="WMPpJEY-YGb8HN8OjGhZ-11" vertex="1">
          <mxGeometry width="30" height="30" as="geometry">
            <mxRectangle width="30" height="30" as="alternateBounds" />
          </mxGeometry>
        </mxCell>
        <mxCell id="WMPpJEY-YGb8HN8OjGhZ-13" value="inpected_by" style="shape=partialRectangle;connectable=0;top=0;left=0;bottom=0;right=0;align=left;spacingLeft=6;overflow=hidden;whiteSpace=wrap;html=1;shadow=0;labelBackgroundColor=light-dark(#f9f6f6, #ededed);strokeColor=light-dark(#af4646, #ededed);strokeWidth=2;" parent="WMPpJEY-YGb8HN8OjGhZ-11" vertex="1">
          <mxGeometry x="30" width="150" height="30" as="geometry">
            <mxRectangle width="150" height="30" as="alternateBounds" />
          </mxGeometry>
        </mxCell>
        <mxCell id="WMPpJEY-YGb8HN8OjGhZ-14" value="" style="shape=tableRow;horizontal=0;startSize=0;swimlaneHead=0;swimlaneBody=0;collapsible=0;dropTarget=0;points=[[0,0.5],[1,0.5]];portConstraint=eastwest;top=0;left=0;right=0;bottom=0;shadow=0;whiteSpace=wrap;labelBackgroundColor=light-dark(#f9f6f6, #ededed);strokeColor=light-dark(#af4646, #ededed);strokeWidth=2;" parent="WMPpJEY-YGb8HN8OjGhZ-1" vertex="1">
          <mxGeometry y="150" width="180" height="30" as="geometry" />
        </mxCell>
        <mxCell id="WMPpJEY-YGb8HN8OjGhZ-15" value="" style="shape=partialRectangle;connectable=0;top=0;left=0;bottom=0;right=0;editable=1;overflow=hidden;whiteSpace=wrap;html=1;shadow=0;labelBackgroundColor=light-dark(#f9f6f6, #ededed);strokeColor=light-dark(#af4646, #ededed);strokeWidth=2;" parent="WMPpJEY-YGb8HN8OjGhZ-14" vertex="1">
          <mxGeometry width="30" height="30" as="geometry">
            <mxRectangle width="30" height="30" as="alternateBounds" />
          </mxGeometry>
        </mxCell>
        <mxCell id="WMPpJEY-YGb8HN8OjGhZ-16" value="station_id" style="shape=partialRectangle;connectable=0;top=0;left=0;bottom=0;right=0;align=left;spacingLeft=6;overflow=hidden;whiteSpace=wrap;html=1;shadow=0;labelBackgroundColor=light-dark(#f9f6f6, #ededed);strokeColor=light-dark(#af4646, #ededed);strokeWidth=2;" parent="WMPpJEY-YGb8HN8OjGhZ-14" vertex="1">
          <mxGeometry x="30" width="150" height="30" as="geometry">
            <mxRectangle width="150" height="30" as="alternateBounds" />
          </mxGeometry>
        </mxCell>
        <mxCell id="WMPpJEY-YGb8HN8OjGhZ-17" value="" style="shape=tableRow;horizontal=0;startSize=0;swimlaneHead=0;swimlaneBody=0;collapsible=0;dropTarget=0;points=[[0,0.5],[1,0.5]];portConstraint=eastwest;top=0;left=0;right=0;bottom=0;shadow=0;whiteSpace=wrap;labelBackgroundColor=light-dark(#f9f6f6, #ededed);strokeColor=light-dark(#af4646, #ededed);strokeWidth=2;" parent="WMPpJEY-YGb8HN8OjGhZ-1" vertex="1">
          <mxGeometry y="180" width="180" height="30" as="geometry" />
        </mxCell>
        <mxCell id="WMPpJEY-YGb8HN8OjGhZ-18" value="" style="shape=partialRectangle;connectable=0;top=0;left=0;bottom=0;right=0;editable=1;overflow=hidden;whiteSpace=wrap;html=1;shadow=0;labelBackgroundColor=light-dark(#f9f6f6, #ededed);strokeColor=light-dark(#af4646, #ededed);strokeWidth=2;" parent="WMPpJEY-YGb8HN8OjGhZ-17" vertex="1">
          <mxGeometry width="30" height="30" as="geometry">
            <mxRectangle width="30" height="30" as="alternateBounds" />
          </mxGeometry>
        </mxCell>
        <mxCell id="WMPpJEY-YGb8HN8OjGhZ-19" value="inspection_type" style="shape=partialRectangle;connectable=0;top=0;left=0;bottom=0;right=0;align=left;spacingLeft=6;overflow=hidden;whiteSpace=wrap;html=1;shadow=0;labelBackgroundColor=light-dark(#f9f6f6, #ededed);strokeColor=light-dark(#af4646, #ededed);strokeWidth=2;" parent="WMPpJEY-YGb8HN8OjGhZ-17" vertex="1">
          <mxGeometry x="30" width="150" height="30" as="geometry">
            <mxRectangle width="150" height="30" as="alternateBounds" />
          </mxGeometry>
        </mxCell>
        <mxCell id="WMPpJEY-YGb8HN8OjGhZ-20" value="" style="shape=tableRow;horizontal=0;startSize=0;swimlaneHead=0;swimlaneBody=0;collapsible=0;dropTarget=0;points=[[0,0.5],[1,0.5]];portConstraint=eastwest;top=0;left=0;right=0;bottom=0;shadow=0;whiteSpace=wrap;labelBackgroundColor=light-dark(#f9f6f6, #ededed);strokeColor=light-dark(#af4646, #ededed);strokeWidth=2;" parent="WMPpJEY-YGb8HN8OjGhZ-1" vertex="1">
          <mxGeometry y="210" width="180" height="30" as="geometry" />
        </mxCell>
        <mxCell id="WMPpJEY-YGb8HN8OjGhZ-21" value="" style="shape=partialRectangle;connectable=0;top=0;left=0;bottom=0;right=0;editable=1;overflow=hidden;whiteSpace=wrap;html=1;shadow=0;labelBackgroundColor=light-dark(#f9f6f6, #ededed);strokeColor=light-dark(#af4646, #ededed);strokeWidth=2;" parent="WMPpJEY-YGb8HN8OjGhZ-20" vertex="1">
          <mxGeometry width="30" height="30" as="geometry">
            <mxRectangle width="30" height="30" as="alternateBounds" />
          </mxGeometry>
        </mxCell>
        <mxCell id="WMPpJEY-YGb8HN8OjGhZ-22" value="inspected_at" style="shape=partialRectangle;connectable=0;top=0;left=0;bottom=0;right=0;align=left;spacingLeft=6;overflow=hidden;whiteSpace=wrap;html=1;shadow=0;labelBackgroundColor=light-dark(#f9f6f6, #ededed);strokeColor=light-dark(#af4646, #ededed);strokeWidth=2;" parent="WMPpJEY-YGb8HN8OjGhZ-20" vertex="1">
          <mxGeometry x="30" width="150" height="30" as="geometry">
            <mxRectangle width="150" height="30" as="alternateBounds" />
          </mxGeometry>
        </mxCell>
        <mxCell id="WMPpJEY-YGb8HN8OjGhZ-23" value="" style="shape=tableRow;horizontal=0;startSize=0;swimlaneHead=0;swimlaneBody=0;collapsible=0;dropTarget=0;points=[[0,0.5],[1,0.5]];portConstraint=eastwest;top=0;left=0;right=0;bottom=0;shadow=0;whiteSpace=wrap;labelBackgroundColor=light-dark(#f9f6f6, #ededed);strokeColor=light-dark(#af4646, #ededed);strokeWidth=2;" parent="WMPpJEY-YGb8HN8OjGhZ-1" vertex="1">
          <mxGeometry y="240" width="180" height="30" as="geometry" />
        </mxCell>
        <mxCell id="WMPpJEY-YGb8HN8OjGhZ-24" value="" style="shape=partialRectangle;connectable=0;top=0;left=0;bottom=0;right=0;editable=1;overflow=hidden;whiteSpace=wrap;html=1;shadow=0;labelBackgroundColor=light-dark(#f9f6f6, #ededed);strokeColor=light-dark(#af4646, #ededed);strokeWidth=2;" parent="WMPpJEY-YGb8HN8OjGhZ-23" vertex="1">
          <mxGeometry width="30" height="30" as="geometry">
            <mxRectangle width="30" height="30" as="alternateBounds" />
          </mxGeometry>
        </mxCell>
        <mxCell id="WMPpJEY-YGb8HN8OjGhZ-25" value="remarks" style="shape=partialRectangle;connectable=0;top=0;left=0;bottom=0;right=0;align=left;spacingLeft=6;overflow=hidden;whiteSpace=wrap;html=1;shadow=0;labelBackgroundColor=light-dark(#f9f6f6, #ededed);strokeColor=light-dark(#af4646, #ededed);strokeWidth=2;" parent="WMPpJEY-YGb8HN8OjGhZ-23" vertex="1">
          <mxGeometry x="30" width="150" height="30" as="geometry">
            <mxRectangle width="150" height="30" as="alternateBounds" />
          </mxGeometry>
        </mxCell>
        <mxCell id="WMPpJEY-YGb8HN8OjGhZ-26" value="" style="shape=tableRow;horizontal=0;startSize=0;swimlaneHead=0;swimlaneBody=0;collapsible=0;dropTarget=0;points=[[0,0.5],[1,0.5]];portConstraint=eastwest;top=0;left=0;right=0;bottom=0;shadow=0;whiteSpace=wrap;labelBackgroundColor=light-dark(#f9f6f6, #ededed);strokeColor=light-dark(#af4646, #ededed);strokeWidth=2;" parent="WMPpJEY-YGb8HN8OjGhZ-1" vertex="1">
          <mxGeometry y="270" width="180" height="30" as="geometry" />
        </mxCell>
        <mxCell id="WMPpJEY-YGb8HN8OjGhZ-27" value="" style="shape=partialRectangle;connectable=0;top=0;left=0;bottom=0;right=0;editable=1;overflow=hidden;whiteSpace=wrap;html=1;shadow=0;labelBackgroundColor=light-dark(#f9f6f6, #ededed);strokeColor=light-dark(#af4646, #ededed);strokeWidth=2;" parent="WMPpJEY-YGb8HN8OjGhZ-26" vertex="1">
          <mxGeometry width="30" height="30" as="geometry">
            <mxRectangle width="30" height="30" as="alternateBounds" />
          </mxGeometry>
        </mxCell>
        <mxCell id="WMPpJEY-YGb8HN8OjGhZ-28" value="status" style="shape=partialRectangle;connectable=0;top=0;left=0;bottom=0;right=0;align=left;spacingLeft=6;overflow=hidden;whiteSpace=wrap;html=1;shadow=0;labelBackgroundColor=light-dark(#f9f6f6, #ededed);strokeColor=light-dark(#af4646, #ededed);strokeWidth=2;" parent="WMPpJEY-YGb8HN8OjGhZ-26" vertex="1">
          <mxGeometry x="30" width="150" height="30" as="geometry">
            <mxRectangle width="150" height="30" as="alternateBounds" />
          </mxGeometry>
        </mxCell>
        <mxCell id="WMPpJEY-YGb8HN8OjGhZ-29" value="permit_penalties" style="shape=table;startSize=30;container=1;collapsible=1;childLayout=tableLayout;fixedRows=1;rowLines=0;fontStyle=1;align=center;resizeLast=1;html=1;shadow=0;whiteSpace=wrap;labelBackgroundColor=light-dark(#f9f6f6, #ededed);swimlaneFillColor=none;strokeColor=light-dark(#af4646, #ededed);gradientColor=none;noLabel=0;strokeWidth=2;" parent="1" vertex="1">
          <mxGeometry x="410" y="700" width="180" height="270" as="geometry" />
        </mxCell>
        <mxCell id="WMPpJEY-YGb8HN8OjGhZ-30" value="" style="shape=tableRow;horizontal=0;startSize=0;swimlaneHead=0;swimlaneBody=0;collapsible=0;dropTarget=0;points=[[0,0.5],[1,0.5]];portConstraint=eastwest;top=0;left=0;right=0;bottom=1;shadow=0;whiteSpace=wrap;labelBackgroundColor=light-dark(#f9f6f6, #ededed);strokeColor=light-dark(#af4646, #ededed);strokeWidth=2;" parent="WMPpJEY-YGb8HN8OjGhZ-29" vertex="1">
          <mxGeometry y="30" width="180" height="30" as="geometry" />
        </mxCell>
        <mxCell id="WMPpJEY-YGb8HN8OjGhZ-31" value="PK" style="shape=partialRectangle;connectable=0;top=0;left=0;bottom=0;right=0;fontStyle=1;overflow=hidden;whiteSpace=wrap;html=1;shadow=0;labelBackgroundColor=light-dark(#f9f6f6, #ededed);strokeColor=light-dark(#af4646, #ededed);strokeWidth=2;" parent="WMPpJEY-YGb8HN8OjGhZ-30" vertex="1">
          <mxGeometry width="30" height="30" as="geometry">
            <mxRectangle width="30" height="30" as="alternateBounds" />
          </mxGeometry>
        </mxCell>
        <mxCell id="WMPpJEY-YGb8HN8OjGhZ-32" value="id" style="shape=partialRectangle;connectable=0;top=0;left=0;bottom=0;right=0;align=left;spacingLeft=6;fontStyle=5;overflow=hidden;whiteSpace=wrap;html=1;shadow=0;labelBackgroundColor=light-dark(#f9f6f6, #ededed);strokeColor=light-dark(#af4646, #ededed);strokeWidth=2;" parent="WMPpJEY-YGb8HN8OjGhZ-30" vertex="1">
          <mxGeometry x="30" width="150" height="30" as="geometry">
            <mxRectangle width="150" height="30" as="alternateBounds" />
          </mxGeometry>
        </mxCell>
        <mxCell id="WMPpJEY-YGb8HN8OjGhZ-33" value="" style="shape=tableRow;horizontal=0;startSize=0;swimlaneHead=0;swimlaneBody=0;collapsible=0;dropTarget=0;points=[[0,0.5],[1,0.5]];portConstraint=eastwest;top=0;left=0;right=0;bottom=0;shadow=0;whiteSpace=wrap;labelBackgroundColor=light-dark(#f9f6f6, #ededed);strokeColor=light-dark(#af4646, #ededed);strokeWidth=2;" parent="WMPpJEY-YGb8HN8OjGhZ-29" vertex="1">
          <mxGeometry y="60" width="180" height="30" as="geometry" />
        </mxCell>
        <mxCell id="WMPpJEY-YGb8HN8OjGhZ-34" value="" style="shape=partialRectangle;connectable=0;top=0;left=0;bottom=0;right=0;editable=1;overflow=hidden;whiteSpace=wrap;html=1;shadow=0;labelBackgroundColor=light-dark(#f9f6f6, #ededed);strokeColor=light-dark(#af4646, #ededed);strokeWidth=2;" parent="WMPpJEY-YGb8HN8OjGhZ-33" vertex="1">
          <mxGeometry width="30" height="30" as="geometry">
            <mxRectangle width="30" height="30" as="alternateBounds" />
          </mxGeometry>
        </mxCell>
        <mxCell id="WMPpJEY-YGb8HN8OjGhZ-35" value="uuid" style="shape=partialRectangle;connectable=0;top=0;left=0;bottom=0;right=0;align=left;spacingLeft=6;overflow=hidden;whiteSpace=wrap;html=1;shadow=0;labelBackgroundColor=light-dark(#f9f6f6, #ededed);strokeColor=light-dark(#af4646, #ededed);strokeWidth=2;" parent="WMPpJEY-YGb8HN8OjGhZ-33" vertex="1">
          <mxGeometry x="30" width="150" height="30" as="geometry">
            <mxRectangle width="150" height="30" as="alternateBounds" />
          </mxGeometry>
        </mxCell>
        <mxCell id="WMPpJEY-YGb8HN8OjGhZ-36" value="" style="shape=tableRow;horizontal=0;startSize=0;swimlaneHead=0;swimlaneBody=0;collapsible=0;dropTarget=0;points=[[0,0.5],[1,0.5]];portConstraint=eastwest;top=0;left=0;right=0;bottom=0;shadow=0;whiteSpace=wrap;labelBackgroundColor=light-dark(#f9f6f6, #ededed);strokeColor=light-dark(#af4646, #ededed);strokeWidth=2;" parent="WMPpJEY-YGb8HN8OjGhZ-29" vertex="1">
          <mxGeometry y="90" width="180" height="30" as="geometry" />
        </mxCell>
        <mxCell id="WMPpJEY-YGb8HN8OjGhZ-37" value="" style="shape=partialRectangle;connectable=0;top=0;left=0;bottom=0;right=0;editable=1;overflow=hidden;whiteSpace=wrap;html=1;shadow=0;labelBackgroundColor=light-dark(#f9f6f6, #ededed);strokeColor=light-dark(#af4646, #ededed);strokeWidth=2;" parent="WMPpJEY-YGb8HN8OjGhZ-36" vertex="1">
          <mxGeometry width="30" height="30" as="geometry">
            <mxRectangle width="30" height="30" as="alternateBounds" />
          </mxGeometry>
        </mxCell>
        <mxCell id="WMPpJEY-YGb8HN8OjGhZ-38" value="permit_attaction_site_id" style="shape=partialRectangle;connectable=0;top=0;left=0;bottom=0;right=0;align=left;spacingLeft=6;overflow=hidden;whiteSpace=wrap;html=1;shadow=0;labelBackgroundColor=light-dark(#f9f6f6, #ededed);strokeColor=light-dark(#af4646, #ededed);strokeWidth=2;" parent="WMPpJEY-YGb8HN8OjGhZ-36" vertex="1">
          <mxGeometry x="30" width="150" height="30" as="geometry">
            <mxRectangle width="150" height="30" as="alternateBounds" />
          </mxGeometry>
        </mxCell>
        <mxCell id="WMPpJEY-YGb8HN8OjGhZ-39" value="" style="shape=tableRow;horizontal=0;startSize=0;swimlaneHead=0;swimlaneBody=0;collapsible=0;dropTarget=0;points=[[0,0.5],[1,0.5]];portConstraint=eastwest;top=0;left=0;right=0;bottom=0;shadow=0;whiteSpace=wrap;labelBackgroundColor=light-dark(#f9f6f6, #ededed);strokeColor=light-dark(#af4646, #ededed);strokeWidth=2;" parent="WMPpJEY-YGb8HN8OjGhZ-29" vertex="1">
          <mxGeometry y="120" width="180" height="30" as="geometry" />
        </mxCell>
        <mxCell id="WMPpJEY-YGb8HN8OjGhZ-40" value="" style="shape=partialRectangle;connectable=0;top=0;left=0;bottom=0;right=0;editable=1;overflow=hidden;whiteSpace=wrap;html=1;shadow=0;labelBackgroundColor=light-dark(#f9f6f6, #ededed);strokeColor=light-dark(#af4646, #ededed);strokeWidth=2;" parent="WMPpJEY-YGb8HN8OjGhZ-39" vertex="1">
          <mxGeometry width="30" height="30" as="geometry">
            <mxRectangle width="30" height="30" as="alternateBounds" />
          </mxGeometry>
        </mxCell>
        <mxCell id="WMPpJEY-YGb8HN8OjGhZ-41" value="fee_group_id" style="shape=partialRectangle;connectable=0;top=0;left=0;bottom=0;right=0;align=left;spacingLeft=6;overflow=hidden;whiteSpace=wrap;html=1;shadow=0;labelBackgroundColor=light-dark(#f9f6f6, #ededed);strokeColor=light-dark(#af4646, #ededed);strokeWidth=2;" parent="WMPpJEY-YGb8HN8OjGhZ-39" vertex="1">
          <mxGeometry x="30" width="150" height="30" as="geometry">
            <mxRectangle width="150" height="30" as="alternateBounds" />
          </mxGeometry>
        </mxCell>
        <mxCell id="WMPpJEY-YGb8HN8OjGhZ-42" value="" style="shape=tableRow;horizontal=0;startSize=0;swimlaneHead=0;swimlaneBody=0;collapsible=0;dropTarget=0;points=[[0,0.5],[1,0.5]];portConstraint=eastwest;top=0;left=0;right=0;bottom=0;shadow=0;whiteSpace=wrap;labelBackgroundColor=light-dark(#f9f6f6, #ededed);strokeColor=light-dark(#af4646, #ededed);strokeWidth=2;" parent="WMPpJEY-YGb8HN8OjGhZ-29" vertex="1">
          <mxGeometry y="150" width="180" height="30" as="geometry" />
        </mxCell>
        <mxCell id="WMPpJEY-YGb8HN8OjGhZ-43" value="" style="shape=partialRectangle;connectable=0;top=0;left=0;bottom=0;right=0;editable=1;overflow=hidden;whiteSpace=wrap;html=1;shadow=0;labelBackgroundColor=light-dark(#f9f6f6, #ededed);strokeColor=light-dark(#af4646, #ededed);strokeWidth=2;" parent="WMPpJEY-YGb8HN8OjGhZ-42" vertex="1">
          <mxGeometry width="30" height="30" as="geometry">
            <mxRectangle width="30" height="30" as="alternateBounds" />
          </mxGeometry>
        </mxCell>
        <mxCell id="WMPpJEY-YGb8HN8OjGhZ-44" value="description" style="shape=partialRectangle;connectable=0;top=0;left=0;bottom=0;right=0;align=left;spacingLeft=6;overflow=hidden;whiteSpace=wrap;html=1;shadow=0;labelBackgroundColor=light-dark(#f9f6f6, #ededed);strokeColor=light-dark(#af4646, #ededed);strokeWidth=2;" parent="WMPpJEY-YGb8HN8OjGhZ-42" vertex="1">
          <mxGeometry x="30" width="150" height="30" as="geometry">
            <mxRectangle width="150" height="30" as="alternateBounds" />
          </mxGeometry>
        </mxCell>
        <mxCell id="WMPpJEY-YGb8HN8OjGhZ-45" value="" style="shape=tableRow;horizontal=0;startSize=0;swimlaneHead=0;swimlaneBody=0;collapsible=0;dropTarget=0;points=[[0,0.5],[1,0.5]];portConstraint=eastwest;top=0;left=0;right=0;bottom=0;shadow=0;whiteSpace=wrap;labelBackgroundColor=light-dark(#f9f6f6, #ededed);strokeColor=light-dark(#af4646, #ededed);strokeWidth=2;" parent="WMPpJEY-YGb8HN8OjGhZ-29" vertex="1">
          <mxGeometry y="180" width="180" height="30" as="geometry" />
        </mxCell>
        <mxCell id="WMPpJEY-YGb8HN8OjGhZ-46" value="" style="shape=partialRectangle;connectable=0;top=0;left=0;bottom=0;right=0;editable=1;overflow=hidden;whiteSpace=wrap;html=1;shadow=0;labelBackgroundColor=light-dark(#f9f6f6, #ededed);strokeColor=light-dark(#af4646, #ededed);strokeWidth=2;" parent="WMPpJEY-YGb8HN8OjGhZ-45" vertex="1">
          <mxGeometry width="30" height="30" as="geometry">
            <mxRectangle width="30" height="30" as="alternateBounds" />
          </mxGeometry>
        </mxCell>
        <mxCell id="WMPpJEY-YGb8HN8OjGhZ-47" value="amount" style="shape=partialRectangle;connectable=0;top=0;left=0;bottom=0;right=0;align=left;spacingLeft=6;overflow=hidden;whiteSpace=wrap;html=1;shadow=0;labelBackgroundColor=light-dark(#f9f6f6, #ededed);strokeColor=light-dark(#af4646, #ededed);strokeWidth=2;" parent="WMPpJEY-YGb8HN8OjGhZ-45" vertex="1">
          <mxGeometry x="30" width="150" height="30" as="geometry">
            <mxRectangle width="150" height="30" as="alternateBounds" />
          </mxGeometry>
        </mxCell>
        <mxCell id="WMPpJEY-YGb8HN8OjGhZ-48" value="" style="shape=tableRow;horizontal=0;startSize=0;swimlaneHead=0;swimlaneBody=0;collapsible=0;dropTarget=0;points=[[0,0.5],[1,0.5]];portConstraint=eastwest;top=0;left=0;right=0;bottom=0;shadow=0;whiteSpace=wrap;labelBackgroundColor=light-dark(#f9f6f6, #ededed);strokeColor=light-dark(#af4646, #ededed);strokeWidth=2;" parent="WMPpJEY-YGb8HN8OjGhZ-29" vertex="1">
          <mxGeometry y="210" width="180" height="30" as="geometry" />
        </mxCell>
        <mxCell id="WMPpJEY-YGb8HN8OjGhZ-49" value="" style="shape=partialRectangle;connectable=0;top=0;left=0;bottom=0;right=0;editable=1;overflow=hidden;whiteSpace=wrap;html=1;shadow=0;labelBackgroundColor=light-dark(#f9f6f6, #ededed);strokeColor=light-dark(#af4646, #ededed);strokeWidth=2;" parent="WMPpJEY-YGb8HN8OjGhZ-48" vertex="1">
          <mxGeometry width="30" height="30" as="geometry">
            <mxRectangle width="30" height="30" as="alternateBounds" />
          </mxGeometry>
        </mxCell>
        <mxCell id="WMPpJEY-YGb8HN8OjGhZ-50" value="quantity" style="shape=partialRectangle;connectable=0;top=0;left=0;bottom=0;right=0;align=left;spacingLeft=6;overflow=hidden;whiteSpace=wrap;html=1;shadow=0;labelBackgroundColor=light-dark(#f9f6f6, #ededed);strokeColor=light-dark(#af4646, #ededed);strokeWidth=2;" parent="WMPpJEY-YGb8HN8OjGhZ-48" vertex="1">
          <mxGeometry x="30" width="150" height="30" as="geometry">
            <mxRectangle width="150" height="30" as="alternateBounds" />
          </mxGeometry>
        </mxCell>
        <mxCell id="WMPpJEY-YGb8HN8OjGhZ-51" value="" style="shape=tableRow;horizontal=0;startSize=0;swimlaneHead=0;swimlaneBody=0;collapsible=0;dropTarget=0;points=[[0,0.5],[1,0.5]];portConstraint=eastwest;top=0;left=0;right=0;bottom=0;shadow=0;whiteSpace=wrap;labelBackgroundColor=light-dark(#f9f6f6, #ededed);strokeColor=light-dark(#af4646, #ededed);strokeWidth=2;" parent="WMPpJEY-YGb8HN8OjGhZ-29" vertex="1">
          <mxGeometry y="240" width="180" height="30" as="geometry" />
        </mxCell>
        <mxCell id="WMPpJEY-YGb8HN8OjGhZ-52" value="" style="shape=partialRectangle;connectable=0;top=0;left=0;bottom=0;right=0;editable=1;overflow=hidden;whiteSpace=wrap;html=1;shadow=0;labelBackgroundColor=light-dark(#f9f6f6, #ededed);strokeColor=light-dark(#af4646, #ededed);strokeWidth=2;" parent="WMPpJEY-YGb8HN8OjGhZ-51" vertex="1">
          <mxGeometry width="30" height="30" as="geometry">
            <mxRectangle width="30" height="30" as="alternateBounds" />
          </mxGeometry>
        </mxCell>
        <mxCell id="WMPpJEY-YGb8HN8OjGhZ-53" value="" style="shape=partialRectangle;connectable=0;top=0;left=0;bottom=0;right=0;align=left;spacingLeft=6;overflow=hidden;whiteSpace=wrap;html=1;shadow=0;labelBackgroundColor=light-dark(#f9f6f6, #ededed);strokeColor=light-dark(#af4646, #ededed);strokeWidth=2;" parent="WMPpJEY-YGb8HN8OjGhZ-51" vertex="1">
          <mxGeometry x="30" width="150" height="30" as="geometry">
            <mxRectangle width="150" height="30" as="alternateBounds" />
          </mxGeometry>
        </mxCell>
        <mxCell id="WMPpJEY-YGb8HN8OjGhZ-54" value="" style="edgeStyle=elbowEdgeStyle;fontSize=12;html=1;endArrow=ERoneToMany;rounded=0;exitX=0;exitY=0.5;exitDx=0;exitDy=0;entryX=0;entryY=0.5;entryDx=0;entryDy=0;shadow=0;labelBackgroundColor=light-dark(#f9f6f6, #ededed);strokeColor=light-dark(#af4646, #ededed);strokeWidth=2;" parent="1" source="ifLj0rHLDiwDutu8jd7p-20" target="WMPpJEY-YGb8HN8OjGhZ-36" edge="1">
          <mxGeometry width="100" height="100" relative="1" as="geometry">
            <mxPoint x="320" y="900" as="sourcePoint" />
            <mxPoint x="420" y="800" as="targetPoint" />
            <Array as="points">
              <mxPoint x="400" y="390" />
            </Array>
          </mxGeometry>
        </mxCell>
        <mxCell id="WMPpJEY-YGb8HN8OjGhZ-55" value="" style="edgeStyle=elbowEdgeStyle;fontSize=12;html=1;endArrow=ERoneToMany;rounded=0;shadow=0;labelBackgroundColor=light-dark(#f9f6f6, #ededed);strokeColor=light-dark(#af4646, #ededed);strokeWidth=2;" parent="1" source="ifLj0rHLDiwDutu8jd7p-17" edge="1">
          <mxGeometry width="100" height="100" relative="1" as="geometry">
            <mxPoint x="250" y="690" as="sourcePoint" />
            <mxPoint x="350" y="590" as="targetPoint" />
          </mxGeometry>
        </mxCell>
      </root>
    </mxGraphModel>
  </diagram>
</mxfile>
